G04 EAGLE Gerber RS-274X export*
G75*
%MOMM*%
%FSLAX34Y34*%
%LPD*%
%INSilkscreen Bottom*%
%IPPOS*%
%AMOC8*
5,1,8,0,0,1.08239X$1,22.5*%
G01*
%ADD10C,0.228600*%


D10*
X2045877Y-555879D02*
X2045877Y-536321D01*
X2040445Y-536321D01*
X2040300Y-536323D01*
X2040156Y-536329D01*
X2040012Y-536338D01*
X2039868Y-536352D01*
X2039724Y-536369D01*
X2039581Y-536390D01*
X2039438Y-536415D01*
X2039297Y-536444D01*
X2039156Y-536476D01*
X2039016Y-536512D01*
X2038877Y-536552D01*
X2038739Y-536596D01*
X2038602Y-536643D01*
X2038467Y-536694D01*
X2038333Y-536749D01*
X2038200Y-536807D01*
X2038069Y-536868D01*
X2037940Y-536933D01*
X2037812Y-537001D01*
X2037687Y-537073D01*
X2037563Y-537148D01*
X2037442Y-537227D01*
X2037322Y-537308D01*
X2037205Y-537393D01*
X2037090Y-537481D01*
X2036977Y-537571D01*
X2036867Y-537665D01*
X2036760Y-537762D01*
X2036655Y-537861D01*
X2036552Y-537964D01*
X2036453Y-538069D01*
X2036356Y-538176D01*
X2036262Y-538286D01*
X2036172Y-538399D01*
X2036084Y-538514D01*
X2035999Y-538631D01*
X2035918Y-538751D01*
X2035839Y-538872D01*
X2035764Y-538996D01*
X2035692Y-539121D01*
X2035624Y-539249D01*
X2035559Y-539378D01*
X2035498Y-539509D01*
X2035440Y-539642D01*
X2035385Y-539776D01*
X2035334Y-539911D01*
X2035287Y-540048D01*
X2035243Y-540186D01*
X2035203Y-540325D01*
X2035167Y-540465D01*
X2035135Y-540606D01*
X2035106Y-540747D01*
X2035081Y-540890D01*
X2035060Y-541033D01*
X2035043Y-541177D01*
X2035029Y-541321D01*
X2035020Y-541465D01*
X2035014Y-541609D01*
X2035012Y-541754D01*
X2035012Y-550446D01*
X2035011Y-550446D02*
X2035013Y-550591D01*
X2035019Y-550735D01*
X2035028Y-550879D01*
X2035042Y-551023D01*
X2035059Y-551167D01*
X2035080Y-551310D01*
X2035105Y-551453D01*
X2035134Y-551594D01*
X2035166Y-551735D01*
X2035202Y-551875D01*
X2035242Y-552014D01*
X2035286Y-552152D01*
X2035333Y-552289D01*
X2035384Y-552424D01*
X2035439Y-552558D01*
X2035497Y-552691D01*
X2035558Y-552822D01*
X2035623Y-552951D01*
X2035691Y-553079D01*
X2035763Y-553204D01*
X2035838Y-553328D01*
X2035917Y-553449D01*
X2035998Y-553569D01*
X2036083Y-553686D01*
X2036171Y-553801D01*
X2036262Y-553914D01*
X2036355Y-554024D01*
X2036452Y-554131D01*
X2036552Y-554236D01*
X2036654Y-554339D01*
X2036759Y-554438D01*
X2036866Y-554535D01*
X2036976Y-554629D01*
X2037089Y-554719D01*
X2037204Y-554807D01*
X2037321Y-554892D01*
X2037441Y-554973D01*
X2037562Y-555052D01*
X2037686Y-555127D01*
X2037811Y-555199D01*
X2037939Y-555267D01*
X2038068Y-555332D01*
X2038199Y-555393D01*
X2038332Y-555451D01*
X2038466Y-555506D01*
X2038601Y-555557D01*
X2038738Y-555604D01*
X2038876Y-555648D01*
X2039015Y-555688D01*
X2039155Y-555724D01*
X2039296Y-555756D01*
X2039437Y-555785D01*
X2039580Y-555810D01*
X2039723Y-555831D01*
X2039867Y-555848D01*
X2040011Y-555862D01*
X2040155Y-555871D01*
X2040299Y-555877D01*
X2040444Y-555879D01*
X2040445Y-555879D02*
X2045877Y-555879D01*
X2023611Y-555879D02*
X2018178Y-555879D01*
X2023611Y-555879D02*
X2023722Y-555877D01*
X2023833Y-555871D01*
X2023944Y-555862D01*
X2024055Y-555849D01*
X2024165Y-555832D01*
X2024274Y-555811D01*
X2024383Y-555786D01*
X2024491Y-555758D01*
X2024597Y-555726D01*
X2024703Y-555691D01*
X2024807Y-555652D01*
X2024910Y-555609D01*
X2025011Y-555563D01*
X2025111Y-555514D01*
X2025209Y-555461D01*
X2025305Y-555404D01*
X2025399Y-555345D01*
X2025491Y-555282D01*
X2025581Y-555217D01*
X2025668Y-555148D01*
X2025753Y-555076D01*
X2025836Y-555002D01*
X2025916Y-554924D01*
X2025994Y-554844D01*
X2026068Y-554761D01*
X2026140Y-554676D01*
X2026209Y-554589D01*
X2026274Y-554499D01*
X2026337Y-554407D01*
X2026396Y-554313D01*
X2026453Y-554217D01*
X2026506Y-554119D01*
X2026555Y-554019D01*
X2026601Y-553918D01*
X2026644Y-553815D01*
X2026683Y-553711D01*
X2026718Y-553605D01*
X2026750Y-553499D01*
X2026778Y-553391D01*
X2026803Y-553282D01*
X2026824Y-553173D01*
X2026841Y-553063D01*
X2026854Y-552952D01*
X2026863Y-552841D01*
X2026869Y-552730D01*
X2026871Y-552619D01*
X2026870Y-552619D02*
X2026870Y-547187D01*
X2026868Y-547057D01*
X2026862Y-546927D01*
X2026853Y-546797D01*
X2026839Y-546668D01*
X2026821Y-546539D01*
X2026800Y-546411D01*
X2026775Y-546283D01*
X2026746Y-546157D01*
X2026713Y-546031D01*
X2026677Y-545906D01*
X2026637Y-545782D01*
X2026593Y-545660D01*
X2026545Y-545539D01*
X2026494Y-545419D01*
X2026440Y-545301D01*
X2026381Y-545185D01*
X2026320Y-545071D01*
X2026255Y-544958D01*
X2026186Y-544847D01*
X2026115Y-544739D01*
X2026040Y-544632D01*
X2025962Y-544528D01*
X2025881Y-544427D01*
X2025797Y-544328D01*
X2025710Y-544231D01*
X2025620Y-544137D01*
X2025527Y-544046D01*
X2025432Y-543957D01*
X2025334Y-543872D01*
X2025234Y-543789D01*
X2025131Y-543710D01*
X2025026Y-543633D01*
X2024918Y-543560D01*
X2024809Y-543490D01*
X2024697Y-543423D01*
X2024583Y-543360D01*
X2024468Y-543300D01*
X2024351Y-543244D01*
X2024232Y-543191D01*
X2024112Y-543141D01*
X2023990Y-543096D01*
X2023867Y-543054D01*
X2023743Y-543015D01*
X2023617Y-542981D01*
X2023491Y-542950D01*
X2023364Y-542923D01*
X2023236Y-542900D01*
X2023107Y-542880D01*
X2022978Y-542865D01*
X2022849Y-542853D01*
X2022719Y-542845D01*
X2022589Y-542841D01*
X2022459Y-542841D01*
X2022329Y-542845D01*
X2022199Y-542853D01*
X2022070Y-542865D01*
X2021941Y-542880D01*
X2021812Y-542900D01*
X2021684Y-542923D01*
X2021557Y-542950D01*
X2021431Y-542981D01*
X2021305Y-543015D01*
X2021181Y-543054D01*
X2021058Y-543096D01*
X2020936Y-543141D01*
X2020816Y-543191D01*
X2020697Y-543244D01*
X2020580Y-543300D01*
X2020465Y-543360D01*
X2020351Y-543423D01*
X2020239Y-543490D01*
X2020130Y-543560D01*
X2020022Y-543633D01*
X2019917Y-543710D01*
X2019814Y-543789D01*
X2019714Y-543872D01*
X2019616Y-543957D01*
X2019521Y-544046D01*
X2019428Y-544137D01*
X2019338Y-544231D01*
X2019251Y-544328D01*
X2019167Y-544427D01*
X2019086Y-544528D01*
X2019008Y-544632D01*
X2018933Y-544739D01*
X2018862Y-544847D01*
X2018793Y-544958D01*
X2018728Y-545071D01*
X2018667Y-545185D01*
X2018608Y-545301D01*
X2018554Y-545419D01*
X2018503Y-545539D01*
X2018455Y-545660D01*
X2018411Y-545782D01*
X2018371Y-545906D01*
X2018335Y-546031D01*
X2018302Y-546157D01*
X2018273Y-546283D01*
X2018248Y-546411D01*
X2018227Y-546539D01*
X2018209Y-546668D01*
X2018195Y-546797D01*
X2018186Y-546927D01*
X2018180Y-547057D01*
X2018178Y-547187D01*
X2018178Y-549360D01*
X2026870Y-549360D01*
X2009174Y-548273D02*
X2003741Y-550446D01*
X2009174Y-548273D02*
X2009272Y-548231D01*
X2009367Y-548187D01*
X2009461Y-548139D01*
X2009553Y-548087D01*
X2009643Y-548032D01*
X2009731Y-547973D01*
X2009817Y-547911D01*
X2009900Y-547846D01*
X2009981Y-547778D01*
X2010060Y-547707D01*
X2010135Y-547634D01*
X2010208Y-547557D01*
X2010278Y-547478D01*
X2010344Y-547396D01*
X2010408Y-547311D01*
X2010468Y-547225D01*
X2010526Y-547136D01*
X2010579Y-547045D01*
X2010630Y-546952D01*
X2010676Y-546857D01*
X2010720Y-546761D01*
X2010759Y-546663D01*
X2010795Y-546564D01*
X2010827Y-546463D01*
X2010856Y-546361D01*
X2010880Y-546258D01*
X2010901Y-546155D01*
X2010917Y-546051D01*
X2010930Y-545946D01*
X2010939Y-545840D01*
X2010944Y-545735D01*
X2010945Y-545629D01*
X2010942Y-545524D01*
X2010935Y-545418D01*
X2010924Y-545313D01*
X2010909Y-545209D01*
X2010890Y-545105D01*
X2010868Y-545001D01*
X2010841Y-544899D01*
X2010811Y-544798D01*
X2010777Y-544698D01*
X2010739Y-544599D01*
X2010697Y-544502D01*
X2010652Y-544407D01*
X2010604Y-544313D01*
X2010551Y-544221D01*
X2010496Y-544131D01*
X2010437Y-544043D01*
X2010375Y-543958D01*
X2010310Y-543875D01*
X2010241Y-543794D01*
X2010170Y-543716D01*
X2010096Y-543641D01*
X2010019Y-543569D01*
X2009939Y-543499D01*
X2009857Y-543433D01*
X2009772Y-543370D01*
X2009685Y-543310D01*
X2009596Y-543253D01*
X2009505Y-543200D01*
X2009412Y-543150D01*
X2009317Y-543103D01*
X2009220Y-543060D01*
X2009122Y-543021D01*
X2009023Y-542986D01*
X2008922Y-542954D01*
X2008820Y-542926D01*
X2008717Y-542902D01*
X2008614Y-542882D01*
X2008509Y-542866D01*
X2008404Y-542854D01*
X2008299Y-542845D01*
X2008193Y-542841D01*
X2008088Y-542840D01*
X2007791Y-542848D01*
X2007495Y-542863D01*
X2007199Y-542885D01*
X2006904Y-542914D01*
X2006609Y-542950D01*
X2006316Y-542994D01*
X2006023Y-543044D01*
X2005732Y-543102D01*
X2005443Y-543166D01*
X2005155Y-543237D01*
X2004868Y-543315D01*
X2004584Y-543400D01*
X2004302Y-543492D01*
X2004022Y-543591D01*
X2003745Y-543696D01*
X2003470Y-543808D01*
X2003198Y-543927D01*
X2003741Y-550446D02*
X2003643Y-550488D01*
X2003548Y-550532D01*
X2003454Y-550580D01*
X2003362Y-550632D01*
X2003272Y-550687D01*
X2003184Y-550746D01*
X2003098Y-550808D01*
X2003014Y-550873D01*
X2002934Y-550941D01*
X2002855Y-551012D01*
X2002780Y-551085D01*
X2002707Y-551162D01*
X2002637Y-551241D01*
X2002571Y-551323D01*
X2002507Y-551408D01*
X2002447Y-551494D01*
X2002389Y-551583D01*
X2002336Y-551674D01*
X2002285Y-551767D01*
X2002239Y-551862D01*
X2002195Y-551958D01*
X2002156Y-552056D01*
X2002120Y-552155D01*
X2002088Y-552256D01*
X2002059Y-552358D01*
X2002035Y-552461D01*
X2002014Y-552564D01*
X2001998Y-552668D01*
X2001985Y-552773D01*
X2001976Y-552879D01*
X2001971Y-552984D01*
X2001970Y-553090D01*
X2001973Y-553195D01*
X2001980Y-553301D01*
X2001991Y-553406D01*
X2002006Y-553510D01*
X2002025Y-553614D01*
X2002047Y-553718D01*
X2002074Y-553820D01*
X2002104Y-553921D01*
X2002138Y-554021D01*
X2002176Y-554120D01*
X2002218Y-554217D01*
X2002263Y-554312D01*
X2002311Y-554406D01*
X2002364Y-554498D01*
X2002419Y-554588D01*
X2002478Y-554676D01*
X2002540Y-554761D01*
X2002605Y-554844D01*
X2002674Y-554925D01*
X2002745Y-555003D01*
X2002819Y-555078D01*
X2002896Y-555150D01*
X2002976Y-555220D01*
X2003058Y-555286D01*
X2003143Y-555349D01*
X2003230Y-555409D01*
X2003319Y-555466D01*
X2003410Y-555519D01*
X2003503Y-555569D01*
X2003598Y-555616D01*
X2003695Y-555659D01*
X2003793Y-555698D01*
X2003892Y-555733D01*
X2003993Y-555765D01*
X2004095Y-555793D01*
X2004198Y-555817D01*
X2004301Y-555837D01*
X2004406Y-555853D01*
X2004511Y-555865D01*
X2004616Y-555874D01*
X2004722Y-555878D01*
X2004827Y-555879D01*
X2005263Y-555868D01*
X2005698Y-555846D01*
X2006133Y-555814D01*
X2006567Y-555772D01*
X2006999Y-555719D01*
X2007431Y-555657D01*
X2007860Y-555584D01*
X2008288Y-555501D01*
X2008714Y-555408D01*
X2009138Y-555304D01*
X2009558Y-555191D01*
X2009977Y-555068D01*
X2010392Y-554935D01*
X2010803Y-554793D01*
X1994717Y-555879D02*
X1994717Y-542840D01*
X1995260Y-537408D02*
X1995260Y-536321D01*
X1994173Y-536321D01*
X1994173Y-537408D01*
X1995260Y-537408D01*
X1984142Y-555879D02*
X1978710Y-555879D01*
X1984142Y-555879D02*
X1984253Y-555877D01*
X1984364Y-555871D01*
X1984475Y-555862D01*
X1984586Y-555849D01*
X1984696Y-555832D01*
X1984805Y-555811D01*
X1984914Y-555786D01*
X1985022Y-555758D01*
X1985128Y-555726D01*
X1985234Y-555691D01*
X1985338Y-555652D01*
X1985441Y-555609D01*
X1985542Y-555563D01*
X1985642Y-555514D01*
X1985740Y-555461D01*
X1985836Y-555404D01*
X1985930Y-555345D01*
X1986022Y-555282D01*
X1986112Y-555217D01*
X1986199Y-555148D01*
X1986284Y-555076D01*
X1986367Y-555002D01*
X1986447Y-554924D01*
X1986525Y-554844D01*
X1986599Y-554761D01*
X1986671Y-554676D01*
X1986740Y-554589D01*
X1986805Y-554499D01*
X1986868Y-554407D01*
X1986927Y-554313D01*
X1986984Y-554217D01*
X1987037Y-554119D01*
X1987086Y-554019D01*
X1987132Y-553918D01*
X1987175Y-553815D01*
X1987214Y-553711D01*
X1987249Y-553605D01*
X1987281Y-553499D01*
X1987309Y-553391D01*
X1987334Y-553282D01*
X1987355Y-553173D01*
X1987372Y-553063D01*
X1987385Y-552952D01*
X1987394Y-552841D01*
X1987400Y-552730D01*
X1987402Y-552619D01*
X1987402Y-546100D01*
X1987400Y-545986D01*
X1987394Y-545873D01*
X1987384Y-545759D01*
X1987370Y-545646D01*
X1987352Y-545534D01*
X1987331Y-545422D01*
X1987305Y-545311D01*
X1987276Y-545201D01*
X1987242Y-545093D01*
X1987205Y-544985D01*
X1987165Y-544879D01*
X1987120Y-544774D01*
X1987072Y-544671D01*
X1987020Y-544570D01*
X1986965Y-544470D01*
X1986907Y-544372D01*
X1986845Y-544277D01*
X1986779Y-544184D01*
X1986711Y-544093D01*
X1986639Y-544005D01*
X1986565Y-543919D01*
X1986487Y-543835D01*
X1986407Y-543755D01*
X1986323Y-543677D01*
X1986238Y-543603D01*
X1986149Y-543531D01*
X1986058Y-543463D01*
X1985965Y-543397D01*
X1985870Y-543335D01*
X1985772Y-543277D01*
X1985672Y-543222D01*
X1985571Y-543170D01*
X1985468Y-543122D01*
X1985363Y-543077D01*
X1985257Y-543037D01*
X1985149Y-543000D01*
X1985041Y-542966D01*
X1984931Y-542937D01*
X1984820Y-542911D01*
X1984708Y-542890D01*
X1984596Y-542872D01*
X1984483Y-542858D01*
X1984369Y-542848D01*
X1984256Y-542842D01*
X1984142Y-542840D01*
X1978710Y-542840D01*
X1978710Y-559139D01*
X1978709Y-559139D02*
X1978711Y-559250D01*
X1978717Y-559361D01*
X1978726Y-559472D01*
X1978739Y-559583D01*
X1978756Y-559693D01*
X1978777Y-559802D01*
X1978802Y-559911D01*
X1978830Y-560019D01*
X1978862Y-560125D01*
X1978897Y-560231D01*
X1978936Y-560335D01*
X1978979Y-560438D01*
X1979025Y-560539D01*
X1979074Y-560639D01*
X1979127Y-560737D01*
X1979184Y-560833D01*
X1979243Y-560927D01*
X1979306Y-561019D01*
X1979371Y-561109D01*
X1979440Y-561196D01*
X1979512Y-561281D01*
X1979586Y-561364D01*
X1979664Y-561444D01*
X1979744Y-561522D01*
X1979827Y-561596D01*
X1979912Y-561668D01*
X1979999Y-561737D01*
X1980089Y-561802D01*
X1980181Y-561865D01*
X1980275Y-561924D01*
X1980371Y-561981D01*
X1980469Y-562034D01*
X1980569Y-562083D01*
X1980670Y-562129D01*
X1980773Y-562172D01*
X1980877Y-562211D01*
X1980983Y-562246D01*
X1981089Y-562278D01*
X1981197Y-562306D01*
X1981306Y-562331D01*
X1981415Y-562352D01*
X1981525Y-562369D01*
X1981636Y-562382D01*
X1981747Y-562391D01*
X1981858Y-562397D01*
X1981969Y-562399D01*
X1981969Y-562398D02*
X1986315Y-562398D01*
X1970019Y-555879D02*
X1970019Y-542840D01*
X1964587Y-542840D01*
X1964473Y-542842D01*
X1964360Y-542848D01*
X1964246Y-542858D01*
X1964133Y-542872D01*
X1964021Y-542890D01*
X1963909Y-542911D01*
X1963798Y-542937D01*
X1963688Y-542966D01*
X1963580Y-543000D01*
X1963472Y-543037D01*
X1963366Y-543077D01*
X1963261Y-543122D01*
X1963158Y-543170D01*
X1963057Y-543222D01*
X1962957Y-543277D01*
X1962859Y-543335D01*
X1962764Y-543397D01*
X1962671Y-543463D01*
X1962580Y-543531D01*
X1962492Y-543603D01*
X1962406Y-543677D01*
X1962322Y-543755D01*
X1962242Y-543835D01*
X1962164Y-543919D01*
X1962090Y-544004D01*
X1962018Y-544093D01*
X1961950Y-544184D01*
X1961884Y-544277D01*
X1961822Y-544372D01*
X1961764Y-544470D01*
X1961709Y-544570D01*
X1961657Y-544671D01*
X1961609Y-544774D01*
X1961564Y-544879D01*
X1961524Y-544985D01*
X1961487Y-545093D01*
X1961453Y-545201D01*
X1961424Y-545311D01*
X1961398Y-545422D01*
X1961377Y-545534D01*
X1961359Y-545646D01*
X1961345Y-545759D01*
X1961335Y-545873D01*
X1961329Y-545986D01*
X1961327Y-546100D01*
X1961327Y-555879D01*
X1942750Y-555879D02*
X1942750Y-536321D01*
X1942750Y-555879D02*
X1937317Y-555879D01*
X1937203Y-555877D01*
X1937090Y-555871D01*
X1936976Y-555861D01*
X1936863Y-555847D01*
X1936751Y-555829D01*
X1936639Y-555808D01*
X1936528Y-555782D01*
X1936418Y-555753D01*
X1936310Y-555719D01*
X1936202Y-555682D01*
X1936096Y-555642D01*
X1935991Y-555597D01*
X1935888Y-555549D01*
X1935787Y-555497D01*
X1935687Y-555442D01*
X1935589Y-555384D01*
X1935494Y-555322D01*
X1935401Y-555256D01*
X1935310Y-555188D01*
X1935222Y-555116D01*
X1935136Y-555042D01*
X1935052Y-554964D01*
X1934972Y-554884D01*
X1934894Y-554800D01*
X1934820Y-554715D01*
X1934748Y-554626D01*
X1934680Y-554535D01*
X1934614Y-554442D01*
X1934552Y-554347D01*
X1934494Y-554249D01*
X1934439Y-554150D01*
X1934387Y-554048D01*
X1934339Y-553945D01*
X1934294Y-553840D01*
X1934254Y-553734D01*
X1934217Y-553626D01*
X1934183Y-553518D01*
X1934154Y-553408D01*
X1934128Y-553297D01*
X1934107Y-553185D01*
X1934089Y-553073D01*
X1934075Y-552960D01*
X1934065Y-552846D01*
X1934059Y-552733D01*
X1934057Y-552619D01*
X1934057Y-546100D01*
X1934059Y-545989D01*
X1934065Y-545878D01*
X1934074Y-545767D01*
X1934087Y-545656D01*
X1934104Y-545546D01*
X1934125Y-545437D01*
X1934150Y-545328D01*
X1934178Y-545220D01*
X1934210Y-545114D01*
X1934245Y-545008D01*
X1934284Y-544904D01*
X1934327Y-544801D01*
X1934373Y-544700D01*
X1934422Y-544600D01*
X1934475Y-544502D01*
X1934532Y-544406D01*
X1934591Y-544312D01*
X1934654Y-544220D01*
X1934719Y-544130D01*
X1934788Y-544043D01*
X1934860Y-543958D01*
X1934934Y-543875D01*
X1935012Y-543795D01*
X1935092Y-543717D01*
X1935175Y-543643D01*
X1935260Y-543571D01*
X1935347Y-543502D01*
X1935437Y-543437D01*
X1935529Y-543374D01*
X1935623Y-543315D01*
X1935719Y-543258D01*
X1935817Y-543205D01*
X1935917Y-543156D01*
X1936018Y-543110D01*
X1936121Y-543067D01*
X1936225Y-543028D01*
X1936331Y-542993D01*
X1936437Y-542961D01*
X1936545Y-542933D01*
X1936654Y-542908D01*
X1936763Y-542887D01*
X1936873Y-542870D01*
X1936984Y-542857D01*
X1937095Y-542848D01*
X1937206Y-542842D01*
X1937317Y-542840D01*
X1942750Y-542840D01*
X1927381Y-562398D02*
X1925208Y-562398D01*
X1918689Y-542840D01*
X1927381Y-542840D02*
X1923035Y-555879D01*
X1901243Y-555879D02*
X1901243Y-536321D01*
X1892550Y-536321D01*
X1892550Y-545013D02*
X1901243Y-545013D01*
X1885264Y-542840D02*
X1885264Y-555879D01*
X1885264Y-542840D02*
X1878745Y-542840D01*
X1878745Y-545013D01*
X1872384Y-542840D02*
X1872384Y-552619D01*
X1872385Y-552619D02*
X1872383Y-552730D01*
X1872377Y-552841D01*
X1872368Y-552952D01*
X1872355Y-553063D01*
X1872338Y-553173D01*
X1872317Y-553282D01*
X1872292Y-553391D01*
X1872264Y-553499D01*
X1872232Y-553605D01*
X1872197Y-553711D01*
X1872158Y-553815D01*
X1872115Y-553918D01*
X1872069Y-554019D01*
X1872020Y-554119D01*
X1871967Y-554217D01*
X1871910Y-554313D01*
X1871851Y-554407D01*
X1871788Y-554499D01*
X1871723Y-554589D01*
X1871654Y-554676D01*
X1871582Y-554761D01*
X1871508Y-554844D01*
X1871430Y-554924D01*
X1871350Y-555002D01*
X1871267Y-555076D01*
X1871182Y-555148D01*
X1871095Y-555217D01*
X1871005Y-555282D01*
X1870913Y-555345D01*
X1870819Y-555404D01*
X1870723Y-555461D01*
X1870625Y-555514D01*
X1870525Y-555563D01*
X1870424Y-555609D01*
X1870321Y-555652D01*
X1870217Y-555691D01*
X1870111Y-555726D01*
X1870005Y-555758D01*
X1869897Y-555786D01*
X1869788Y-555811D01*
X1869679Y-555832D01*
X1869569Y-555849D01*
X1869458Y-555862D01*
X1869347Y-555871D01*
X1869236Y-555877D01*
X1869125Y-555879D01*
X1863692Y-555879D01*
X1863692Y-542840D01*
X1855679Y-542840D02*
X1855679Y-555879D01*
X1856222Y-537408D02*
X1856222Y-536321D01*
X1855136Y-536321D01*
X1855136Y-537408D01*
X1856222Y-537408D01*
X1849799Y-542840D02*
X1843280Y-542840D01*
X1847626Y-536321D02*
X1847626Y-552619D01*
X1847624Y-552730D01*
X1847618Y-552841D01*
X1847609Y-552952D01*
X1847596Y-553063D01*
X1847579Y-553173D01*
X1847558Y-553282D01*
X1847533Y-553391D01*
X1847505Y-553499D01*
X1847473Y-553605D01*
X1847438Y-553711D01*
X1847399Y-553815D01*
X1847356Y-553918D01*
X1847310Y-554019D01*
X1847261Y-554119D01*
X1847208Y-554217D01*
X1847151Y-554313D01*
X1847092Y-554407D01*
X1847029Y-554499D01*
X1846964Y-554589D01*
X1846895Y-554676D01*
X1846823Y-554761D01*
X1846749Y-554844D01*
X1846671Y-554924D01*
X1846591Y-555002D01*
X1846508Y-555076D01*
X1846423Y-555148D01*
X1846336Y-555217D01*
X1846246Y-555282D01*
X1846154Y-555345D01*
X1846060Y-555404D01*
X1845964Y-555461D01*
X1845866Y-555514D01*
X1845766Y-555563D01*
X1845665Y-555609D01*
X1845562Y-555652D01*
X1845458Y-555691D01*
X1845352Y-555726D01*
X1845246Y-555758D01*
X1845138Y-555786D01*
X1845029Y-555811D01*
X1844920Y-555832D01*
X1844810Y-555849D01*
X1844699Y-555862D01*
X1844588Y-555871D01*
X1844477Y-555877D01*
X1844366Y-555879D01*
X1843280Y-555879D01*
X1837161Y-562398D02*
X1834988Y-562398D01*
X1828469Y-542840D01*
X1837161Y-542840D02*
X1832815Y-555879D01*
X1820910Y-555879D02*
X1820910Y-536321D01*
X1812218Y-542840D02*
X1820910Y-549360D01*
X1817107Y-546643D02*
X1812218Y-555879D01*
X1802387Y-555879D02*
X1796954Y-555879D01*
X1802387Y-555879D02*
X1802498Y-555877D01*
X1802609Y-555871D01*
X1802720Y-555862D01*
X1802831Y-555849D01*
X1802941Y-555832D01*
X1803050Y-555811D01*
X1803159Y-555786D01*
X1803267Y-555758D01*
X1803373Y-555726D01*
X1803479Y-555691D01*
X1803583Y-555652D01*
X1803686Y-555609D01*
X1803787Y-555563D01*
X1803887Y-555514D01*
X1803985Y-555461D01*
X1804081Y-555404D01*
X1804175Y-555345D01*
X1804267Y-555282D01*
X1804357Y-555217D01*
X1804444Y-555148D01*
X1804529Y-555076D01*
X1804612Y-555002D01*
X1804692Y-554924D01*
X1804770Y-554844D01*
X1804844Y-554761D01*
X1804916Y-554676D01*
X1804985Y-554589D01*
X1805050Y-554499D01*
X1805113Y-554407D01*
X1805172Y-554313D01*
X1805229Y-554217D01*
X1805282Y-554119D01*
X1805331Y-554019D01*
X1805377Y-553918D01*
X1805420Y-553815D01*
X1805459Y-553711D01*
X1805494Y-553605D01*
X1805526Y-553499D01*
X1805554Y-553391D01*
X1805579Y-553282D01*
X1805600Y-553173D01*
X1805617Y-553063D01*
X1805630Y-552952D01*
X1805639Y-552841D01*
X1805645Y-552730D01*
X1805647Y-552619D01*
X1805646Y-552619D02*
X1805646Y-547187D01*
X1805644Y-547057D01*
X1805638Y-546927D01*
X1805629Y-546797D01*
X1805615Y-546668D01*
X1805597Y-546539D01*
X1805576Y-546411D01*
X1805551Y-546283D01*
X1805522Y-546157D01*
X1805489Y-546031D01*
X1805453Y-545906D01*
X1805413Y-545782D01*
X1805369Y-545660D01*
X1805321Y-545539D01*
X1805270Y-545419D01*
X1805216Y-545301D01*
X1805157Y-545185D01*
X1805096Y-545071D01*
X1805031Y-544958D01*
X1804962Y-544847D01*
X1804891Y-544739D01*
X1804816Y-544632D01*
X1804738Y-544528D01*
X1804657Y-544427D01*
X1804573Y-544328D01*
X1804486Y-544231D01*
X1804396Y-544137D01*
X1804303Y-544046D01*
X1804208Y-543957D01*
X1804110Y-543872D01*
X1804010Y-543789D01*
X1803907Y-543710D01*
X1803802Y-543633D01*
X1803694Y-543560D01*
X1803585Y-543490D01*
X1803473Y-543423D01*
X1803359Y-543360D01*
X1803244Y-543300D01*
X1803127Y-543244D01*
X1803008Y-543191D01*
X1802888Y-543141D01*
X1802766Y-543096D01*
X1802643Y-543054D01*
X1802519Y-543015D01*
X1802393Y-542981D01*
X1802267Y-542950D01*
X1802140Y-542923D01*
X1802012Y-542900D01*
X1801883Y-542880D01*
X1801754Y-542865D01*
X1801625Y-542853D01*
X1801495Y-542845D01*
X1801365Y-542841D01*
X1801235Y-542841D01*
X1801105Y-542845D01*
X1800975Y-542853D01*
X1800846Y-542865D01*
X1800717Y-542880D01*
X1800588Y-542900D01*
X1800460Y-542923D01*
X1800333Y-542950D01*
X1800207Y-542981D01*
X1800081Y-543015D01*
X1799957Y-543054D01*
X1799834Y-543096D01*
X1799712Y-543141D01*
X1799592Y-543191D01*
X1799473Y-543244D01*
X1799356Y-543300D01*
X1799241Y-543360D01*
X1799127Y-543423D01*
X1799015Y-543490D01*
X1798906Y-543560D01*
X1798798Y-543633D01*
X1798693Y-543710D01*
X1798590Y-543789D01*
X1798490Y-543872D01*
X1798392Y-543957D01*
X1798297Y-544046D01*
X1798204Y-544137D01*
X1798114Y-544231D01*
X1798027Y-544328D01*
X1797943Y-544427D01*
X1797862Y-544528D01*
X1797784Y-544632D01*
X1797709Y-544739D01*
X1797638Y-544847D01*
X1797569Y-544958D01*
X1797504Y-545071D01*
X1797443Y-545185D01*
X1797384Y-545301D01*
X1797330Y-545419D01*
X1797279Y-545539D01*
X1797231Y-545660D01*
X1797187Y-545782D01*
X1797147Y-545906D01*
X1797111Y-546031D01*
X1797078Y-546157D01*
X1797049Y-546283D01*
X1797024Y-546411D01*
X1797003Y-546539D01*
X1796985Y-546668D01*
X1796971Y-546797D01*
X1796962Y-546927D01*
X1796956Y-547057D01*
X1796954Y-547187D01*
X1796954Y-549360D01*
X1805646Y-549360D01*
X1786320Y-555879D02*
X1780887Y-555879D01*
X1786320Y-555879D02*
X1786431Y-555877D01*
X1786542Y-555871D01*
X1786653Y-555862D01*
X1786764Y-555849D01*
X1786874Y-555832D01*
X1786983Y-555811D01*
X1787092Y-555786D01*
X1787200Y-555758D01*
X1787306Y-555726D01*
X1787412Y-555691D01*
X1787516Y-555652D01*
X1787619Y-555609D01*
X1787720Y-555563D01*
X1787820Y-555514D01*
X1787918Y-555461D01*
X1788014Y-555404D01*
X1788108Y-555345D01*
X1788200Y-555282D01*
X1788290Y-555217D01*
X1788377Y-555148D01*
X1788462Y-555076D01*
X1788545Y-555002D01*
X1788625Y-554924D01*
X1788703Y-554844D01*
X1788777Y-554761D01*
X1788849Y-554676D01*
X1788918Y-554589D01*
X1788983Y-554499D01*
X1789046Y-554407D01*
X1789105Y-554313D01*
X1789162Y-554217D01*
X1789215Y-554119D01*
X1789264Y-554019D01*
X1789310Y-553918D01*
X1789353Y-553815D01*
X1789392Y-553711D01*
X1789427Y-553605D01*
X1789459Y-553499D01*
X1789487Y-553391D01*
X1789512Y-553282D01*
X1789533Y-553173D01*
X1789550Y-553063D01*
X1789563Y-552952D01*
X1789572Y-552841D01*
X1789578Y-552730D01*
X1789580Y-552619D01*
X1789580Y-547187D01*
X1789578Y-547057D01*
X1789572Y-546927D01*
X1789563Y-546797D01*
X1789549Y-546668D01*
X1789531Y-546539D01*
X1789510Y-546411D01*
X1789485Y-546283D01*
X1789456Y-546157D01*
X1789423Y-546031D01*
X1789387Y-545906D01*
X1789347Y-545782D01*
X1789303Y-545660D01*
X1789255Y-545539D01*
X1789204Y-545419D01*
X1789150Y-545301D01*
X1789091Y-545185D01*
X1789030Y-545071D01*
X1788965Y-544958D01*
X1788896Y-544847D01*
X1788825Y-544739D01*
X1788750Y-544632D01*
X1788672Y-544528D01*
X1788591Y-544427D01*
X1788507Y-544328D01*
X1788420Y-544231D01*
X1788330Y-544137D01*
X1788237Y-544046D01*
X1788142Y-543957D01*
X1788044Y-543872D01*
X1787944Y-543789D01*
X1787841Y-543710D01*
X1787736Y-543633D01*
X1787628Y-543560D01*
X1787519Y-543490D01*
X1787407Y-543423D01*
X1787293Y-543360D01*
X1787178Y-543300D01*
X1787061Y-543244D01*
X1786942Y-543191D01*
X1786822Y-543141D01*
X1786700Y-543096D01*
X1786577Y-543054D01*
X1786453Y-543015D01*
X1786327Y-542981D01*
X1786201Y-542950D01*
X1786074Y-542923D01*
X1785946Y-542900D01*
X1785817Y-542880D01*
X1785688Y-542865D01*
X1785559Y-542853D01*
X1785429Y-542845D01*
X1785299Y-542841D01*
X1785169Y-542841D01*
X1785039Y-542845D01*
X1784909Y-542853D01*
X1784780Y-542865D01*
X1784651Y-542880D01*
X1784522Y-542900D01*
X1784394Y-542923D01*
X1784267Y-542950D01*
X1784141Y-542981D01*
X1784015Y-543015D01*
X1783891Y-543054D01*
X1783768Y-543096D01*
X1783646Y-543141D01*
X1783526Y-543191D01*
X1783407Y-543244D01*
X1783290Y-543300D01*
X1783175Y-543360D01*
X1783061Y-543423D01*
X1782949Y-543490D01*
X1782840Y-543560D01*
X1782732Y-543633D01*
X1782627Y-543710D01*
X1782524Y-543789D01*
X1782424Y-543872D01*
X1782326Y-543957D01*
X1782231Y-544046D01*
X1782138Y-544137D01*
X1782048Y-544231D01*
X1781961Y-544328D01*
X1781877Y-544427D01*
X1781796Y-544528D01*
X1781718Y-544632D01*
X1781643Y-544739D01*
X1781572Y-544847D01*
X1781503Y-544958D01*
X1781438Y-545071D01*
X1781377Y-545185D01*
X1781318Y-545301D01*
X1781264Y-545419D01*
X1781213Y-545539D01*
X1781165Y-545660D01*
X1781121Y-545782D01*
X1781081Y-545906D01*
X1781045Y-546031D01*
X1781012Y-546157D01*
X1780983Y-546283D01*
X1780958Y-546411D01*
X1780937Y-546539D01*
X1780919Y-546668D01*
X1780905Y-546797D01*
X1780896Y-546927D01*
X1780890Y-547057D01*
X1780888Y-547187D01*
X1780887Y-547187D02*
X1780887Y-549360D01*
X1789580Y-549360D01*
X1772815Y-555879D02*
X1772815Y-536321D01*
X1772815Y-555879D02*
X1767382Y-555879D01*
X1767268Y-555877D01*
X1767155Y-555871D01*
X1767041Y-555861D01*
X1766928Y-555847D01*
X1766816Y-555829D01*
X1766704Y-555808D01*
X1766593Y-555782D01*
X1766483Y-555753D01*
X1766375Y-555719D01*
X1766267Y-555682D01*
X1766161Y-555642D01*
X1766056Y-555597D01*
X1765953Y-555549D01*
X1765852Y-555497D01*
X1765752Y-555442D01*
X1765654Y-555384D01*
X1765559Y-555322D01*
X1765466Y-555256D01*
X1765375Y-555188D01*
X1765287Y-555116D01*
X1765201Y-555042D01*
X1765117Y-554964D01*
X1765037Y-554884D01*
X1764959Y-554800D01*
X1764885Y-554715D01*
X1764813Y-554626D01*
X1764745Y-554535D01*
X1764679Y-554442D01*
X1764617Y-554347D01*
X1764559Y-554249D01*
X1764504Y-554150D01*
X1764452Y-554048D01*
X1764404Y-553945D01*
X1764359Y-553840D01*
X1764319Y-553734D01*
X1764282Y-553626D01*
X1764248Y-553518D01*
X1764219Y-553408D01*
X1764193Y-553297D01*
X1764172Y-553185D01*
X1764154Y-553073D01*
X1764140Y-552960D01*
X1764130Y-552846D01*
X1764124Y-552733D01*
X1764122Y-552619D01*
X1764123Y-552619D02*
X1764123Y-546100D01*
X1764122Y-546100D02*
X1764124Y-545989D01*
X1764130Y-545878D01*
X1764139Y-545767D01*
X1764152Y-545656D01*
X1764169Y-545546D01*
X1764190Y-545437D01*
X1764215Y-545328D01*
X1764243Y-545220D01*
X1764275Y-545114D01*
X1764310Y-545008D01*
X1764349Y-544904D01*
X1764392Y-544801D01*
X1764438Y-544700D01*
X1764487Y-544600D01*
X1764540Y-544502D01*
X1764597Y-544406D01*
X1764656Y-544312D01*
X1764719Y-544220D01*
X1764784Y-544130D01*
X1764853Y-544043D01*
X1764925Y-543958D01*
X1764999Y-543875D01*
X1765077Y-543795D01*
X1765157Y-543717D01*
X1765240Y-543643D01*
X1765325Y-543571D01*
X1765412Y-543502D01*
X1765502Y-543437D01*
X1765594Y-543374D01*
X1765688Y-543315D01*
X1765784Y-543258D01*
X1765882Y-543205D01*
X1765982Y-543156D01*
X1766083Y-543110D01*
X1766186Y-543067D01*
X1766290Y-543028D01*
X1766396Y-542993D01*
X1766502Y-542961D01*
X1766610Y-542933D01*
X1766719Y-542908D01*
X1766828Y-542887D01*
X1766938Y-542870D01*
X1767049Y-542857D01*
X1767160Y-542848D01*
X1767271Y-542842D01*
X1767382Y-542840D01*
X1772815Y-542840D01*
M02*
