G04 EAGLE Gerber RS-274X export*
G75*
%MOMM*%
%FSLAX34Y34*%
%LPD*%
%INSoldermask Bottom*%
%IPPOS*%
%AMOC8*
5,1,8,0,0,1.08239X$1,22.5*%
G01*
%ADD10C,0.914400*%


D10*
X1968768Y-479524D02*
X1953387Y-479524D01*
X1953012Y-479529D01*
X1952638Y-479542D01*
X1952264Y-479565D01*
X1951891Y-479597D01*
X1951519Y-479638D01*
X1951148Y-479688D01*
X1950778Y-479747D01*
X1950409Y-479815D01*
X1950043Y-479892D01*
X1949678Y-479978D01*
X1949316Y-480073D01*
X1948956Y-480176D01*
X1948598Y-480288D01*
X1948244Y-480409D01*
X1947892Y-480539D01*
X1947544Y-480677D01*
X1947199Y-480823D01*
X1946858Y-480978D01*
X1946521Y-481141D01*
X1946188Y-481313D01*
X1945859Y-481492D01*
X1945535Y-481679D01*
X1945215Y-481874D01*
X1944900Y-482077D01*
X1944590Y-482288D01*
X1944286Y-482506D01*
X1943987Y-482731D01*
X1943693Y-482964D01*
X1943405Y-483203D01*
X1943123Y-483450D01*
X1942847Y-483703D01*
X1942577Y-483963D01*
X1942314Y-484229D01*
X1942057Y-484502D01*
X1941808Y-484781D01*
X1941564Y-485066D01*
X1941328Y-485357D01*
X1941099Y-485653D01*
X1940878Y-485955D01*
X1940664Y-486263D01*
X1940457Y-486575D01*
X1940258Y-486892D01*
X1940067Y-487215D01*
X1939883Y-487541D01*
X1939708Y-487872D01*
X1939541Y-488207D01*
X1939382Y-488546D01*
X1939231Y-488889D01*
X1939089Y-489236D01*
X1938955Y-489586D01*
X1938830Y-489939D01*
X1938713Y-490295D01*
X1938605Y-490653D01*
X1938506Y-491015D01*
X1938416Y-491378D01*
X1938334Y-491744D01*
X1938262Y-492111D01*
X1938198Y-492480D01*
X1938144Y-492851D01*
X1938098Y-493223D01*
X1938062Y-493596D01*
X1938034Y-493969D01*
X1938016Y-494343D01*
X1938007Y-494718D01*
X1938007Y-495092D01*
X1938016Y-495467D01*
X1938034Y-495841D01*
X1938062Y-496214D01*
X1938098Y-496587D01*
X1938144Y-496959D01*
X1938198Y-497330D01*
X1938262Y-497699D01*
X1938334Y-498066D01*
X1938416Y-498432D01*
X1938506Y-498795D01*
X1938605Y-499157D01*
X1938713Y-499515D01*
X1938830Y-499871D01*
X1938955Y-500224D01*
X1939089Y-500574D01*
X1939231Y-500921D01*
X1939382Y-501264D01*
X1939541Y-501603D01*
X1939708Y-501938D01*
X1939883Y-502269D01*
X1940067Y-502596D01*
X1940258Y-502918D01*
X1940457Y-503235D01*
X1940664Y-503547D01*
X1940878Y-503855D01*
X1941099Y-504157D01*
X1941328Y-504453D01*
X1941564Y-504744D01*
X1941808Y-505029D01*
X1942057Y-505308D01*
X1942314Y-505581D01*
X1942577Y-505847D01*
X1942847Y-506107D01*
X1943123Y-506360D01*
X1943405Y-506607D01*
X1943693Y-506846D01*
X1943987Y-507079D01*
X1944286Y-507304D01*
X1944590Y-507522D01*
X1944900Y-507733D01*
X1945215Y-507936D01*
X1945535Y-508131D01*
X1945859Y-508318D01*
X1946188Y-508497D01*
X1946521Y-508669D01*
X1946858Y-508832D01*
X1947199Y-508987D01*
X1947544Y-509133D01*
X1947892Y-509271D01*
X1948244Y-509401D01*
X1948598Y-509522D01*
X1948956Y-509634D01*
X1949316Y-509737D01*
X1949678Y-509832D01*
X1950043Y-509918D01*
X1950409Y-509995D01*
X1950778Y-510063D01*
X1951148Y-510122D01*
X1951519Y-510172D01*
X1951891Y-510213D01*
X1952264Y-510245D01*
X1952638Y-510268D01*
X1953012Y-510281D01*
X1953387Y-510286D01*
X1968768Y-510286D01*
X1968768Y-454914D01*
X1953387Y-454914D01*
X1953087Y-454918D01*
X1952788Y-454929D01*
X1952489Y-454947D01*
X1952190Y-454972D01*
X1951892Y-455005D01*
X1951595Y-455045D01*
X1951299Y-455092D01*
X1951005Y-455147D01*
X1950712Y-455208D01*
X1950420Y-455277D01*
X1950130Y-455353D01*
X1949842Y-455436D01*
X1949556Y-455526D01*
X1949272Y-455622D01*
X1948991Y-455726D01*
X1948713Y-455836D01*
X1948437Y-455954D01*
X1948164Y-456077D01*
X1947894Y-456208D01*
X1947628Y-456345D01*
X1947365Y-456488D01*
X1947105Y-456638D01*
X1946849Y-456794D01*
X1946597Y-456957D01*
X1946350Y-457125D01*
X1946106Y-457299D01*
X1945867Y-457480D01*
X1945632Y-457666D01*
X1945401Y-457857D01*
X1945176Y-458055D01*
X1944955Y-458257D01*
X1944739Y-458465D01*
X1944529Y-458678D01*
X1944323Y-458897D01*
X1944123Y-459120D01*
X1943929Y-459348D01*
X1943740Y-459580D01*
X1943557Y-459818D01*
X1943379Y-460059D01*
X1943208Y-460305D01*
X1943043Y-460555D01*
X1942884Y-460809D01*
X1942731Y-461067D01*
X1942584Y-461328D01*
X1942444Y-461593D01*
X1942310Y-461861D01*
X1942183Y-462132D01*
X1942062Y-462406D01*
X1941948Y-462684D01*
X1941841Y-462964D01*
X1941741Y-463246D01*
X1941648Y-463531D01*
X1941561Y-463818D01*
X1941482Y-464107D01*
X1941410Y-464397D01*
X1941345Y-464690D01*
X1941287Y-464984D01*
X1941236Y-465279D01*
X1941192Y-465576D01*
X1941156Y-465873D01*
X1941127Y-466171D01*
X1941105Y-466470D01*
X1941090Y-466770D01*
X1941083Y-467069D01*
X1941083Y-467369D01*
X1941090Y-467668D01*
X1941105Y-467968D01*
X1941127Y-468267D01*
X1941156Y-468565D01*
X1941192Y-468862D01*
X1941236Y-469159D01*
X1941287Y-469454D01*
X1941345Y-469748D01*
X1941410Y-470041D01*
X1941482Y-470331D01*
X1941561Y-470620D01*
X1941648Y-470907D01*
X1941741Y-471192D01*
X1941841Y-471474D01*
X1941948Y-471754D01*
X1942062Y-472032D01*
X1942183Y-472306D01*
X1942310Y-472577D01*
X1942444Y-472845D01*
X1942584Y-473110D01*
X1942731Y-473372D01*
X1942884Y-473629D01*
X1943043Y-473883D01*
X1943208Y-474133D01*
X1943379Y-474379D01*
X1943557Y-474620D01*
X1943740Y-474858D01*
X1943929Y-475090D01*
X1944123Y-475318D01*
X1944323Y-475541D01*
X1944529Y-475760D01*
X1944739Y-475973D01*
X1944955Y-476181D01*
X1945176Y-476383D01*
X1945401Y-476581D01*
X1945632Y-476772D01*
X1945867Y-476958D01*
X1946106Y-477139D01*
X1946350Y-477313D01*
X1946597Y-477481D01*
X1946849Y-477644D01*
X1947105Y-477800D01*
X1947365Y-477950D01*
X1947628Y-478093D01*
X1947894Y-478230D01*
X1948164Y-478361D01*
X1948437Y-478484D01*
X1948713Y-478602D01*
X1948991Y-478712D01*
X1949272Y-478816D01*
X1949556Y-478912D01*
X1949842Y-479002D01*
X1950130Y-479085D01*
X1950420Y-479161D01*
X1950712Y-479230D01*
X1951005Y-479291D01*
X1951299Y-479346D01*
X1951595Y-479393D01*
X1951892Y-479433D01*
X1952190Y-479466D01*
X1952489Y-479491D01*
X1952788Y-479509D01*
X1953087Y-479520D01*
X1953387Y-479524D01*
X1922243Y-470295D02*
X1922243Y-494905D01*
X1922243Y-470295D02*
X1922238Y-469920D01*
X1922225Y-469546D01*
X1922202Y-469172D01*
X1922170Y-468799D01*
X1922129Y-468427D01*
X1922079Y-468056D01*
X1922020Y-467686D01*
X1921952Y-467317D01*
X1921875Y-466951D01*
X1921789Y-466586D01*
X1921694Y-466224D01*
X1921591Y-465864D01*
X1921479Y-465506D01*
X1921358Y-465152D01*
X1921228Y-464800D01*
X1921090Y-464452D01*
X1920944Y-464107D01*
X1920789Y-463766D01*
X1920626Y-463429D01*
X1920454Y-463096D01*
X1920275Y-462767D01*
X1920088Y-462443D01*
X1919893Y-462123D01*
X1919690Y-461808D01*
X1919479Y-461498D01*
X1919261Y-461194D01*
X1919036Y-460895D01*
X1918803Y-460601D01*
X1918564Y-460313D01*
X1918317Y-460031D01*
X1918064Y-459755D01*
X1917804Y-459485D01*
X1917538Y-459222D01*
X1917265Y-458965D01*
X1916986Y-458716D01*
X1916701Y-458472D01*
X1916410Y-458236D01*
X1916114Y-458007D01*
X1915812Y-457786D01*
X1915504Y-457572D01*
X1915192Y-457365D01*
X1914875Y-457166D01*
X1914553Y-456975D01*
X1914226Y-456791D01*
X1913895Y-456616D01*
X1913560Y-456449D01*
X1913221Y-456290D01*
X1912878Y-456139D01*
X1912531Y-455997D01*
X1912181Y-455863D01*
X1911828Y-455738D01*
X1911472Y-455621D01*
X1911114Y-455513D01*
X1910752Y-455414D01*
X1910389Y-455324D01*
X1910023Y-455242D01*
X1909656Y-455170D01*
X1909287Y-455106D01*
X1908916Y-455052D01*
X1908544Y-455006D01*
X1908171Y-454970D01*
X1907798Y-454942D01*
X1907424Y-454924D01*
X1907049Y-454915D01*
X1906675Y-454915D01*
X1906300Y-454924D01*
X1905926Y-454942D01*
X1905553Y-454970D01*
X1905180Y-455006D01*
X1904808Y-455052D01*
X1904437Y-455106D01*
X1904068Y-455170D01*
X1903701Y-455242D01*
X1903335Y-455324D01*
X1902972Y-455414D01*
X1902610Y-455513D01*
X1902252Y-455621D01*
X1901896Y-455738D01*
X1901543Y-455863D01*
X1901193Y-455997D01*
X1900846Y-456139D01*
X1900503Y-456290D01*
X1900164Y-456449D01*
X1899829Y-456616D01*
X1899498Y-456791D01*
X1899172Y-456975D01*
X1898849Y-457166D01*
X1898532Y-457365D01*
X1898220Y-457572D01*
X1897912Y-457786D01*
X1897610Y-458007D01*
X1897314Y-458236D01*
X1897023Y-458472D01*
X1896738Y-458716D01*
X1896459Y-458965D01*
X1896186Y-459222D01*
X1895920Y-459485D01*
X1895660Y-459755D01*
X1895407Y-460031D01*
X1895160Y-460313D01*
X1894921Y-460601D01*
X1894688Y-460895D01*
X1894463Y-461194D01*
X1894245Y-461498D01*
X1894034Y-461808D01*
X1893831Y-462123D01*
X1893636Y-462443D01*
X1893449Y-462767D01*
X1893270Y-463096D01*
X1893098Y-463429D01*
X1892935Y-463766D01*
X1892780Y-464107D01*
X1892634Y-464452D01*
X1892496Y-464800D01*
X1892366Y-465152D01*
X1892245Y-465506D01*
X1892133Y-465864D01*
X1892030Y-466224D01*
X1891935Y-466586D01*
X1891849Y-466951D01*
X1891772Y-467317D01*
X1891704Y-467686D01*
X1891645Y-468056D01*
X1891595Y-468427D01*
X1891554Y-468799D01*
X1891522Y-469172D01*
X1891499Y-469546D01*
X1891486Y-469920D01*
X1891481Y-470295D01*
X1891481Y-494905D01*
X1891486Y-495280D01*
X1891499Y-495654D01*
X1891522Y-496028D01*
X1891554Y-496401D01*
X1891595Y-496773D01*
X1891645Y-497144D01*
X1891704Y-497514D01*
X1891772Y-497883D01*
X1891849Y-498249D01*
X1891935Y-498614D01*
X1892030Y-498976D01*
X1892133Y-499336D01*
X1892245Y-499694D01*
X1892366Y-500048D01*
X1892496Y-500400D01*
X1892634Y-500748D01*
X1892780Y-501093D01*
X1892935Y-501434D01*
X1893098Y-501771D01*
X1893270Y-502104D01*
X1893449Y-502433D01*
X1893636Y-502757D01*
X1893831Y-503077D01*
X1894034Y-503392D01*
X1894245Y-503702D01*
X1894463Y-504006D01*
X1894688Y-504305D01*
X1894921Y-504599D01*
X1895160Y-504887D01*
X1895407Y-505169D01*
X1895660Y-505445D01*
X1895920Y-505715D01*
X1896186Y-505978D01*
X1896459Y-506235D01*
X1896738Y-506484D01*
X1897023Y-506728D01*
X1897314Y-506964D01*
X1897610Y-507193D01*
X1897912Y-507414D01*
X1898220Y-507628D01*
X1898532Y-507835D01*
X1898849Y-508034D01*
X1899172Y-508225D01*
X1899498Y-508409D01*
X1899829Y-508584D01*
X1900164Y-508751D01*
X1900503Y-508910D01*
X1900846Y-509061D01*
X1901193Y-509203D01*
X1901543Y-509337D01*
X1901896Y-509462D01*
X1902252Y-509579D01*
X1902610Y-509687D01*
X1902972Y-509786D01*
X1903335Y-509876D01*
X1903701Y-509958D01*
X1904068Y-510030D01*
X1904437Y-510094D01*
X1904808Y-510148D01*
X1905180Y-510194D01*
X1905553Y-510230D01*
X1905926Y-510258D01*
X1906300Y-510276D01*
X1906675Y-510285D01*
X1907049Y-510285D01*
X1907424Y-510276D01*
X1907798Y-510258D01*
X1908171Y-510230D01*
X1908544Y-510194D01*
X1908916Y-510148D01*
X1909287Y-510094D01*
X1909656Y-510030D01*
X1910023Y-509958D01*
X1910389Y-509876D01*
X1910752Y-509786D01*
X1911114Y-509687D01*
X1911472Y-509579D01*
X1911828Y-509462D01*
X1912181Y-509337D01*
X1912531Y-509203D01*
X1912878Y-509061D01*
X1913221Y-508910D01*
X1913560Y-508751D01*
X1913895Y-508584D01*
X1914226Y-508409D01*
X1914553Y-508225D01*
X1914875Y-508034D01*
X1915192Y-507835D01*
X1915504Y-507628D01*
X1915812Y-507414D01*
X1916114Y-507193D01*
X1916410Y-506964D01*
X1916701Y-506728D01*
X1916986Y-506484D01*
X1917265Y-506235D01*
X1917538Y-505978D01*
X1917804Y-505715D01*
X1918064Y-505445D01*
X1918317Y-505169D01*
X1918564Y-504887D01*
X1918803Y-504599D01*
X1919036Y-504305D01*
X1919261Y-504006D01*
X1919479Y-503702D01*
X1919690Y-503392D01*
X1919893Y-503077D01*
X1920088Y-502757D01*
X1920275Y-502433D01*
X1920454Y-502104D01*
X1920626Y-501771D01*
X1920789Y-501434D01*
X1920944Y-501093D01*
X1921090Y-500748D01*
X1921228Y-500400D01*
X1921358Y-500048D01*
X1921479Y-499694D01*
X1921591Y-499336D01*
X1921694Y-498976D01*
X1921789Y-498614D01*
X1921875Y-498249D01*
X1921952Y-497883D01*
X1922020Y-497514D01*
X1922079Y-497144D01*
X1922129Y-496773D01*
X1922170Y-496401D01*
X1922202Y-496028D01*
X1922225Y-495654D01*
X1922238Y-495280D01*
X1922243Y-494905D01*
X1871994Y-510286D02*
X1871994Y-454914D01*
X1856613Y-454914D01*
X1856238Y-454919D01*
X1855864Y-454932D01*
X1855490Y-454955D01*
X1855117Y-454987D01*
X1854745Y-455028D01*
X1854374Y-455078D01*
X1854004Y-455137D01*
X1853635Y-455205D01*
X1853269Y-455282D01*
X1852904Y-455368D01*
X1852542Y-455463D01*
X1852182Y-455566D01*
X1851824Y-455678D01*
X1851470Y-455799D01*
X1851118Y-455929D01*
X1850770Y-456067D01*
X1850425Y-456213D01*
X1850084Y-456368D01*
X1849747Y-456531D01*
X1849414Y-456703D01*
X1849085Y-456882D01*
X1848761Y-457069D01*
X1848441Y-457264D01*
X1848126Y-457467D01*
X1847816Y-457678D01*
X1847512Y-457896D01*
X1847213Y-458121D01*
X1846919Y-458354D01*
X1846631Y-458593D01*
X1846349Y-458840D01*
X1846073Y-459093D01*
X1845803Y-459353D01*
X1845540Y-459619D01*
X1845283Y-459892D01*
X1845034Y-460171D01*
X1844790Y-460456D01*
X1844554Y-460747D01*
X1844325Y-461043D01*
X1844104Y-461345D01*
X1843890Y-461653D01*
X1843683Y-461965D01*
X1843484Y-462282D01*
X1843293Y-462605D01*
X1843109Y-462931D01*
X1842934Y-463262D01*
X1842767Y-463597D01*
X1842608Y-463936D01*
X1842457Y-464279D01*
X1842315Y-464626D01*
X1842181Y-464976D01*
X1842056Y-465329D01*
X1841939Y-465685D01*
X1841831Y-466043D01*
X1841732Y-466405D01*
X1841642Y-466768D01*
X1841560Y-467134D01*
X1841488Y-467501D01*
X1841424Y-467870D01*
X1841370Y-468241D01*
X1841324Y-468613D01*
X1841288Y-468986D01*
X1841260Y-469359D01*
X1841242Y-469733D01*
X1841233Y-470108D01*
X1841233Y-470482D01*
X1841242Y-470857D01*
X1841260Y-471231D01*
X1841288Y-471604D01*
X1841324Y-471977D01*
X1841370Y-472349D01*
X1841424Y-472720D01*
X1841488Y-473089D01*
X1841560Y-473456D01*
X1841642Y-473822D01*
X1841732Y-474185D01*
X1841831Y-474547D01*
X1841939Y-474905D01*
X1842056Y-475261D01*
X1842181Y-475614D01*
X1842315Y-475964D01*
X1842457Y-476311D01*
X1842608Y-476654D01*
X1842767Y-476993D01*
X1842934Y-477328D01*
X1843109Y-477659D01*
X1843293Y-477986D01*
X1843484Y-478308D01*
X1843683Y-478625D01*
X1843890Y-478937D01*
X1844104Y-479245D01*
X1844325Y-479547D01*
X1844554Y-479843D01*
X1844790Y-480134D01*
X1845034Y-480419D01*
X1845283Y-480698D01*
X1845540Y-480971D01*
X1845803Y-481237D01*
X1846073Y-481497D01*
X1846349Y-481750D01*
X1846631Y-481997D01*
X1846919Y-482236D01*
X1847213Y-482469D01*
X1847512Y-482694D01*
X1847816Y-482912D01*
X1848126Y-483123D01*
X1848441Y-483326D01*
X1848761Y-483521D01*
X1849085Y-483708D01*
X1849414Y-483887D01*
X1849747Y-484059D01*
X1850084Y-484222D01*
X1850425Y-484377D01*
X1850770Y-484523D01*
X1851118Y-484661D01*
X1851470Y-484791D01*
X1851824Y-484912D01*
X1852182Y-485024D01*
X1852542Y-485127D01*
X1852904Y-485222D01*
X1853269Y-485308D01*
X1853635Y-485385D01*
X1854004Y-485453D01*
X1854374Y-485512D01*
X1854745Y-485562D01*
X1855117Y-485603D01*
X1855490Y-485635D01*
X1855864Y-485658D01*
X1856238Y-485671D01*
X1856613Y-485676D01*
X1871994Y-485676D01*
M02*
