M48
;GenerationSoftware,Autodesk,EAGLE,9.6.2*%
;CreationDate,2021-04-05T13:47:39Z*%
FMAT,2
ICI,OFF
METRIC,TZ,000.000
T6C0.350
T5C1.050
T4C1.300
T3C1.700
T2C3.050
T1C4.000
%
G90
M71
T1
X133350Y95250
X323850Y47625
X381000Y19050
X361950Y19050
X342900Y19050
X323850Y19050
X304800Y19050
X285750Y19050
X19050Y114300
X76200Y57150
X361950Y95250
X38100Y114300
X361950Y38100
X19050Y38100
X57150Y114300
X381000Y95250
X95250Y57150
X76200Y114300
X228600Y38100
X19050Y76200
X95250Y114300
X76200Y19050
X114300Y57100
X114300Y114300
X38100Y76200
X38100Y38100
X133350Y114300
X247650Y19050
X57150Y76200
X152400Y114300
X133350Y57150
X247650Y38100
X171450Y114300
X76200Y76200
X57150Y38100
X190500Y114300
X152400Y57150
X95250Y76200
X209550Y114300
X381000Y38100
X209550Y19050
X228600Y114300
X114300Y76200
X171450Y57150
X247650Y114300
X76200Y38100
X133350Y76200
X266700Y114300
X266700Y38100
X190500Y57150
X285750Y114300
X152400Y76200
X95250Y19050
X304800Y114300
X95250Y38100
X171450Y76200
X323850Y114300
X209550Y57150
X19050Y19050
X342900Y114300
X190500Y76200
X285750Y38100
X361950Y114300
X228600Y57150
X209550Y76200
X381000Y114300
X114300Y38150
X152400Y19050
X19050Y95250
X228600Y76200
X247650Y57150
X38100Y95250
X190500Y19050
X247650Y76200
X57150Y95250
X133350Y38100
X266700Y57150
X76200Y95250
X266700Y76200
X304800Y38100
X95250Y95250
X38100Y19050
X285750Y76200
X114300Y95250
X285750Y57150
X266700Y19050
X304800Y76200
X152400Y38100
X114300Y19050
X152400Y95250
X323850Y76200
X304800Y57150
X171450Y95250
X323850Y38100
X342900Y76200
X190500Y95250
X171450Y38100
X323850Y57150
X209550Y95250
X361950Y76200
X228600Y19050
X228600Y95250
X57150Y19050
X381000Y76200
X247650Y95250
X342900Y57150
X190500Y38100
X266700Y95250
X19050Y57150
X342900Y38100
X285750Y95250
X361950Y57150
X38100Y57150
X304800Y95250
X171450Y19050
X209550Y38100
X323850Y95250
X57150Y57150
X381000Y57150
X342900Y95250
X133350Y19050
X332090Y35725
X332090Y59525
X142875Y19050
X169121Y27292
X154775Y27290
X130975Y27290
X200025Y19050
X211925Y27290
X188125Y27290
X123819Y18984
X135719Y27224
X111919Y27224
X181021Y19052
X192921Y27292
T2
X130975Y12050
X135719Y11984
X111919Y11984
X211925Y12050
X188125Y12050
X316850Y35725
X192921Y12052
X169121Y12052
X316850Y59525
X154775Y12050
T3
X242570Y114300
X252730Y114300
X261620Y114300
X271780Y114300
X280670Y114300
X290830Y114300
X299720Y114300
X309880Y114300
X318770Y114300
X328930Y114300
X337820Y114300
X347980Y114300
X356870Y114300
X367030Y114300
X375920Y114300
X386080Y114300
X13970Y95250
X24130Y95250
X33020Y95250
X43180Y95250
X52070Y95250
X62230Y95250
X71120Y95250
X81280Y95250
X90170Y95250
X100330Y95250
X109220Y95250
X119380Y95250
X290830Y76200
X128270Y95250
X138430Y95250
X147320Y95250
X157480Y95250
X166370Y95250
X176530Y95250
X185420Y95250
X195580Y95250
X204470Y95250
X214630Y95250
X223520Y95250
X233680Y95250
X242570Y95250
X252730Y95250
X261620Y95250
X271780Y95250
X280670Y95250
X290830Y95250
X299720Y95250
X309880Y95250
X318770Y95250
X328930Y95250
X337820Y95250
X347980Y95250
X356870Y95250
X367030Y95250
X375920Y95250
X386080Y95250
X13970Y76200
X24130Y76200
X33020Y76200
X43180Y76200
X52070Y76200
X62230Y76200
X71120Y76200
X81280Y76200
X90170Y76200
X100330Y76200
X109220Y76200
X119380Y76200
X128270Y76200
X138430Y76200
X147320Y76200
X157480Y76200
X166370Y76200
X176530Y76200
X185420Y76200
X195580Y76200
X204470Y76200
X214630Y76200
X223520Y76200
X233680Y76200
X242570Y76200
X252730Y76200
X261620Y76200
X271780Y76200
X280670Y76200
X299720Y76200
X309880Y76200
X318770Y76200
X328930Y76200
X337820Y76200
X347980Y76200
X356870Y76200
X367030Y76200
X375920Y76200
X386080Y76200
X13970Y57150
X24130Y57150
X33020Y57150
X43180Y57150
X52070Y57150
X62230Y57150
X71120Y57150
X81280Y57150
X90170Y57150
X100330Y57150
X109220Y57100
X119380Y57100
X128270Y57150
X138430Y57150
X147320Y57150
X157480Y57150
X166370Y57150
X176530Y57150
X185420Y57150
X195580Y57150
X204470Y57150
X214630Y57150
X223520Y57150
X233680Y57150
X242570Y57150
X252730Y57150
X261620Y57150
X271780Y57150
X280670Y57150
X290830Y57150
X299720Y57150
X309880Y57150
X318770Y57150
X328930Y57150
X337820Y57150
X347980Y57150
X356870Y57150
X367030Y57150
X375920Y57150
X386080Y57150
X13970Y38100
X24130Y38100
X33020Y38100
X43180Y38100
X52070Y38100
X62230Y38100
X71120Y38100
X81280Y38100
X90170Y38100
X100330Y38100
X109220Y38150
X119380Y38150
X128270Y38100
X138430Y38100
X147320Y38100
X157480Y38100
X166370Y38100
X176530Y38100
X185420Y38100
X195580Y38100
X204470Y38100
X214630Y38100
X223520Y38100
X233680Y38100
X242570Y38100
X252730Y38100
X261620Y38100
X271780Y38100
X280670Y38100
X290830Y38100
X299720Y38100
X309880Y38100
X318770Y38100
X328930Y38100
X337820Y38100
X347980Y38100
X356870Y38100
X367030Y38100
X375920Y38100
X386080Y38100
X13970Y19050
X24130Y19050
X33020Y19050
X43180Y19050
X52070Y19050
X62230Y19050
X71120Y19050
X81280Y19050
X90170Y19050
X100330Y19050
X109220Y19050
X119380Y19050
X128270Y19050
X138430Y19050
X147320Y19050
X157480Y19050
X166370Y19050
X176530Y19050
X185420Y19050
X195580Y19050
X204470Y19050
X214630Y19050
X223520Y19050
X233680Y19050
X242570Y19050
X252730Y19050
X261620Y19050
X271780Y19050
X280670Y19050
X290830Y19050
X299720Y19050
X309880Y19050
X318770Y19050
X328930Y19050
X337820Y19050
X347980Y19050
X356870Y19050
X367030Y19050
X375920Y19050
X386080Y19050
X323850Y42545
X323850Y52705
X13970Y114300
X24130Y114300
X43180Y114300
X33020Y114300
X52070Y114300
X147955Y19050
X137795Y19050
X62230Y114300
X71120Y114300
X81280Y114300
X90170Y114300
X100330Y114300
X205105Y19050
X194945Y19050
X109220Y114300
X119380Y114300
X128270Y114300
X138430Y114300
X147320Y114300
X128899Y18984
X118739Y18984
X157480Y114300
X166370Y114300
X176530Y114300
X185420Y114300
X195580Y114300
X186101Y19052
X175941Y19052
X204470Y114300
X214630Y114300
X223520Y114300
X233680Y114300
T4
X288290Y119380
X212090Y24130
X224790Y21590
X231140Y24130
X243840Y21590
X250190Y24130
X262890Y21590
X269240Y24130
X15240Y116840
X21590Y119380
X41910Y111760
X35560Y109220
X53340Y116840
X59690Y119380
X72390Y116840
X78740Y119380
X91440Y116840
X97790Y119380
X110490Y116840
X116840Y119380
X129540Y116840
X135890Y119380
X148590Y116840
X154940Y119380
X167640Y116840
X173990Y119380
X186690Y116840
X193040Y119380
X205740Y116840
X212090Y119380
X224790Y116840
X231140Y119380
X243840Y116840
X250190Y119380
X262890Y116840
X269240Y119380
X281940Y116840
X262890Y97790
X300990Y116840
X307340Y119380
X320040Y116840
X326390Y119380
X339090Y116840
X345440Y119380
X358140Y116840
X364490Y119380
X377190Y116840
X383540Y119380
X15240Y97790
X21590Y100330
X34290Y97790
X40640Y100330
X53340Y97790
X59690Y100330
X72390Y97790
X78740Y100330
X91440Y97790
X97790Y100330
X110490Y97790
X116840Y100330
X129540Y97790
X135890Y100330
X148590Y97790
X154940Y100330
X167640Y97790
X173990Y100330
X186690Y97790
X193040Y100330
X205740Y97790
X212090Y100330
X224790Y97790
X231140Y100330
X243840Y97790
X250190Y100330
X281940Y21590
X269240Y100330
X281940Y97790
X288290Y100330
X300990Y97790
X307340Y100330
X320040Y97790
X326390Y100330
X339090Y97790
X345440Y100330
X358140Y97790
X364490Y100330
X377190Y97790
X383540Y100330
X15240Y78740
X21590Y81280
X34290Y78740
X40640Y81280
X53340Y78740
X59690Y81280
X72390Y78740
X78740Y81280
X91440Y78740
X97790Y81280
X110490Y78740
X116840Y81280
X129540Y78740
X135890Y81280
X148590Y78740
X154940Y81280
X167640Y78740
X173990Y81280
X186690Y78740
X193040Y81280
X205740Y78740
X212090Y81280
X224790Y78740
X231140Y81280
X243840Y78740
X250190Y81280
X262890Y78740
X269240Y81280
X281940Y78740
X288290Y81280
X300990Y78740
X307340Y81280
X320040Y78740
X326390Y81280
X339090Y78740
X345440Y81280
X358140Y78740
X364490Y81280
X377190Y78740
X383540Y81280
X288290Y24130
X300990Y21590
X307340Y24130
X320040Y21590
X326390Y24130
X339090Y21590
X345440Y24130
X358140Y21590
X364490Y24130
X377190Y21590
X383540Y24130
X321310Y43815
X318770Y50165
X146685Y16510
X140335Y13970
X203835Y16510
X197485Y13970
X127629Y16444
X121279Y13904
X184831Y16512
X178481Y13972
X186690Y59690
X15240Y59690
X21590Y62230
X34290Y59690
X40640Y62230
X53340Y59690
X59690Y62230
X72390Y59690
X78740Y62230
X91440Y59690
X97790Y62230
X110490Y59640
X116840Y62180
X129540Y59690
X135890Y62230
X148590Y59690
X154940Y62230
X167640Y59690
X173990Y62230
X193040Y62230
X205740Y59690
X212090Y62230
X224790Y59690
X231140Y62230
X243840Y59690
X250190Y62230
X262890Y59690
X269240Y62230
X281940Y59690
X288290Y62230
X300990Y59690
X307340Y62230
X320040Y59690
X326390Y62230
X339090Y59690
X345440Y62230
X358140Y59690
X364490Y62230
X377190Y59690
X383540Y62230
X15240Y40640
X21590Y43180
X34290Y40640
X40640Y43180
X53340Y40640
X59690Y43180
X72390Y40640
X78740Y43180
X91440Y40640
X97790Y43180
X110490Y40690
X116840Y43230
X129540Y40640
X135890Y43180
X148590Y40640
X154940Y43180
X167640Y40640
X173990Y43180
X186690Y40640
X193040Y43180
X205740Y40640
X212090Y43180
X224790Y40640
X231140Y43180
X243840Y40640
X250190Y43180
X262890Y40640
X269240Y43180
X281940Y40640
X288290Y43180
X300990Y40640
X307340Y43180
X320040Y40640
X326390Y43180
X339090Y40640
X345440Y43180
X358140Y40640
X364490Y43180
X377190Y40640
X383540Y43180
X15240Y21590
X21590Y24130
X34290Y21590
X40640Y24130
X53340Y21590
X59690Y24130
X72390Y21590
X78740Y24130
X91440Y21590
X97790Y24130
X110490Y21590
X116840Y24130
X129540Y21590
X135890Y24130
X148590Y21590
X154940Y24130
X167640Y21590
X173990Y24130
X186690Y21590
X193040Y24130
X205740Y21590
T5
X45500Y111230
X45500Y95890
X45500Y90810
X45500Y88270
X45500Y85730
X45500Y83190
X30500Y100970
X45500Y80650
X45500Y121390
X45500Y118850
X45500Y116310
X45500Y113770
X45500Y78110
X45500Y108690
X45500Y106150
X45500Y103610
X30500Y121390
X30500Y118850
X30500Y116310
X30500Y113770
X30500Y111230
X30500Y108690
X30500Y106150
X30500Y103610
X45500Y93350
X30500Y98430
X30500Y95890
X30500Y93350
X30500Y90810
X45500Y75570
X45500Y73030
X30500Y88270
X30500Y85730
X30500Y83190
X30500Y80650
X30500Y78110
X30500Y75570
X30500Y73030
X45500Y100970
X45500Y98430
T6
X26000Y37000
X37000Y84000
X42000Y85000
X26000Y55000
X43000Y86000
X47585Y88582
X27125Y28983
X35000Y104000
M30