G04 EAGLE Gerber RS-274X export*
G75*
%MOMM*%
%FSLAX34Y34*%
%LPD*%
%INSoldermask Bottom*%
%IPPOS*%
%AMOC8*
5,1,8,0,0,1.08239X$1,22.5*%
G01*
%ADD10C,4.203200*%
%ADD11C,1.903200*%
%ADD12C,2.743200*%
%ADD13R,1.423200X1.113200*%
%ADD14R,2.203200X2.203200*%
%ADD15C,2.203200*%
%ADD16C,3.253200*%
%ADD17C,0.959600*%


D10*
X190500Y1143000D03*
D11*
X139700Y1143000D03*
X241300Y1143000D03*
D12*
X152400Y1168400D03*
X215900Y1193800D03*
D10*
X381000Y1143000D03*
D11*
X431800Y1143000D03*
X330200Y1143000D03*
D12*
X419100Y1117600D03*
X355600Y1092200D03*
D10*
X571500Y1143000D03*
D11*
X520700Y1143000D03*
X622300Y1143000D03*
D12*
X533400Y1168400D03*
X596900Y1193800D03*
D10*
X762000Y1143000D03*
D11*
X711200Y1143000D03*
X812800Y1143000D03*
D12*
X723900Y1168400D03*
X787400Y1193800D03*
D10*
X952500Y1143000D03*
D11*
X901700Y1143000D03*
X1003300Y1143000D03*
D12*
X914400Y1168400D03*
X977900Y1193800D03*
D10*
X1143000Y1143000D03*
D11*
X1092200Y1143000D03*
X1193800Y1143000D03*
D12*
X1104900Y1168400D03*
X1168400Y1193800D03*
D10*
X1333500Y1143000D03*
D11*
X1282700Y1143000D03*
X1384300Y1143000D03*
D12*
X1295400Y1168400D03*
X1358900Y1193800D03*
D10*
X1524000Y1143000D03*
D11*
X1473200Y1143000D03*
X1574800Y1143000D03*
D12*
X1485900Y1168400D03*
X1549400Y1193800D03*
D10*
X1714500Y1143000D03*
D11*
X1663700Y1143000D03*
X1765300Y1143000D03*
D12*
X1676400Y1168400D03*
X1739900Y1193800D03*
D10*
X1905000Y1143000D03*
D11*
X1854200Y1143000D03*
X1955800Y1143000D03*
D12*
X1866900Y1168400D03*
X1930400Y1193800D03*
D10*
X2095500Y1143000D03*
D11*
X2044700Y1143000D03*
X2146300Y1143000D03*
D12*
X2057400Y1168400D03*
X2120900Y1193800D03*
D10*
X2286000Y1143000D03*
D11*
X2235200Y1143000D03*
X2336800Y1143000D03*
D12*
X2247900Y1168400D03*
X2311400Y1193800D03*
D10*
X2476500Y1143000D03*
D11*
X2425700Y1143000D03*
X2527300Y1143000D03*
D12*
X2438400Y1168400D03*
X2501900Y1193800D03*
D10*
X2667000Y1143000D03*
D11*
X2616200Y1143000D03*
X2717800Y1143000D03*
D12*
X2628900Y1168400D03*
X2692400Y1193800D03*
D10*
X2857500Y1143000D03*
D11*
X2806700Y1143000D03*
X2908300Y1143000D03*
D12*
X2819400Y1168400D03*
X2882900Y1193800D03*
D10*
X3048000Y1143000D03*
D11*
X2997200Y1143000D03*
X3098800Y1143000D03*
D12*
X3009900Y1168400D03*
X3073400Y1193800D03*
D10*
X3238500Y1143000D03*
D11*
X3187700Y1143000D03*
X3289300Y1143000D03*
D12*
X3200400Y1168400D03*
X3263900Y1193800D03*
D10*
X3429000Y1143000D03*
D11*
X3378200Y1143000D03*
X3479800Y1143000D03*
D12*
X3390900Y1168400D03*
X3454400Y1193800D03*
D10*
X3619500Y1143000D03*
D11*
X3568700Y1143000D03*
X3670300Y1143000D03*
D12*
X3581400Y1168400D03*
X3644900Y1193800D03*
D10*
X3810000Y1143000D03*
D11*
X3759200Y1143000D03*
X3860800Y1143000D03*
D12*
X3771900Y1168400D03*
X3835400Y1193800D03*
D10*
X190500Y952500D03*
D11*
X139700Y952500D03*
X241300Y952500D03*
D12*
X152400Y977900D03*
X215900Y1003300D03*
D10*
X381000Y952500D03*
D11*
X330200Y952500D03*
X431800Y952500D03*
D12*
X342900Y977900D03*
X406400Y1003300D03*
D10*
X571500Y952500D03*
D11*
X520700Y952500D03*
X622300Y952500D03*
D12*
X533400Y977900D03*
X596900Y1003300D03*
D10*
X762000Y952500D03*
D11*
X711200Y952500D03*
X812800Y952500D03*
D12*
X723900Y977900D03*
X787400Y1003300D03*
D10*
X952500Y952500D03*
D11*
X901700Y952500D03*
X1003300Y952500D03*
D12*
X914400Y977900D03*
X977900Y1003300D03*
D10*
X1143000Y952500D03*
D11*
X1092200Y952500D03*
X1193800Y952500D03*
D12*
X1104900Y977900D03*
X1168400Y1003300D03*
D10*
X1333500Y952500D03*
D11*
X1282700Y952500D03*
X1384300Y952500D03*
D12*
X1295400Y977900D03*
X1358900Y1003300D03*
D10*
X1524000Y952500D03*
D11*
X1473200Y952500D03*
X1574800Y952500D03*
D12*
X1485900Y977900D03*
X1549400Y1003300D03*
D10*
X1714500Y952500D03*
D11*
X1663700Y952500D03*
X1765300Y952500D03*
D12*
X1676400Y977900D03*
X1739900Y1003300D03*
D10*
X1905000Y952500D03*
D11*
X1854200Y952500D03*
X1955800Y952500D03*
D12*
X1866900Y977900D03*
X1930400Y1003300D03*
D10*
X2095500Y952500D03*
D11*
X2044700Y952500D03*
X2146300Y952500D03*
D12*
X2057400Y977900D03*
X2120900Y1003300D03*
D10*
X2286000Y952500D03*
D11*
X2235200Y952500D03*
X2336800Y952500D03*
D12*
X2247900Y977900D03*
X2311400Y1003300D03*
D10*
X2476500Y952500D03*
D11*
X2425700Y952500D03*
X2527300Y952500D03*
D12*
X2438400Y977900D03*
X2501900Y1003300D03*
D10*
X2667000Y952500D03*
D11*
X2616200Y952500D03*
X2717800Y952500D03*
D12*
X2628900Y977900D03*
X2692400Y1003300D03*
D10*
X2857500Y952500D03*
D11*
X2806700Y952500D03*
X2908300Y952500D03*
D12*
X2819400Y977900D03*
X2882900Y1003300D03*
D10*
X3048000Y952500D03*
D11*
X2997200Y952500D03*
X3098800Y952500D03*
D12*
X3009900Y977900D03*
X3073400Y1003300D03*
D10*
X3238500Y952500D03*
D11*
X3187700Y952500D03*
X3289300Y952500D03*
D12*
X3200400Y977900D03*
X3263900Y1003300D03*
D10*
X3429000Y952500D03*
D11*
X3378200Y952500D03*
X3479800Y952500D03*
D12*
X3390900Y977900D03*
X3454400Y1003300D03*
D10*
X3619500Y952500D03*
D11*
X3568700Y952500D03*
X3670300Y952500D03*
D12*
X3581400Y977900D03*
X3644900Y1003300D03*
D10*
X3810000Y952500D03*
D11*
X3759200Y952500D03*
X3860800Y952500D03*
D12*
X3771900Y977900D03*
X3835400Y1003300D03*
D10*
X190500Y762000D03*
D11*
X139700Y762000D03*
X241300Y762000D03*
D12*
X152400Y787400D03*
X215900Y812800D03*
D10*
X381000Y762000D03*
D11*
X330200Y762000D03*
X431800Y762000D03*
D12*
X342900Y787400D03*
X406400Y812800D03*
D10*
X571500Y762000D03*
D11*
X520700Y762000D03*
X622300Y762000D03*
D12*
X533400Y787400D03*
X596900Y812800D03*
D10*
X762000Y762000D03*
D11*
X711200Y762000D03*
X812800Y762000D03*
D12*
X723900Y787400D03*
X787400Y812800D03*
D10*
X952500Y762000D03*
D11*
X901700Y762000D03*
X1003300Y762000D03*
D12*
X914400Y787400D03*
X977900Y812800D03*
D10*
X1143000Y762000D03*
D11*
X1092200Y762000D03*
X1193800Y762000D03*
D12*
X1104900Y787400D03*
X1168400Y812800D03*
D10*
X1333500Y762000D03*
D11*
X1282700Y762000D03*
X1384300Y762000D03*
D12*
X1295400Y787400D03*
X1358900Y812800D03*
D10*
X1524000Y762000D03*
D11*
X1473200Y762000D03*
X1574800Y762000D03*
D12*
X1485900Y787400D03*
X1549400Y812800D03*
D10*
X1714500Y762000D03*
D11*
X1663700Y762000D03*
X1765300Y762000D03*
D12*
X1676400Y787400D03*
X1739900Y812800D03*
D10*
X1905000Y762000D03*
D11*
X1854200Y762000D03*
X1955800Y762000D03*
D12*
X1866900Y787400D03*
X1930400Y812800D03*
D10*
X2095500Y762000D03*
D11*
X2044700Y762000D03*
X2146300Y762000D03*
D12*
X2057400Y787400D03*
X2120900Y812800D03*
D10*
X2286000Y762000D03*
D11*
X2235200Y762000D03*
X2336800Y762000D03*
D12*
X2247900Y787400D03*
X2311400Y812800D03*
D10*
X2476500Y762000D03*
D11*
X2425700Y762000D03*
X2527300Y762000D03*
D12*
X2438400Y787400D03*
X2501900Y812800D03*
D10*
X2667000Y762000D03*
D11*
X2616200Y762000D03*
X2717800Y762000D03*
D12*
X2628900Y787400D03*
X2692400Y812800D03*
D10*
X2857500Y762000D03*
D11*
X2806700Y762000D03*
X2908300Y762000D03*
D12*
X2819400Y787400D03*
X2882900Y812800D03*
D10*
X3048000Y762000D03*
D11*
X2997200Y762000D03*
X3098800Y762000D03*
D12*
X3009900Y787400D03*
X3073400Y812800D03*
D10*
X3238500Y762000D03*
D11*
X3187700Y762000D03*
X3289300Y762000D03*
D12*
X3200400Y787400D03*
X3263900Y812800D03*
D10*
X3429000Y762000D03*
D11*
X3378200Y762000D03*
X3479800Y762000D03*
D12*
X3390900Y787400D03*
X3454400Y812800D03*
D10*
X3619500Y762000D03*
D11*
X3568700Y762000D03*
X3670300Y762000D03*
D12*
X3581400Y787400D03*
X3644900Y812800D03*
D10*
X3810000Y762000D03*
D11*
X3759200Y762000D03*
X3860800Y762000D03*
D12*
X3771900Y787400D03*
X3835400Y812800D03*
D13*
X119063Y1079025D03*
X119063Y1111725D03*
X419498Y1048620D03*
X419498Y1081320D03*
X541250Y1079025D03*
X541250Y1111725D03*
X666750Y1079025D03*
X666750Y1111725D03*
X857250Y1079025D03*
X857250Y1111725D03*
X1047750Y1079025D03*
X1047750Y1111725D03*
X1238250Y1079025D03*
X1238250Y1111725D03*
X1428750Y1079025D03*
X1428750Y1111725D03*
X1619250Y1079025D03*
X1619250Y1111725D03*
X1809750Y1079025D03*
X1809750Y1111725D03*
X2000250Y1079025D03*
X2000250Y1111725D03*
X2190750Y1079025D03*
X2190750Y1111725D03*
X2381250Y1079025D03*
X2381250Y1111725D03*
X2571750Y1079025D03*
X2571750Y1111725D03*
X2762250Y1079025D03*
X2762250Y1111725D03*
X2952750Y1079025D03*
X2952750Y1111725D03*
X3143250Y1079025D03*
X3143250Y1111725D03*
X3333750Y1079025D03*
X3333750Y1111725D03*
X3524250Y1079025D03*
X3524250Y1111725D03*
X3714750Y1079025D03*
X3714750Y1111725D03*
X119063Y888525D03*
X119063Y921225D03*
X351723Y870023D03*
X351723Y902723D03*
X491250Y888525D03*
X491250Y921225D03*
X666750Y888525D03*
X666750Y921225D03*
X857250Y888525D03*
X857250Y921225D03*
X1047750Y888525D03*
X1047750Y921225D03*
X1238250Y888525D03*
X1238250Y921225D03*
X1428750Y888525D03*
X1428750Y921225D03*
X1619250Y888525D03*
X1619250Y921225D03*
X1809750Y888525D03*
X1809750Y921225D03*
X2000250Y888525D03*
X2000250Y921225D03*
X2190750Y888525D03*
X2190750Y921225D03*
X2381250Y888525D03*
X2381250Y921225D03*
X2571750Y888525D03*
X2571750Y921225D03*
X2762250Y888525D03*
X2762250Y921225D03*
X2952750Y888525D03*
X2952750Y921225D03*
X3143250Y888525D03*
X3143250Y921225D03*
X3333750Y888525D03*
X3333750Y921225D03*
X3524250Y888525D03*
X3524250Y921225D03*
X3714750Y888525D03*
X3714750Y921225D03*
X119063Y698025D03*
X119063Y730725D03*
X350750Y698025D03*
X350750Y730725D03*
X504851Y698025D03*
X504851Y730725D03*
X666750Y698025D03*
X666750Y730725D03*
X857250Y698025D03*
X857250Y730725D03*
X1047750Y698025D03*
X1047750Y730725D03*
X1238250Y698025D03*
X1238250Y730725D03*
X1428750Y698025D03*
X1428750Y730725D03*
X1619250Y698025D03*
X1619250Y730725D03*
X1809750Y698025D03*
X1809750Y730725D03*
X2000250Y698025D03*
X2000250Y730725D03*
X2190750Y698025D03*
X2190750Y730725D03*
X2381250Y698025D03*
X2381250Y730725D03*
X2571750Y698025D03*
X2571750Y730725D03*
X2762250Y698025D03*
X2762250Y730725D03*
X2952750Y698025D03*
X2952750Y730725D03*
X3143250Y698025D03*
X3143250Y730725D03*
X3333750Y698025D03*
X3333750Y730725D03*
X3524250Y698025D03*
X3524250Y730725D03*
X3714750Y698025D03*
X3714750Y730725D03*
D14*
X455000Y1213900D03*
D15*
X455000Y1188500D03*
X455000Y1163100D03*
X455000Y1137700D03*
X455000Y1112300D03*
X455000Y1086900D03*
X455000Y1061500D03*
X455000Y1036100D03*
D14*
X305000Y1213900D03*
D15*
X305000Y1188500D03*
X305000Y1163100D03*
X305000Y1137700D03*
X305000Y1112300D03*
X305000Y1086900D03*
X305000Y1061500D03*
X305000Y1036100D03*
X305000Y1009700D03*
X305000Y984300D03*
X305000Y958900D03*
X305000Y933500D03*
X305000Y908100D03*
X305000Y882700D03*
X305000Y857300D03*
X305000Y831900D03*
X305000Y806500D03*
X305000Y781100D03*
X305000Y755700D03*
X305000Y730300D03*
X455000Y1009700D03*
X455000Y984300D03*
X455000Y958900D03*
X455000Y933500D03*
X455000Y908100D03*
X455000Y882700D03*
X455000Y857300D03*
X455000Y831900D03*
X455000Y806500D03*
X455000Y781100D03*
X455000Y755700D03*
X455000Y730300D03*
D10*
X190500Y571500D03*
D11*
X139700Y571500D03*
X241300Y571500D03*
D12*
X152400Y596900D03*
X215900Y622300D03*
D10*
X381000Y571500D03*
D11*
X330200Y571500D03*
X431800Y571500D03*
D12*
X342900Y596900D03*
X406400Y622300D03*
D10*
X571500Y571500D03*
D11*
X520700Y571500D03*
X622300Y571500D03*
D12*
X533400Y596900D03*
X596900Y622300D03*
D10*
X762000Y571500D03*
D11*
X711200Y571500D03*
X812800Y571500D03*
D12*
X723900Y596900D03*
X787400Y622300D03*
D10*
X952500Y571500D03*
D11*
X901700Y571500D03*
X1003300Y571500D03*
D12*
X914400Y596900D03*
X977900Y622300D03*
D10*
X1143000Y571000D03*
D11*
X1092200Y571000D03*
X1193800Y571000D03*
D12*
X1104900Y596400D03*
X1168400Y621800D03*
D10*
X1333500Y571500D03*
D11*
X1282700Y571500D03*
X1384300Y571500D03*
D12*
X1295400Y596900D03*
X1358900Y622300D03*
D10*
X1524000Y571500D03*
D11*
X1473200Y571500D03*
X1574800Y571500D03*
D12*
X1485900Y596900D03*
X1549400Y622300D03*
D10*
X1714500Y571500D03*
D11*
X1663700Y571500D03*
X1765300Y571500D03*
D12*
X1676400Y596900D03*
X1739900Y622300D03*
D10*
X1905000Y571500D03*
D11*
X1854200Y571500D03*
X1955800Y571500D03*
D12*
X1866900Y596900D03*
X1930400Y622300D03*
D10*
X2095500Y571500D03*
D11*
X2044700Y571500D03*
X2146300Y571500D03*
D12*
X2057400Y596900D03*
X2120900Y622300D03*
D10*
X2286000Y571500D03*
D11*
X2235200Y571500D03*
X2336800Y571500D03*
D12*
X2247900Y596900D03*
X2311400Y622300D03*
D10*
X2476500Y571500D03*
D11*
X2425700Y571500D03*
X2527300Y571500D03*
D12*
X2438400Y596900D03*
X2501900Y622300D03*
D10*
X2667000Y571500D03*
D11*
X2616200Y571500D03*
X2717800Y571500D03*
D12*
X2628900Y596900D03*
X2692400Y622300D03*
D10*
X2857500Y571500D03*
D11*
X2806700Y571500D03*
X2908300Y571500D03*
D12*
X2819400Y596900D03*
X2882900Y622300D03*
D10*
X3048000Y571500D03*
D11*
X2997200Y571500D03*
X3098800Y571500D03*
D12*
X3009900Y596900D03*
X3073400Y622300D03*
D10*
X3238500Y571500D03*
D11*
X3187700Y571500D03*
X3289300Y571500D03*
D12*
X3200400Y596900D03*
X3263900Y622300D03*
D10*
X3429000Y571500D03*
D11*
X3378200Y571500D03*
X3479800Y571500D03*
D12*
X3390900Y596900D03*
X3454400Y622300D03*
D10*
X3619500Y571500D03*
D11*
X3568700Y571500D03*
X3670300Y571500D03*
D12*
X3581400Y596900D03*
X3644900Y622300D03*
D10*
X3810000Y571500D03*
D11*
X3759200Y571500D03*
X3860800Y571500D03*
D12*
X3771900Y596900D03*
X3835400Y622300D03*
D13*
X119063Y507525D03*
X119063Y540225D03*
X285750Y507525D03*
X285750Y540225D03*
X476250Y507525D03*
X476250Y540225D03*
X666750Y507525D03*
X666750Y540225D03*
X857250Y507525D03*
X857250Y540225D03*
X1047750Y507525D03*
X1047750Y540225D03*
X1238250Y507525D03*
X1238250Y540225D03*
X1428750Y507525D03*
X1428750Y540225D03*
X1619250Y507525D03*
X1619250Y540225D03*
X1809750Y507525D03*
X1809750Y540225D03*
X2000250Y507525D03*
X2000250Y540225D03*
X2190750Y507525D03*
X2190750Y540225D03*
X2381250Y507525D03*
X2381250Y540225D03*
X2571750Y507525D03*
X2571750Y540225D03*
X2762250Y507525D03*
X2762250Y540225D03*
X2952750Y507525D03*
X2952750Y540225D03*
X3143250Y507525D03*
X3143250Y540225D03*
X3333750Y507525D03*
X3333750Y540225D03*
X3524250Y507525D03*
X3524250Y540225D03*
X3714750Y507525D03*
X3714750Y540225D03*
D10*
X190500Y381000D03*
D11*
X139700Y381000D03*
X241300Y381000D03*
D12*
X152400Y406400D03*
X215900Y431800D03*
D10*
X381000Y381000D03*
D11*
X330200Y381000D03*
X431800Y381000D03*
D12*
X342900Y406400D03*
X406400Y431800D03*
D10*
X571500Y381000D03*
D11*
X520700Y381000D03*
X622300Y381000D03*
D12*
X533400Y406400D03*
X596900Y431800D03*
D10*
X762000Y381000D03*
D11*
X711200Y381000D03*
X812800Y381000D03*
D12*
X723900Y406400D03*
X787400Y431800D03*
D10*
X952500Y381000D03*
D11*
X901700Y381000D03*
X1003300Y381000D03*
D12*
X914400Y406400D03*
X977900Y431800D03*
D10*
X1143000Y381500D03*
D11*
X1092200Y381500D03*
X1193800Y381500D03*
D12*
X1104900Y406900D03*
X1168400Y432300D03*
D10*
X1333500Y381000D03*
D11*
X1282700Y381000D03*
X1384300Y381000D03*
D12*
X1295400Y406400D03*
X1358900Y431800D03*
D10*
X1524000Y381000D03*
D11*
X1473200Y381000D03*
X1574800Y381000D03*
D12*
X1485900Y406400D03*
X1549400Y431800D03*
D10*
X1714500Y381000D03*
D11*
X1663700Y381000D03*
X1765300Y381000D03*
D12*
X1676400Y406400D03*
X1739900Y431800D03*
D10*
X1905000Y381000D03*
D11*
X1854200Y381000D03*
X1955800Y381000D03*
D12*
X1866900Y406400D03*
X1930400Y431800D03*
D10*
X2095500Y381000D03*
D11*
X2044700Y381000D03*
X2146300Y381000D03*
D12*
X2057400Y406400D03*
X2120900Y431800D03*
D10*
X2286000Y381000D03*
D11*
X2235200Y381000D03*
X2336800Y381000D03*
D12*
X2247900Y406400D03*
X2311400Y431800D03*
D10*
X2476500Y381000D03*
D11*
X2425700Y381000D03*
X2527300Y381000D03*
D12*
X2438400Y406400D03*
X2501900Y431800D03*
D10*
X2667000Y381000D03*
D11*
X2616200Y381000D03*
X2717800Y381000D03*
D12*
X2628900Y406400D03*
X2692400Y431800D03*
D10*
X2857500Y381000D03*
D11*
X2806700Y381000D03*
X2908300Y381000D03*
D12*
X2819400Y406400D03*
X2882900Y431800D03*
D10*
X3048000Y381000D03*
D11*
X2997200Y381000D03*
X3098800Y381000D03*
D12*
X3009900Y406400D03*
X3073400Y431800D03*
D10*
X3238500Y381000D03*
D11*
X3187700Y381000D03*
X3289300Y381000D03*
D12*
X3200400Y406400D03*
X3263900Y431800D03*
D10*
X3429000Y381000D03*
D11*
X3378200Y381000D03*
X3479800Y381000D03*
D12*
X3390900Y406400D03*
X3454400Y431800D03*
D10*
X3619500Y381000D03*
D11*
X3568700Y381000D03*
X3670300Y381000D03*
D12*
X3581400Y406400D03*
X3644900Y431800D03*
D10*
X3810000Y381000D03*
D11*
X3759200Y381000D03*
X3860800Y381000D03*
D12*
X3771900Y406400D03*
X3835400Y431800D03*
D13*
X119063Y317025D03*
X119063Y349725D03*
X285750Y317025D03*
X285750Y349725D03*
X476250Y317025D03*
X476250Y349725D03*
X666750Y317025D03*
X666750Y349725D03*
X857250Y317025D03*
X857250Y349725D03*
X1047750Y317025D03*
X1047750Y349725D03*
X1238250Y317025D03*
X1238250Y349725D03*
X1428750Y317025D03*
X1428750Y349725D03*
X1619250Y317025D03*
X1619250Y349725D03*
X1809750Y317025D03*
X1809750Y349725D03*
X2000250Y317025D03*
X2000250Y349725D03*
X2190750Y317025D03*
X2190750Y349725D03*
X2381250Y317025D03*
X2381250Y349725D03*
X2571750Y317025D03*
X2571750Y349725D03*
X2762250Y317025D03*
X2762250Y349725D03*
X2952750Y317025D03*
X2952750Y349725D03*
X3119438Y317025D03*
X3119438Y349725D03*
X3405188Y317025D03*
X3405188Y349725D03*
X3524250Y317025D03*
X3524250Y349725D03*
X3714750Y317025D03*
X3714750Y349725D03*
D10*
X190500Y190500D03*
D11*
X139700Y190500D03*
X241300Y190500D03*
D12*
X152400Y215900D03*
X215900Y241300D03*
D10*
X381000Y190500D03*
D11*
X330200Y190500D03*
X431800Y190500D03*
D12*
X342900Y215900D03*
X406400Y241300D03*
D10*
X571500Y190500D03*
D11*
X520700Y190500D03*
X622300Y190500D03*
D12*
X533400Y215900D03*
X596900Y241300D03*
D10*
X762000Y190500D03*
D11*
X711200Y190500D03*
X812800Y190500D03*
D12*
X723900Y215900D03*
X787400Y241300D03*
D10*
X952500Y190500D03*
D11*
X901700Y190500D03*
X1003300Y190500D03*
D12*
X914400Y215900D03*
X977900Y241300D03*
D10*
X1143000Y190500D03*
D11*
X1092200Y190500D03*
X1193800Y190500D03*
D12*
X1104900Y215900D03*
X1168400Y241300D03*
D10*
X1333500Y190500D03*
D11*
X1282700Y190500D03*
X1384300Y190500D03*
D12*
X1295400Y215900D03*
X1358900Y241300D03*
D10*
X1524000Y190500D03*
D11*
X1473200Y190500D03*
X1574800Y190500D03*
D12*
X1485900Y215900D03*
X1549400Y241300D03*
D10*
X1714500Y190500D03*
D11*
X1663700Y190500D03*
X1765300Y190500D03*
D12*
X1676400Y215900D03*
X1739900Y241300D03*
D10*
X1905000Y190500D03*
D11*
X1854200Y190500D03*
X1955800Y190500D03*
D12*
X1866900Y215900D03*
X1930400Y241300D03*
D10*
X2095500Y190500D03*
D11*
X2044700Y190500D03*
X2146300Y190500D03*
D12*
X2057400Y215900D03*
X2120900Y241300D03*
D10*
X2286000Y190500D03*
D11*
X2235200Y190500D03*
X2336800Y190500D03*
D12*
X2247900Y215900D03*
X2311400Y241300D03*
D10*
X2476500Y190500D03*
D11*
X2425700Y190500D03*
X2527300Y190500D03*
D12*
X2438400Y215900D03*
X2501900Y241300D03*
D10*
X2667000Y190500D03*
D11*
X2616200Y190500D03*
X2717800Y190500D03*
D12*
X2628900Y215900D03*
X2692400Y241300D03*
D10*
X2857500Y190500D03*
D11*
X2806700Y190500D03*
X2908300Y190500D03*
D12*
X2819400Y215900D03*
X2882900Y241300D03*
D10*
X3048000Y190500D03*
D11*
X2997200Y190500D03*
X3098800Y190500D03*
D12*
X3009900Y215900D03*
X3073400Y241300D03*
D10*
X3238500Y190500D03*
D11*
X3187700Y190500D03*
X3289300Y190500D03*
D12*
X3200400Y215900D03*
X3263900Y241300D03*
D10*
X3429000Y190500D03*
D11*
X3378200Y190500D03*
X3479800Y190500D03*
D12*
X3390900Y215900D03*
X3454400Y241300D03*
D10*
X3619500Y190500D03*
D11*
X3568700Y190500D03*
X3670300Y190500D03*
D12*
X3581400Y215900D03*
X3644900Y241300D03*
D10*
X3810000Y190500D03*
D11*
X3759200Y190500D03*
X3860800Y190500D03*
D12*
X3771900Y215900D03*
X3835400Y241300D03*
D13*
X119063Y126525D03*
X119063Y159225D03*
X285750Y126525D03*
X285750Y159225D03*
X476250Y126525D03*
X476250Y159225D03*
X666750Y126525D03*
X666750Y159225D03*
X857250Y126525D03*
X857250Y159225D03*
X1062650Y127221D03*
X1062650Y159921D03*
X1031657Y127288D03*
X1031657Y159988D03*
X1500188Y126525D03*
X1500188Y159225D03*
X1635343Y127587D03*
X1635343Y160287D03*
X1604654Y127124D03*
X1604654Y159824D03*
X2071688Y126525D03*
X2071688Y159225D03*
X2190750Y126525D03*
X2190750Y159225D03*
X2381250Y126525D03*
X2381250Y159225D03*
X2571750Y126525D03*
X2571750Y159225D03*
X2762250Y126525D03*
X2762250Y159225D03*
X2952750Y126525D03*
X2952750Y159225D03*
X3143250Y126525D03*
X3143250Y159225D03*
X3333750Y126525D03*
X3333750Y159225D03*
X3524250Y126525D03*
X3524250Y159225D03*
X3714750Y126525D03*
X3714750Y159225D03*
D10*
X3238500Y476250D03*
D11*
X3238500Y425450D03*
X3238500Y527050D03*
D16*
X3168500Y357250D03*
X3168500Y595250D03*
D10*
X3320900Y357250D03*
X3320900Y595250D03*
D12*
X3213100Y438150D03*
X3187700Y501650D03*
D10*
X1428750Y190500D03*
D11*
X1479550Y190500D03*
X1377950Y190500D03*
D16*
X1547750Y120500D03*
X1309750Y120500D03*
D10*
X1547750Y272900D03*
X1309750Y272900D03*
D12*
X1466850Y165100D03*
X1403350Y139700D03*
D10*
X2000250Y190500D03*
D11*
X2051050Y190500D03*
X1949450Y190500D03*
D16*
X2119250Y120500D03*
X1881250Y120500D03*
D10*
X2119250Y272900D03*
X1881250Y272900D03*
D12*
X2038350Y165100D03*
X1974850Y139700D03*
D10*
X1238186Y189837D03*
D11*
X1288986Y189837D03*
X1187386Y189837D03*
D16*
X1357186Y119837D03*
X1119186Y119837D03*
D10*
X1357186Y272237D03*
X1119186Y272237D03*
D12*
X1276286Y164437D03*
X1212786Y139037D03*
D10*
X1810214Y190518D03*
D11*
X1861014Y190518D03*
X1759414Y190518D03*
D16*
X1929214Y120518D03*
X1691214Y120518D03*
D10*
X1929214Y272918D03*
X1691214Y272918D03*
D12*
X1848314Y165118D03*
X1784814Y139718D03*
D17*
X350000Y1040000D03*
X260000Y550000D03*
X260000Y370000D03*
X271252Y289832D03*
X370000Y840000D03*
X430000Y860000D03*
X475848Y885818D03*
X420000Y850000D03*
M02*
