G04 EAGLE Gerber RS-274X export*
G75*
%MOMM*%
%FSLAX34Y34*%
%LPD*%
%INBottom Copper*%
%IPPOS*%
%AMOC8*
5,1,8,0,0,1.08239X$1,22.5*%
G01*
%ADD10C,2.540000*%
%ADD11R,1.220000X0.910000*%
%ADD12R,2.000000X2.000000*%
%ADD13C,2.000000*%
%ADD14C,0.152400*%
%ADD15C,0.906400*%
%ADD16C,0.756400*%


D10*
X152400Y1168400D03*
X215900Y1193800D03*
X419100Y1117600D03*
X355600Y1092200D03*
X533400Y1168400D03*
X596900Y1193800D03*
X723900Y1168400D03*
X787400Y1193800D03*
X914400Y1168400D03*
X977900Y1193800D03*
X1104900Y1168400D03*
X1168400Y1193800D03*
X1295400Y1168400D03*
X1358900Y1193800D03*
X1485900Y1168400D03*
X1549400Y1193800D03*
X1676400Y1168400D03*
X1739900Y1193800D03*
X1866900Y1168400D03*
X1930400Y1193800D03*
X2057400Y1168400D03*
X2120900Y1193800D03*
X2247900Y1168400D03*
X2311400Y1193800D03*
X2438400Y1168400D03*
X2501900Y1193800D03*
X2628900Y1168400D03*
X2692400Y1193800D03*
X2819400Y1168400D03*
X2882900Y1193800D03*
X3009900Y1168400D03*
X3073400Y1193800D03*
X3200400Y1168400D03*
X3263900Y1193800D03*
X3390900Y1168400D03*
X3454400Y1193800D03*
X3581400Y1168400D03*
X3644900Y1193800D03*
X3771900Y1168400D03*
X3835400Y1193800D03*
X152400Y977900D03*
X215900Y1003300D03*
X342900Y977900D03*
X406400Y1003300D03*
X533400Y977900D03*
X596900Y1003300D03*
X723900Y977900D03*
X787400Y1003300D03*
X914400Y977900D03*
X977900Y1003300D03*
X1104900Y977900D03*
X1168400Y1003300D03*
X1295400Y977900D03*
X1358900Y1003300D03*
X1485900Y977900D03*
X1549400Y1003300D03*
X1676400Y977900D03*
X1739900Y1003300D03*
X1866900Y977900D03*
X1930400Y1003300D03*
X2057400Y977900D03*
X2120900Y1003300D03*
X2247900Y977900D03*
X2311400Y1003300D03*
X2438400Y977900D03*
X2501900Y1003300D03*
X2628900Y977900D03*
X2692400Y1003300D03*
X2819400Y977900D03*
X2882900Y1003300D03*
X3009900Y977900D03*
X3073400Y1003300D03*
X3200400Y977900D03*
X3263900Y1003300D03*
X3390900Y977900D03*
X3454400Y1003300D03*
X3581400Y977900D03*
X3644900Y1003300D03*
X3771900Y977900D03*
X3835400Y1003300D03*
X152400Y787400D03*
X215900Y812800D03*
X342900Y787400D03*
X406400Y812800D03*
X533400Y787400D03*
X596900Y812800D03*
X723900Y787400D03*
X787400Y812800D03*
X914400Y787400D03*
X977900Y812800D03*
X1104900Y787400D03*
X1168400Y812800D03*
X1295400Y787400D03*
X1358900Y812800D03*
X1485900Y787400D03*
X1549400Y812800D03*
X1676400Y787400D03*
X1739900Y812800D03*
X1866900Y787400D03*
X1930400Y812800D03*
X2057400Y787400D03*
X2120900Y812800D03*
X2247900Y787400D03*
X2311400Y812800D03*
X2438400Y787400D03*
X2501900Y812800D03*
X2628900Y787400D03*
X2692400Y812800D03*
X2819400Y787400D03*
X2882900Y812800D03*
X3009900Y787400D03*
X3073400Y812800D03*
X3200400Y787400D03*
X3263900Y812800D03*
X3390900Y787400D03*
X3454400Y812800D03*
X3581400Y787400D03*
X3644900Y812800D03*
X3771900Y787400D03*
X3835400Y812800D03*
X152400Y596900D03*
X215900Y622300D03*
X342900Y596900D03*
X406400Y622300D03*
X533400Y596900D03*
X596900Y622300D03*
X723900Y596900D03*
X787400Y622300D03*
X914400Y596900D03*
X977900Y622300D03*
X1104900Y596900D03*
X1168400Y622300D03*
X1295400Y596900D03*
X1358900Y622300D03*
X1485900Y596900D03*
X1549400Y622300D03*
X1676400Y596900D03*
X1739900Y622300D03*
X1866900Y596900D03*
X1930400Y622300D03*
X2057400Y596900D03*
X2120900Y622300D03*
X2247900Y596900D03*
X2311400Y622300D03*
X2438400Y596900D03*
X2501900Y622300D03*
X2628900Y596900D03*
X2692400Y622300D03*
X2819400Y596900D03*
X2882900Y622300D03*
X3009900Y596900D03*
X3073400Y622300D03*
X3390900Y596900D03*
X3454400Y622300D03*
X3581400Y596900D03*
X3644900Y622300D03*
X3771900Y596900D03*
X3835400Y622300D03*
X152400Y406400D03*
X215900Y431800D03*
X342900Y406400D03*
X406400Y431800D03*
X533400Y406400D03*
X596900Y431800D03*
X723900Y406400D03*
X787400Y431800D03*
X914400Y406400D03*
X977900Y431800D03*
X1104900Y406400D03*
X1168400Y431800D03*
X1295400Y406400D03*
X1358900Y431800D03*
X1485900Y406400D03*
X1549400Y431800D03*
X1676400Y406400D03*
X1739900Y431800D03*
X1866900Y406400D03*
X1930400Y431800D03*
X2057400Y406400D03*
X2120900Y431800D03*
X2247900Y406400D03*
X2311400Y431800D03*
X2438400Y406400D03*
X2501900Y431800D03*
X2628900Y406400D03*
X2692400Y431800D03*
X2819400Y406400D03*
X2882900Y431800D03*
X3009900Y406400D03*
X3073400Y431800D03*
X3390900Y406400D03*
X3454400Y431800D03*
X3581400Y406400D03*
X3644900Y431800D03*
X3771900Y406400D03*
X3835400Y431800D03*
X152400Y215900D03*
X215900Y241300D03*
X342900Y215900D03*
X406400Y241300D03*
X533400Y215900D03*
X596900Y241300D03*
X723900Y215900D03*
X787400Y241300D03*
X914400Y215900D03*
X977900Y241300D03*
X1104900Y215900D03*
X1168400Y241300D03*
X1676400Y215900D03*
X1739900Y241300D03*
X2247900Y215900D03*
X2311400Y241300D03*
X2438400Y215900D03*
X2501900Y241300D03*
X2628900Y215900D03*
X2692400Y241300D03*
X2819400Y215900D03*
X2882900Y241300D03*
X3009900Y215900D03*
X3073400Y241300D03*
X3200400Y215900D03*
X3263900Y241300D03*
X3390900Y215900D03*
X3454400Y241300D03*
X3581400Y215900D03*
X3644900Y241300D03*
X3771900Y215900D03*
X3835400Y241300D03*
X1390650Y215900D03*
X1454150Y241300D03*
X1962150Y215900D03*
X2025650Y241300D03*
X3200400Y501650D03*
X3263900Y527050D03*
D11*
X119063Y1079025D03*
X119063Y1111725D03*
X419498Y1048620D03*
X419498Y1081320D03*
X541250Y1079025D03*
X541250Y1111725D03*
X666750Y1079025D03*
X666750Y1111725D03*
X857250Y1079025D03*
X857250Y1111725D03*
X1047750Y1079025D03*
X1047750Y1111725D03*
X1238250Y1079025D03*
X1238250Y1111725D03*
X1428750Y1079025D03*
X1428750Y1111725D03*
X1619250Y1079025D03*
X1619250Y1111725D03*
X1809750Y1079025D03*
X1809750Y1111725D03*
X2000250Y1079025D03*
X2000250Y1111725D03*
X2190750Y1079025D03*
X2190750Y1111725D03*
X2381250Y1079025D03*
X2381250Y1111725D03*
X2571750Y1079025D03*
X2571750Y1111725D03*
X2762250Y1079025D03*
X2762250Y1111725D03*
X2952750Y1079025D03*
X2952750Y1111725D03*
X3143250Y1079025D03*
X3143250Y1111725D03*
X3333750Y1079025D03*
X3333750Y1111725D03*
X3524250Y1079025D03*
X3524250Y1111725D03*
X3714750Y1079025D03*
X3714750Y1111725D03*
X119063Y888525D03*
X119063Y921225D03*
X351723Y870023D03*
X351723Y902723D03*
X491250Y888525D03*
X491250Y921225D03*
X666750Y888525D03*
X666750Y921225D03*
X857250Y888525D03*
X857250Y921225D03*
X1047750Y888525D03*
X1047750Y921225D03*
X1238250Y888525D03*
X1238250Y921225D03*
X1428750Y888525D03*
X1428750Y921225D03*
X1619250Y888525D03*
X1619250Y921225D03*
X1809750Y888525D03*
X1809750Y921225D03*
X2000250Y888525D03*
X2000250Y921225D03*
X2190750Y888525D03*
X2190750Y921225D03*
X2381250Y888525D03*
X2381250Y921225D03*
X2571750Y888525D03*
X2571750Y921225D03*
X2762250Y888525D03*
X2762250Y921225D03*
X2952750Y888525D03*
X2952750Y921225D03*
X3143250Y888525D03*
X3143250Y921225D03*
X3333750Y888525D03*
X3333750Y921225D03*
X3524250Y888525D03*
X3524250Y921225D03*
X3714750Y888525D03*
X3714750Y921225D03*
X119063Y698025D03*
X119063Y730725D03*
X350750Y698025D03*
X350750Y730725D03*
X504851Y698025D03*
X504851Y730725D03*
X666750Y698025D03*
X666750Y730725D03*
X857250Y698025D03*
X857250Y730725D03*
X1047750Y698025D03*
X1047750Y730725D03*
X1238250Y698025D03*
X1238250Y730725D03*
X1428750Y698025D03*
X1428750Y730725D03*
X1619250Y698025D03*
X1619250Y730725D03*
X1809750Y698025D03*
X1809750Y730725D03*
X2000250Y698025D03*
X2000250Y730725D03*
X2190750Y698025D03*
X2190750Y730725D03*
X2381250Y698025D03*
X2381250Y730725D03*
X2571750Y698025D03*
X2571750Y730725D03*
X2762250Y698025D03*
X2762250Y730725D03*
X2952750Y698025D03*
X2952750Y730725D03*
X3143250Y698025D03*
X3143250Y730725D03*
X3333750Y698025D03*
X3333750Y730725D03*
X3524250Y698025D03*
X3524250Y730725D03*
X3714750Y698025D03*
X3714750Y730725D03*
X119063Y507525D03*
X119063Y540225D03*
X350750Y507525D03*
X350750Y540225D03*
X476250Y507525D03*
X476250Y540225D03*
X666750Y507525D03*
X666750Y540225D03*
X857250Y507525D03*
X857250Y540225D03*
X1047750Y507525D03*
X1047750Y540225D03*
X1238250Y507525D03*
X1238250Y540225D03*
X1428750Y507525D03*
X1428750Y540225D03*
X1619250Y507525D03*
X1619250Y540225D03*
X1809750Y507525D03*
X1809750Y540225D03*
X2000250Y507525D03*
X2000250Y540225D03*
X2190750Y507525D03*
X2190750Y540225D03*
X2381250Y507525D03*
X2381250Y540225D03*
X2571750Y507525D03*
X2571750Y540225D03*
X2762250Y507525D03*
X2762250Y540225D03*
X2952750Y507525D03*
X2952750Y540225D03*
X3333750Y483713D03*
X3333750Y516413D03*
X3524250Y507525D03*
X3524250Y540225D03*
X3714750Y507525D03*
X3714750Y540225D03*
X119063Y317025D03*
X119063Y349725D03*
X350750Y317025D03*
X350750Y349725D03*
X476250Y317025D03*
X476250Y349725D03*
X666750Y317025D03*
X666750Y349725D03*
X857250Y317025D03*
X857250Y349725D03*
X1047750Y317025D03*
X1047750Y349725D03*
X1238250Y317025D03*
X1238250Y349725D03*
X1428750Y317025D03*
X1428750Y349725D03*
X1619250Y317025D03*
X1619250Y349725D03*
X1809750Y317025D03*
X1809750Y349725D03*
X2000250Y317025D03*
X2000250Y349725D03*
X2190750Y317025D03*
X2190750Y349725D03*
X2381250Y317025D03*
X2381250Y349725D03*
X2571750Y317025D03*
X2571750Y349725D03*
X2762250Y317025D03*
X2762250Y349725D03*
X2952750Y317025D03*
X2952750Y349725D03*
X3143250Y436088D03*
X3143250Y468788D03*
X3357563Y317025D03*
X3357563Y349725D03*
X3524250Y317025D03*
X3524250Y349725D03*
X3714750Y317025D03*
X3714750Y349725D03*
X119063Y254475D03*
X119063Y221775D03*
X285750Y150338D03*
X285750Y183038D03*
X476250Y150338D03*
X476250Y183038D03*
X666750Y150338D03*
X666750Y183038D03*
X857250Y150338D03*
X857250Y183038D03*
X1047750Y150338D03*
X1047750Y183038D03*
X1238250Y150338D03*
X1238250Y183038D03*
X1619250Y150338D03*
X1619250Y183038D03*
X1809750Y150338D03*
X1809750Y183038D03*
X2190750Y150338D03*
X2190750Y183038D03*
X2381250Y150338D03*
X2381250Y183038D03*
X2571750Y150338D03*
X2571750Y183038D03*
X2762250Y150338D03*
X2762250Y183038D03*
X2952750Y150338D03*
X2952750Y183038D03*
X3143250Y150338D03*
X3143250Y183038D03*
X3333750Y150338D03*
X3333750Y183038D03*
X3524250Y150338D03*
X3524250Y183038D03*
X3714750Y150338D03*
X3714750Y183038D03*
D12*
X455000Y1213900D03*
D13*
X455000Y1188500D03*
X455000Y1163100D03*
X455000Y1137700D03*
X455000Y1112300D03*
X455000Y1086900D03*
X455000Y1061500D03*
X455000Y1036100D03*
D12*
X305000Y1213900D03*
D13*
X305000Y1188500D03*
X305000Y1163100D03*
X305000Y1137700D03*
X305000Y1112300D03*
X305000Y1086900D03*
X305000Y1061500D03*
X305000Y1036100D03*
X305000Y1009700D03*
X305000Y984300D03*
X305000Y958900D03*
X305000Y933500D03*
X305000Y908100D03*
X305000Y882700D03*
X305000Y857300D03*
X305000Y831900D03*
X305000Y806500D03*
X305000Y781100D03*
X305000Y755700D03*
X305000Y730300D03*
X455000Y1009700D03*
X455000Y984300D03*
X455000Y958900D03*
X455000Y933500D03*
X455000Y908100D03*
X455000Y882700D03*
X455000Y857300D03*
X455000Y831900D03*
X455000Y806500D03*
X455000Y781100D03*
X455000Y755700D03*
X455000Y730300D03*
D14*
X119063Y1130000D02*
X119063Y1130375D01*
X119063Y1130000D02*
X119063Y1111725D01*
X141342Y1157342D02*
X152400Y1168400D01*
X141342Y1157342D02*
X133759Y1157342D01*
X119063Y1142645D01*
X119063Y1130375D01*
X419498Y1117202D02*
X419498Y1081320D01*
X419498Y1117202D02*
X419100Y1117600D01*
X533400Y1168400D02*
X541250Y1160550D01*
X541250Y1111725D01*
X666750Y1130000D02*
X666750Y1130375D01*
X666750Y1130000D02*
X666750Y1111725D01*
X705150Y1168400D02*
X723900Y1168400D01*
X705150Y1168400D02*
X666750Y1130000D01*
X857250Y1130375D02*
X857250Y1130000D01*
X857250Y1111725D01*
X895650Y1168400D02*
X914400Y1168400D01*
X895650Y1168400D02*
X857250Y1130000D01*
X1047750Y1130375D02*
X1047750Y1130000D01*
X1047750Y1111725D01*
X1086150Y1168400D02*
X1104900Y1168400D01*
X1086150Y1168400D02*
X1047750Y1130000D01*
X1238250Y1130375D02*
X1238250Y1111725D01*
X1276275Y1168400D02*
X1295400Y1168400D01*
X1276275Y1168400D02*
X1238250Y1130375D01*
X1428750Y1130375D02*
X1428750Y1130000D01*
X1428750Y1111725D01*
X1467150Y1168400D02*
X1485900Y1168400D01*
X1467150Y1168400D02*
X1428750Y1130000D01*
X1619250Y1130375D02*
X1619250Y1130000D01*
X1619250Y1111725D01*
X1657650Y1168400D02*
X1676400Y1168400D01*
X1657650Y1168400D02*
X1619250Y1130000D01*
X1809750Y1130375D02*
X1809750Y1130000D01*
X1809750Y1111725D01*
X1848150Y1168400D02*
X1866900Y1168400D01*
X1848150Y1168400D02*
X1809750Y1130000D01*
X2000250Y1130375D02*
X2000250Y1130000D01*
X2000250Y1111725D01*
X2038650Y1168400D02*
X2057400Y1168400D01*
X2038650Y1168400D02*
X2000250Y1130000D01*
X2190750Y1130375D02*
X2190750Y1130000D01*
X2190750Y1111725D01*
X2229150Y1168400D02*
X2247900Y1168400D01*
X2229150Y1168400D02*
X2190750Y1130000D01*
X2381250Y1130375D02*
X2381250Y1130000D01*
X2381250Y1111725D01*
X2419650Y1168400D02*
X2438400Y1168400D01*
X2419650Y1168400D02*
X2381250Y1130000D01*
X2571750Y1130375D02*
X2571750Y1111725D01*
X2609775Y1168400D02*
X2628900Y1168400D01*
X2609775Y1168400D02*
X2571750Y1130375D01*
X2762250Y1130375D02*
X2762250Y1130000D01*
X2762250Y1111725D01*
X2800650Y1168400D02*
X2819400Y1168400D01*
X2800650Y1168400D02*
X2762250Y1130000D01*
X2952750Y1130375D02*
X2952750Y1130000D01*
X2952750Y1111725D01*
X2991150Y1168400D02*
X3009900Y1168400D01*
X2991150Y1168400D02*
X2952750Y1130000D01*
X3143250Y1130375D02*
X3143250Y1111725D01*
X3181275Y1168400D02*
X3200400Y1168400D01*
X3181275Y1168400D02*
X3143250Y1130375D01*
X3333750Y1130375D02*
X3333750Y1130000D01*
X3333750Y1111725D01*
X3372150Y1168400D02*
X3390900Y1168400D01*
X3372150Y1168400D02*
X3333750Y1130000D01*
X3524250Y1130375D02*
X3524250Y1130000D01*
X3524250Y1111725D01*
X3562650Y1168400D02*
X3581400Y1168400D01*
X3562650Y1168400D02*
X3524250Y1130000D01*
X3714750Y1130375D02*
X3714750Y1111725D01*
X3752775Y1168400D02*
X3771900Y1168400D01*
X3752775Y1168400D02*
X3714750Y1130375D01*
X119063Y939875D02*
X119063Y921225D01*
X141342Y966842D02*
X152400Y977900D01*
X141342Y966842D02*
X133759Y966842D01*
X119063Y952145D01*
X119063Y939875D01*
X342900Y977900D02*
X351723Y969077D01*
X351723Y902723D01*
X491250Y921225D02*
X491250Y954875D01*
X514275Y977900D02*
X533400Y977900D01*
X514275Y977900D02*
X491250Y954875D01*
X666750Y939875D02*
X666750Y921225D01*
X704775Y977900D02*
X723900Y977900D01*
X704775Y977900D02*
X666750Y939875D01*
X857250Y939875D02*
X857250Y921225D01*
X895275Y977900D02*
X914400Y977900D01*
X895275Y977900D02*
X857250Y939875D01*
X1047750Y939875D02*
X1047750Y921225D01*
X1085775Y977900D02*
X1104900Y977900D01*
X1085775Y977900D02*
X1047750Y939875D01*
X1238250Y939875D02*
X1238250Y921225D01*
X1276275Y977900D02*
X1295400Y977900D01*
X1276275Y977900D02*
X1238250Y939875D01*
X1428750Y939875D02*
X1428750Y921225D01*
X1466775Y977900D02*
X1485900Y977900D01*
X1466775Y977900D02*
X1428750Y939875D01*
X1619250Y939875D02*
X1619250Y921225D01*
X1657275Y977900D02*
X1676400Y977900D01*
X1657275Y977900D02*
X1619250Y939875D01*
X1809750Y939875D02*
X1809750Y921225D01*
X1847775Y977900D02*
X1866900Y977900D01*
X1847775Y977900D02*
X1809750Y939875D01*
X2000250Y939875D02*
X2000250Y921225D01*
X2038275Y977900D02*
X2057400Y977900D01*
X2038275Y977900D02*
X2000250Y939875D01*
X2190750Y939875D02*
X2190750Y921225D01*
X2228775Y977900D02*
X2247900Y977900D01*
X2228775Y977900D02*
X2190750Y939875D01*
X2381250Y939875D02*
X2381250Y921225D01*
X2419275Y977900D02*
X2438400Y977900D01*
X2419275Y977900D02*
X2381250Y939875D01*
X2571750Y939875D02*
X2571750Y921225D01*
X2609775Y977900D02*
X2628900Y977900D01*
X2609775Y977900D02*
X2571750Y939875D01*
X2762250Y939875D02*
X2762250Y921225D01*
X2800275Y977900D02*
X2819400Y977900D01*
X2800275Y977900D02*
X2762250Y939875D01*
X2952750Y939875D02*
X2952750Y921225D01*
X2990775Y977900D02*
X3009900Y977900D01*
X2990775Y977900D02*
X2952750Y939875D01*
X3181275Y977900D02*
X3200400Y977900D01*
X3181275Y977900D02*
X3144188Y940813D01*
X3143250Y939875D01*
X3144188Y922323D02*
X3143250Y921225D01*
X3144188Y922323D02*
X3144188Y940813D01*
X3333750Y939875D02*
X3333750Y921225D01*
X3371775Y977900D02*
X3390900Y977900D01*
X3371775Y977900D02*
X3333750Y939875D01*
X3524250Y939875D02*
X3524250Y921225D01*
X3562275Y977900D02*
X3581400Y977900D01*
X3562275Y977900D02*
X3524250Y939875D01*
X3714750Y939875D02*
X3714750Y921225D01*
X3752775Y977900D02*
X3771900Y977900D01*
X3752775Y977900D02*
X3714750Y939875D01*
X119063Y749375D02*
X119063Y730725D01*
X141342Y776342D02*
X152400Y787400D01*
X141342Y776342D02*
X133759Y776342D01*
X119063Y761645D01*
X119063Y749375D01*
X342900Y787400D02*
X350750Y779550D01*
X350750Y730725D01*
X504851Y730725D02*
X504851Y777976D01*
X514275Y787400D02*
X533400Y787400D01*
X514275Y787400D02*
X504851Y777976D01*
X666750Y749375D02*
X666750Y730725D01*
X704775Y787400D02*
X723900Y787400D01*
X704775Y787400D02*
X666750Y749375D01*
X857250Y749375D02*
X857250Y730725D01*
X895275Y787400D02*
X914400Y787400D01*
X895275Y787400D02*
X857250Y749375D01*
X1047750Y749375D02*
X1047750Y730725D01*
X1085775Y787400D02*
X1104900Y787400D01*
X1085775Y787400D02*
X1047750Y749375D01*
X1238250Y749375D02*
X1238250Y730725D01*
X1276275Y787400D02*
X1295400Y787400D01*
X1276275Y787400D02*
X1238250Y749375D01*
X1428750Y749375D02*
X1428750Y730725D01*
X1466775Y787400D02*
X1485900Y787400D01*
X1466775Y787400D02*
X1428750Y749375D01*
X1619250Y749375D02*
X1619250Y730725D01*
X1657275Y787400D02*
X1676400Y787400D01*
X1657275Y787400D02*
X1619250Y749375D01*
X1809750Y749375D02*
X1809750Y730725D01*
X1847775Y787400D02*
X1866900Y787400D01*
X1847775Y787400D02*
X1809750Y749375D01*
X2000250Y749375D02*
X2000250Y730725D01*
X2038275Y787400D02*
X2057400Y787400D01*
X2038275Y787400D02*
X2000250Y749375D01*
X2190750Y749375D02*
X2190750Y730725D01*
X2228775Y787400D02*
X2247900Y787400D01*
X2228775Y787400D02*
X2190750Y749375D01*
X2381250Y749375D02*
X2381250Y730725D01*
X2419275Y787400D02*
X2438400Y787400D01*
X2419275Y787400D02*
X2381250Y749375D01*
X2571750Y749375D02*
X2571750Y730725D01*
X2609775Y787400D02*
X2628900Y787400D01*
X2609775Y787400D02*
X2571750Y749375D01*
X2762250Y749375D02*
X2762250Y730725D01*
X2800275Y787400D02*
X2819400Y787400D01*
X2800275Y787400D02*
X2762250Y749375D01*
X2952750Y749375D02*
X2952750Y730725D01*
X2990775Y787400D02*
X3009900Y787400D01*
X2990775Y787400D02*
X2952750Y749375D01*
X3143250Y749375D02*
X3143250Y730725D01*
X3181275Y787400D02*
X3200400Y787400D01*
X3181275Y787400D02*
X3143250Y749375D01*
X3333750Y749375D02*
X3333750Y730725D01*
X3371775Y787400D02*
X3390900Y787400D01*
X3371775Y787400D02*
X3333750Y749375D01*
X3524250Y749375D02*
X3524250Y730725D01*
X3562275Y787400D02*
X3581400Y787400D01*
X3562275Y787400D02*
X3524250Y749375D01*
X3714750Y749375D02*
X3714750Y730725D01*
X3752775Y787400D02*
X3771900Y787400D01*
X3752775Y787400D02*
X3714750Y749375D01*
X119063Y558875D02*
X119063Y540225D01*
X141342Y585842D02*
X152400Y596900D01*
X141342Y585842D02*
X133759Y585842D01*
X119063Y571145D01*
X119063Y558875D01*
X342900Y596900D02*
X350750Y589050D01*
X350750Y540225D01*
X476250Y540225D02*
X476250Y558875D01*
X514275Y596900D02*
X533400Y596900D01*
X514275Y596900D02*
X476250Y558875D01*
X666750Y558875D02*
X666750Y540225D01*
X704775Y596900D02*
X723900Y596900D01*
X704775Y596900D02*
X666750Y558875D01*
X857250Y558875D02*
X857250Y540225D01*
X895275Y596900D02*
X914400Y596900D01*
X895275Y596900D02*
X857250Y558875D01*
X1047750Y558875D02*
X1047750Y540225D01*
X1085775Y596900D02*
X1104900Y596900D01*
X1085775Y596900D02*
X1047750Y558875D01*
X1238250Y558875D02*
X1238250Y540225D01*
X1276275Y596900D02*
X1295400Y596900D01*
X1276275Y596900D02*
X1238250Y558875D01*
X1428750Y558875D02*
X1428750Y540225D01*
X1466775Y596900D02*
X1485900Y596900D01*
X1466775Y596900D02*
X1428750Y558875D01*
X1619250Y558875D02*
X1619250Y540225D01*
X1657275Y596900D02*
X1676400Y596900D01*
X1657275Y596900D02*
X1619250Y558875D01*
X1809750Y558875D02*
X1809750Y540225D01*
X1847775Y596900D02*
X1866900Y596900D01*
X1847775Y596900D02*
X1809750Y558875D01*
X2000250Y558875D02*
X2000250Y540225D01*
X2038275Y596900D02*
X2057400Y596900D01*
X2038275Y596900D02*
X2000250Y558875D01*
X2190750Y558875D02*
X2190750Y540225D01*
X2228775Y596900D02*
X2247900Y596900D01*
X2228775Y596900D02*
X2190750Y558875D01*
X2381250Y558875D02*
X2381250Y540225D01*
X2419275Y596900D02*
X2438400Y596900D01*
X2419275Y596900D02*
X2381250Y558875D01*
X2571750Y558875D02*
X2571750Y540225D01*
X2609775Y596900D02*
X2628900Y596900D01*
X2609775Y596900D02*
X2571750Y558875D01*
X2762250Y558875D02*
X2762250Y540225D01*
X2800275Y596900D02*
X2819400Y596900D01*
X2800275Y596900D02*
X2762250Y558875D01*
X2952750Y558875D02*
X2952750Y540225D01*
X2990775Y596900D02*
X3009900Y596900D01*
X2990775Y596900D02*
X2952750Y558875D01*
X3333750Y535063D02*
X3333750Y530000D01*
X3333750Y516413D01*
X3381900Y596900D02*
X3390900Y596900D01*
X3333750Y548750D02*
X3333750Y535063D01*
X3333750Y548750D02*
X3381900Y596900D01*
X3524250Y558875D02*
X3524250Y540225D01*
X3562275Y596900D02*
X3581400Y596900D01*
X3562275Y596900D02*
X3524250Y558875D01*
X3714750Y558875D02*
X3714750Y540225D01*
X3752775Y596900D02*
X3771900Y596900D01*
X3752775Y596900D02*
X3714750Y558875D01*
X119063Y380645D02*
X119063Y349725D01*
X141342Y395342D02*
X152400Y406400D01*
X141342Y395342D02*
X133759Y395342D01*
X119063Y380645D01*
X342900Y406400D02*
X350750Y398550D01*
X350750Y349725D01*
X476250Y349725D02*
X476250Y368375D01*
X514275Y406400D02*
X533400Y406400D01*
X514275Y406400D02*
X476250Y368375D01*
X666750Y368375D02*
X666750Y349725D01*
X704775Y406400D02*
X723900Y406400D01*
X704775Y406400D02*
X666750Y368375D01*
X857250Y368375D02*
X857250Y349725D01*
X895275Y406400D02*
X914400Y406400D01*
X895275Y406400D02*
X857250Y368375D01*
X1047750Y368375D02*
X1047750Y349725D01*
X1085775Y406400D02*
X1104900Y406400D01*
X1085775Y406400D02*
X1047750Y368375D01*
X1238250Y368375D02*
X1238250Y349725D01*
X1276275Y406400D02*
X1295400Y406400D01*
X1276275Y406400D02*
X1238250Y368375D01*
X1428750Y368375D02*
X1428750Y349725D01*
X1466775Y406400D02*
X1485900Y406400D01*
X1466775Y406400D02*
X1428750Y368375D01*
X1619250Y368375D02*
X1619250Y349725D01*
X1657275Y406400D02*
X1676400Y406400D01*
X1657275Y406400D02*
X1619250Y368375D01*
X1809750Y368375D02*
X1809750Y349725D01*
X1847775Y406400D02*
X1866900Y406400D01*
X1847775Y406400D02*
X1809750Y368375D01*
X2000250Y368375D02*
X2000250Y349725D01*
X2038275Y406400D02*
X2057400Y406400D01*
X2038275Y406400D02*
X2000250Y368375D01*
X2190750Y368375D02*
X2190750Y349725D01*
X2228775Y406400D02*
X2247900Y406400D01*
X2228775Y406400D02*
X2190750Y368375D01*
X2381250Y368375D02*
X2381250Y349725D01*
X2419275Y406400D02*
X2438400Y406400D01*
X2419275Y406400D02*
X2381250Y368375D01*
X2571750Y368375D02*
X2571750Y349725D01*
X2609775Y406400D02*
X2628900Y406400D01*
X2609775Y406400D02*
X2571750Y368375D01*
X2762250Y368375D02*
X2762250Y349725D01*
X2800275Y406400D02*
X2819400Y406400D01*
X2800275Y406400D02*
X2762250Y368375D01*
X2952750Y368375D02*
X2952750Y349725D01*
X2990775Y406400D02*
X3009900Y406400D01*
X2990775Y406400D02*
X2952750Y368375D01*
X3143250Y468788D02*
X3143250Y487438D01*
X3157463Y501650D02*
X3200400Y501650D01*
X3157463Y501650D02*
X3143250Y487438D01*
X3357563Y368375D02*
X3357563Y349725D01*
X3379842Y395342D02*
X3390900Y406400D01*
X3379842Y395342D02*
X3372259Y395342D01*
X3357563Y380645D01*
X3357563Y368375D01*
X3524250Y368375D02*
X3524250Y349725D01*
X3562275Y406400D02*
X3581400Y406400D01*
X3562275Y406400D02*
X3524250Y368375D01*
X3714750Y368375D02*
X3714750Y349725D01*
X3752775Y406400D02*
X3771900Y406400D01*
X3752775Y406400D02*
X3714750Y368375D01*
X119063Y221775D02*
X119063Y203125D01*
X131838Y215900D02*
X152400Y215900D01*
X131838Y215900D02*
X119063Y203125D01*
X285750Y201688D02*
X285750Y183038D01*
X299963Y215900D02*
X342900Y215900D01*
X299963Y215900D02*
X285750Y201688D01*
X476250Y201688D02*
X476250Y183038D01*
X490463Y215900D02*
X533400Y215900D01*
X490463Y215900D02*
X476250Y201688D01*
X666750Y201688D02*
X666750Y183038D01*
X680963Y215900D02*
X723900Y215900D01*
X680963Y215900D02*
X666750Y201688D01*
X857250Y201688D02*
X857250Y183038D01*
X871463Y215900D02*
X914400Y215900D01*
X871463Y215900D02*
X857250Y201688D01*
X1047750Y201688D02*
X1047750Y183038D01*
X1061963Y215900D02*
X1104900Y215900D01*
X1061963Y215900D02*
X1047750Y201688D01*
X1238250Y201688D02*
X1238250Y183038D01*
X1252463Y215900D02*
X1390650Y215900D01*
X1252463Y215900D02*
X1238250Y201688D01*
X1619250Y201688D02*
X1619250Y183038D01*
X1633463Y215900D02*
X1676400Y215900D01*
X1633463Y215900D02*
X1619250Y201688D01*
X1809750Y201688D02*
X1809750Y183038D01*
X1823963Y215900D02*
X1962150Y215900D01*
X1823963Y215900D02*
X1809750Y201688D01*
X2190750Y201688D02*
X2190750Y183038D01*
X2204963Y215900D02*
X2247900Y215900D01*
X2204963Y215900D02*
X2190750Y201688D01*
X2381250Y201688D02*
X2381250Y183038D01*
X2395463Y215900D02*
X2438400Y215900D01*
X2395463Y215900D02*
X2381250Y201688D01*
X2571750Y201688D02*
X2571750Y183038D01*
X2585963Y215900D02*
X2628900Y215900D01*
X2585963Y215900D02*
X2571750Y201688D01*
X2762250Y201688D02*
X2762250Y183038D01*
X2776463Y215900D02*
X2819400Y215900D01*
X2776463Y215900D02*
X2762250Y201688D01*
X2952750Y201688D02*
X2952750Y183038D01*
X2966963Y215900D02*
X3009900Y215900D01*
X2966963Y215900D02*
X2952750Y201688D01*
X3143250Y201688D02*
X3143250Y183038D01*
X3157463Y215900D02*
X3200400Y215900D01*
X3157463Y215900D02*
X3143250Y201688D01*
X3333750Y201688D02*
X3333750Y183038D01*
X3347963Y215900D02*
X3390900Y215900D01*
X3347963Y215900D02*
X3333750Y201688D01*
X3524250Y201688D02*
X3524250Y183038D01*
X3538463Y215900D02*
X3581400Y215900D01*
X3538463Y215900D02*
X3524250Y201688D01*
X3714750Y201688D02*
X3714750Y183038D01*
X3728963Y215900D02*
X3771900Y215900D01*
X3728963Y215900D02*
X3714750Y201688D01*
X541250Y1079025D02*
X501250Y1079025D01*
X470845Y1048620D01*
X419498Y1048620D01*
X541250Y1079025D02*
X666750Y1079025D01*
X857250Y1079025D01*
X1047750Y1079025D01*
X1238250Y1079025D01*
X1428750Y1079025D01*
X1619250Y1079025D01*
X1809750Y1079025D01*
X2000250Y1079025D01*
X2190750Y1079025D01*
X2381250Y1079025D01*
X2571750Y1079025D01*
X2762250Y1079025D01*
X2952750Y1079025D01*
X3143250Y1079025D01*
X3333750Y1079025D01*
X3524250Y1079025D01*
X3528059Y1075217D01*
X3710942Y1075217D01*
X3714750Y1079025D01*
X165000Y1154046D02*
X164658Y1153704D01*
X165000Y1154046D02*
X165000Y1155000D01*
X180000Y1170000D01*
X286500Y1170000D01*
X305000Y1188500D01*
X149063Y1049025D02*
X119063Y1079025D01*
X149063Y1049025D02*
X165000Y1049025D01*
X165405Y1048620D02*
X419498Y1048620D01*
X164658Y1049367D02*
X164658Y1153704D01*
X164658Y1049367D02*
X165000Y1049025D01*
X165405Y1048620D01*
X3524250Y888525D02*
X3714750Y888525D01*
X3524250Y888525D02*
X3333750Y888525D01*
X3143250Y888525D01*
X2952750Y888525D01*
X2762250Y888525D01*
X2571750Y888525D01*
X2381250Y888525D01*
X2190750Y888525D01*
X2000250Y888525D01*
X1809750Y888525D01*
X1619250Y888525D01*
X1428750Y888525D01*
X1238250Y888525D01*
X1047750Y888525D01*
X857250Y888525D01*
X666750Y888525D01*
X491250Y888525D01*
X351723Y870023D02*
X165000Y870023D01*
X165000Y888525D02*
X119063Y888525D01*
X165000Y888525D02*
X165000Y870023D01*
X165000Y888525D02*
X165000Y941454D01*
X164658Y941796D01*
X164658Y964658D01*
X169715Y969715D01*
X169715Y1040051D01*
D15*
X169715Y1040051D03*
D14*
X351723Y870023D02*
X419977Y870023D01*
X420000Y870000D01*
X420023Y870023D02*
X351723Y870023D01*
X420023Y870023D02*
X445000Y895000D01*
X484775Y895000D01*
X491250Y888525D01*
X3524250Y507525D02*
X3714750Y507525D01*
X3524250Y507525D02*
X3357563Y507525D01*
X3333750Y483713D01*
X3309938Y507525D01*
X3206607Y516636D02*
X3194193Y516636D01*
X3215718Y507525D02*
X3309938Y507525D01*
X3185082Y507525D02*
X2952750Y507525D01*
X3206607Y516636D02*
X3215718Y507525D01*
X3194193Y516636D02*
X3185082Y507525D01*
X2952750Y507525D02*
X2762250Y507525D01*
X2571750Y507525D01*
X2381250Y507525D01*
X2190750Y507525D01*
X2000250Y507525D01*
X1809750Y507525D01*
X1619250Y507525D01*
X1428750Y507525D01*
X1238250Y507525D01*
X1047750Y507525D01*
X857250Y507525D01*
X666750Y507525D01*
X476250Y507525D01*
X350750Y507525D01*
X255803Y507525D01*
X255000Y507525D02*
X119063Y507525D01*
X255803Y688610D02*
X255990Y688797D01*
X255803Y688610D02*
X255803Y507525D01*
D15*
X255990Y688797D03*
D14*
X265000Y317025D02*
X119063Y317025D01*
X265000Y317025D02*
X350750Y317025D01*
X476250Y317025D01*
X666750Y317025D01*
X857250Y317025D01*
X1047750Y317025D01*
X1238250Y317025D01*
X1428750Y317025D01*
X1619250Y317025D01*
X1809750Y317025D01*
X2000250Y317025D01*
X2190750Y317025D01*
X2381250Y317025D01*
X2571750Y317025D01*
X2762250Y317025D01*
X2952750Y317025D01*
X3084458Y386941D02*
X3092859Y395342D01*
X3102505Y395342D01*
X3143250Y436088D01*
X3020571Y317025D02*
X2952750Y317025D01*
X3020571Y317025D02*
X3084458Y380912D01*
X3084458Y386941D01*
X3143250Y436088D02*
X3262313Y317025D01*
X3357563Y317025D01*
X3524250Y317025D01*
X3714750Y317025D01*
X265000Y317025D02*
X265000Y500000D01*
D15*
X265000Y500000D03*
D14*
X3524250Y150338D02*
X3714750Y150338D01*
X3524250Y150338D02*
X3333750Y150338D01*
X3143250Y150338D01*
X2952750Y150338D01*
X2762250Y150338D01*
X2571750Y150338D01*
X2381250Y150338D01*
X2190750Y150338D01*
X1809750Y150338D01*
X1619250Y150338D01*
X1238250Y150338D01*
X1047750Y150338D01*
X857250Y150338D01*
X666750Y150338D01*
X476250Y150338D01*
X285750Y150338D01*
X167386Y209693D02*
X167386Y222107D01*
X158607Y230886D01*
X142652Y230886D02*
X119063Y254475D01*
X142652Y230886D02*
X158607Y230886D01*
X270000Y150338D02*
X285750Y150338D01*
X270000Y150338D02*
X194116Y150338D01*
X164658Y179796D01*
X164658Y206965D01*
X167386Y209693D01*
X270000Y150338D02*
X270000Y310000D01*
D15*
X270000Y310000D03*
D14*
X225000Y698025D02*
X119063Y698025D01*
X225000Y698025D02*
X350750Y698025D01*
X504851Y698025D01*
X666750Y698025D01*
X857250Y698025D01*
X1047750Y698025D01*
X1238250Y698025D01*
X1428750Y698025D01*
X1619250Y698025D01*
X1809750Y698025D01*
X2000250Y698025D01*
X2190750Y698025D01*
X2381250Y698025D01*
X2571750Y698025D01*
X2762250Y698025D01*
X2952750Y698025D01*
X3143250Y698025D01*
X3333750Y698025D01*
X3524250Y698025D01*
X3714750Y698025D01*
X225000Y698025D02*
X225000Y790000D01*
X234765Y799765D01*
X234765Y860093D01*
D15*
X234765Y860093D03*
D14*
X215900Y1003300D02*
X220000Y1007400D01*
X220000Y1040000D01*
X225000Y1045000D01*
X296100Y1045000D01*
X305000Y1036100D01*
X2094200Y1030000D02*
X2120900Y1003300D01*
X459300Y984300D02*
X455000Y984300D01*
X505000Y1030000D02*
X2094200Y1030000D01*
X505000Y1030000D02*
X459300Y984300D01*
X2142093Y1003300D02*
X2311400Y1003300D01*
X2142093Y1003300D02*
X2127107Y988314D01*
X2106686Y988314D01*
X2070000Y1025000D01*
X525000Y1025000D01*
X480000Y980000D01*
X480000Y933100D01*
X455000Y908100D01*
X2464700Y850000D02*
X2501900Y812800D01*
X570183Y850000D02*
X455000Y734817D01*
X455000Y730300D01*
X570183Y850000D02*
X2464700Y850000D01*
X457419Y755700D02*
X455000Y755700D01*
X457419Y755700D02*
X556719Y855000D01*
X2650200Y855000D02*
X2692400Y812800D01*
X2650200Y855000D02*
X556719Y855000D01*
X2835700Y860000D02*
X2882900Y812800D01*
X533900Y860000D02*
X455000Y781100D01*
X533900Y860000D02*
X2835700Y860000D01*
X513500Y865000D02*
X455000Y806500D01*
X3021200Y865000D02*
X3073400Y812800D01*
X3021200Y865000D02*
X513500Y865000D01*
X3206700Y870000D02*
X3263900Y812800D01*
X493100Y870000D02*
X455000Y831900D01*
X493100Y870000D02*
X3206700Y870000D01*
X3392200Y875000D02*
X3454400Y812800D01*
X472700Y875000D02*
X455000Y857300D01*
X472700Y875000D02*
X3392200Y875000D01*
X3577700Y880000D02*
X3644900Y812800D01*
X477300Y882700D02*
X455000Y882700D01*
X477300Y882700D02*
X480000Y880000D01*
X3577700Y880000D01*
D16*
X295000Y690000D03*
D14*
X3767700Y690000D01*
X3835400Y622300D01*
M02*
