  0
SECTION
  2
HEADER
  9
$ACADVER
  1
AC1009
  9
$EXTMIN
 10
0.0
 20
0.0
 30
0.0
  9
$EXTMAX
 10
1000.0
 20
1000.0
 30
0.0
  9
$FILLMODE
 70
 0
  9
$SPLFRAME
 70
 1
  0
ENDSEC
  0
SECTION
  2
TABLES
  0
TABLE
  2
LAYER
 70
1
  0
LAYER
  2
0
 70
     0
 62
     7
  6
CONTINUOUS
  0
ENDTAB
  0
ENDSEC
  0
SECTION
  2
ENTITIES
  0
LINE
  8
0
 62
     0
 10
391.096
 20
126.552
 30
0.0
 11
391.252
 21
126.545
 31
0.0
  0
LINE
  8
0
 62
     0
 10
391.252
 20
126.545
 30
0.0
 11
391.407
 21
126.527
 31
0.0
  0
LINE
  8
0
 62
     0
 10
391.407
 20
126.527
 30
0.0
 11
391.562
 21
126.497
 31
0.0
  0
LINE
  8
0
 62
     0
 10
391.562
 20
126.497
 30
0.0
 11
391.714
 21
126.454
 31
0.0
  0
LINE
  8
0
 62
     0
 10
391.714
 20
126.454
 30
0.0
 11
391.862
 21
126.399
 31
0.0
  0
LINE
  8
0
 62
     0
 10
391.862
 20
126.399
 30
0.0
 11
392.003
 21
126.334
 31
0.0
  0
LINE
  8
0
 62
     0
 10
392.003
 20
126.334
 30
0.0
 11
392.141
 21
126.257
 31
0.0
  0
LINE
  8
0
 62
     0
 10
392.141
 20
126.257
 30
0.0
 11
392.271
 21
126.17
 31
0.0
  0
LINE
  8
0
 62
     0
 10
392.271
 20
126.17
 30
0.0
 11
392.395
 21
126.073
 31
0.0
  0
LINE
  8
0
 62
     0
 10
392.395
 20
126.073
 30
0.0
 11
392.511
 21
125.966
 31
0.0
  0
LINE
  8
0
 62
     0
 10
392.511
 20
125.966
 30
0.0
 11
392.617
 21
125.851
 31
0.0
  0
LINE
  8
0
 62
     0
 10
392.617
 20
125.851
 30
0.0
 11
392.716
 21
125.728
 31
0.0
  0
LINE
  8
0
 62
     0
 10
392.716
 20
125.728
 30
0.0
 11
392.8
 21
125.597
 31
0.0
  0
LINE
  8
0
 62
     0
 10
392.8
 20
125.597
 30
0.0
 11
392.878
 21
125.459
 31
0.0
  0
LINE
  8
0
 62
     0
 10
392.878
 20
125.459
 30
0.0
 11
392.945
 21
125.317
 31
0.0
  0
LINE
  8
0
 62
     0
 10
392.945
 20
125.317
 30
0.0
 11
392.998
 21
125.171
 31
0.0
  0
LINE
  8
0
 62
     0
 10
392.998
 20
125.171
 30
0.0
 11
393.04
 21
125.018
 31
0.0
  0
LINE
  8
0
 62
     0
 10
393.04
 20
125.018
 30
0.0
 11
393.072
 21
124.865
 31
0.0
  0
LINE
  8
0
 62
     0
 10
393.072
 20
124.865
 30
0.0
 11
393.09
 21
124.708
 31
0.0
  0
LINE
  8
0
 62
     0
 10
393.09
 20
124.708
 30
0.0
 11
393.097
 21
124.551
 31
0.0
  0
LINE
  8
0
 62
     0
 10
393.097
 20
124.551
 30
0.0
 11
393.097
 21
2.25171
 31
0.0
  0
LINE
  8
0
 62
     0
 10
393.097
 20
2.25171
 30
0.0
 11
393.09
 21
2.09462
 31
0.0
  0
LINE
  8
0
 62
     0
 10
393.09
 20
2.09462
 30
0.0
 11
393.072
 21
1.9389
 31
0.0
  0
LINE
  8
0
 62
     0
 10
393.072
 20
1.9389
 30
0.0
 11
393.04
 21
1.78456
 31
0.0
  0
LINE
  8
0
 62
     0
 10
393.04
 20
1.78456
 30
0.0
 11
392.998
 21
1.63298
 31
0.0
  0
LINE
  8
0
 62
     0
 10
392.998
 20
1.63298
 30
0.0
 11
392.945
 21
1.48553
 31
0.0
  0
LINE
  8
0
 62
     0
 10
392.945
 20
1.48553
 30
0.0
 11
392.878
 21
1.34359
 31
0.0
  0
LINE
  8
0
 62
     0
 10
392.878
 20
1.34359
 30
0.0
 11
392.8
 21
1.20716
 31
0.0
  0
LINE
  8
0
 62
     0
 10
392.8
 20
1.20716
 30
0.0
 11
392.716
 21
1.07625
 31
0.0
  0
LINE
  8
0
 62
     0
 10
392.716
 20
1.07625
 30
0.0
 11
392.617
 21
0.953604
 31
0.0
  0
LINE
  8
0
 62
     0
 10
392.617
 20
0.953604
 30
0.0
 11
392.511
 21
0.836468
 31
0.0
  0
LINE
  8
0
 62
     0
 10
392.511
 20
0.836468
 30
0.0
 11
392.395
 21
0.730359
 31
0.0
  0
LINE
  8
0
 62
     0
 10
392.395
 20
0.730359
 30
0.0
 11
392.271
 21
0.63252
 31
0.0
  0
LINE
  8
0
 62
     0
 10
392.271
 20
0.63252
 30
0.0
 11
392.141
 21
0.545705
 31
0.0
  0
LINE
  8
0
 62
     0
 10
392.141
 20
0.545705
 30
0.0
 11
392.003
 21
0.468535
 31
0.0
  0
LINE
  8
0
 62
     0
 10
392.003
 20
0.468535
 30
0.0
 11
391.862
 21
0.403765
 31
0.0
  0
LINE
  8
0
 62
     0
 10
391.862
 20
0.403765
 30
0.0
 11
391.714
 21
0.348644
 31
0.0
  0
LINE
  8
0
 62
     0
 10
391.714
 20
0.348644
 30
0.0
 11
391.562
 21
0.307303
 31
0.0
  0
LINE
  8
0
 62
     0
 10
391.562
 20
0.307303
 30
0.0
 11
391.407
 21
0.275608
 31
0.0
  0
LINE
  8
0
 62
     0
 10
391.407
 20
0.275608
 30
0.0
 11
391.252
 21
0.257693
 31
0.0
  0
LINE
  8
0
 62
     0
 10
391.252
 20
0.257693
 30
0.0
 11
391.096
 21
0.250803
 31
0.0
  0
LINE
  8
0
 62
     0
 10
391.096
 20
0.250803
 30
0.0
 11
2.096
 21
0.250803
 31
0.0
  0
LINE
  8
0
 62
     0
 10
2.096
 20
0.250803
 30
0.0
 11
1.9389
 21
0.257693
 31
0.0
  0
LINE
  8
0
 62
     0
 10
1.9389
 20
0.257693
 30
0.0
 11
1.7818
 21
0.275608
 31
0.0
  0
LINE
  8
0
 62
     0
 10
1.7818
 20
0.275608
 30
0.0
 11
1.62884
 21
0.307303
 31
0.0
  0
LINE
  8
0
 62
     0
 10
1.62884
 20
0.307303
 30
0.0
 11
1.47588
 21
0.348644
 31
0.0
  0
LINE
  8
0
 62
     0
 10
1.47588
 20
0.348644
 30
0.0
 11
1.32981
 21
0.403765
 31
0.0
  0
LINE
  8
0
 62
     0
 10
1.32981
 20
0.403765
 30
0.0
 11
1.18787
 21
0.468535
 31
0.0
  0
LINE
  8
0
 62
     0
 10
1.18787
 20
0.468535
 30
0.0
 11
1.05006
 21
0.545705
 31
0.0
  0
LINE
  8
0
 62
     0
 10
1.05006
 20
0.545705
 30
0.0
 11
0.919152
 21
0.63252
 31
0.0
  0
LINE
  8
0
 62
     0
 10
0.919152
 20
0.63252
 30
0.0
 11
0.796505
 21
0.730359
 31
0.0
  0
LINE
  8
0
 62
     0
 10
0.796505
 20
0.730359
 30
0.0
 11
0.680752
 21
0.836468
 31
0.0
  0
LINE
  8
0
 62
     0
 10
0.680752
 20
0.836468
 30
0.0
 11
0.574643
 21
0.953604
 31
0.0
  0
LINE
  8
0
 62
     0
 10
0.574643
 20
0.953604
 30
0.0
 11
0.4768
 21
1.07625
 31
0.0
  0
LINE
  8
0
 62
     0
 10
0.4768
 20
1.07625
 30
0.0
 11
0.389985
 21
1.20716
 31
0.0
  0
LINE
  8
0
 62
     0
 10
0.389985
 20
1.20716
 30
0.0
 11
0.312815
 21
1.34359
 31
0.0
  0
LINE
  8
0
 62
     0
 10
0.312815
 20
1.34359
 30
0.0
 11
0.248047
 21
1.48553
 31
0.0
  0
LINE
  8
0
 62
     0
 10
0.248047
 20
1.48553
 30
0.0
 11
0.192925
 21
1.63298
 31
0.0
  0
LINE
  8
0
 62
     0
 10
0.192925
 20
1.63298
 30
0.0
 11
0.150206
 21
1.78456
 31
0.0
  0
LINE
  8
0
 62
     0
 10
0.150206
 20
1.78456
 30
0.0
 11
0.119889
 21
1.9389
 31
0.0
  0
LINE
  8
0
 62
     0
 10
0.119889
 20
1.9389
 30
0.0
 11
0.101975
 21
2.09462
 31
0.0
  0
LINE
  8
0
 62
     0
 10
0.101975
 20
2.09462
 30
0.0
 11
0.0950846
 21
2.25171
 31
0.0
  0
LINE
  8
0
 62
     0
 10
0.0950846
 20
2.25171
 30
0.0
 11
0.0950846
 21
124.551
 31
0.0
  0
LINE
  8
0
 62
     0
 10
0.0950846
 20
124.551
 30
0.0
 11
0.101975
 21
124.708
 31
0.0
  0
LINE
  8
0
 62
     0
 10
0.101975
 20
124.708
 30
0.0
 11
0.119889
 21
124.865
 31
0.0
  0
LINE
  8
0
 62
     0
 10
0.119889
 20
124.865
 30
0.0
 11
0.150206
 21
125.018
 31
0.0
  0
LINE
  8
0
 62
     0
 10
0.150206
 20
125.018
 30
0.0
 11
0.192925
 21
125.171
 31
0.0
  0
LINE
  8
0
 62
     0
 10
0.192925
 20
125.171
 30
0.0
 11
0.248047
 21
125.317
 31
0.0
  0
LINE
  8
0
 62
     0
 10
0.248047
 20
125.317
 30
0.0
 11
0.312815
 21
125.459
 31
0.0
  0
LINE
  8
0
 62
     0
 10
0.312815
 20
125.459
 30
0.0
 11
0.389985
 21
125.597
 31
0.0
  0
LINE
  8
0
 62
     0
 10
0.389985
 20
125.597
 30
0.0
 11
0.4768
 21
125.728
 31
0.0
  0
LINE
  8
0
 62
     0
 10
0.4768
 20
125.728
 30
0.0
 11
0.574643
 21
125.851
 31
0.0
  0
LINE
  8
0
 62
     0
 10
0.574643
 20
125.851
 30
0.0
 11
0.680752
 21
125.966
 31
0.0
  0
LINE
  8
0
 62
     0
 10
0.680752
 20
125.966
 30
0.0
 11
0.796505
 21
126.073
 31
0.0
  0
LINE
  8
0
 62
     0
 10
0.796505
 20
126.073
 30
0.0
 11
0.919152
 21
126.17
 31
0.0
  0
LINE
  8
0
 62
     0
 10
0.919152
 20
126.17
 30
0.0
 11
1.05006
 21
126.257
 31
0.0
  0
LINE
  8
0
 62
     0
 10
1.05006
 20
126.257
 30
0.0
 11
1.18787
 21
126.334
 31
0.0
  0
LINE
  8
0
 62
     0
 10
1.18787
 20
126.334
 30
0.0
 11
1.32981
 21
126.399
 31
0.0
  0
LINE
  8
0
 62
     0
 10
1.32981
 20
126.399
 30
0.0
 11
1.47588
 21
126.454
 31
0.0
  0
LINE
  8
0
 62
     0
 10
1.47588
 20
126.454
 30
0.0
 11
1.62884
 21
126.497
 31
0.0
  0
LINE
  8
0
 62
     0
 10
1.62884
 20
126.497
 30
0.0
 11
1.7818
 21
126.527
 31
0.0
  0
LINE
  8
0
 62
     0
 10
1.7818
 20
126.527
 30
0.0
 11
1.9389
 21
126.545
 31
0.0
  0
LINE
  8
0
 62
     0
 10
1.9389
 20
126.545
 30
0.0
 11
2.096
 21
126.552
 31
0.0
  0
LINE
  8
0
 62
     0
 10
2.096
 20
126.552
 30
0.0
 11
391.096
 21
126.552
 31
0.0
  0
LINE
  8
0
 62
     0
 10
2.47633
 20
5.15387
 30
0.0
 11
1.91961
 21
4.86999
 31
0.0
  0
LINE
  8
0
 62
     0
 10
1.91961
 20
4.86999
 30
0.0
 11
1.47588
 21
4.42627
 31
0.0
  0
LINE
  8
0
 62
     0
 10
1.47588
 20
4.42627
 30
0.0
 11
1.192
 21
3.86955
 31
0.0
  0
LINE
  8
0
 62
     0
 10
1.192
 20
3.86955
 30
0.0
 11
1.09416
 21
3.25217
 31
0.0
  0
LINE
  8
0
 62
     0
 10
1.09416
 20
3.25217
 30
0.0
 11
1.192
 21
2.63205
 31
0.0
  0
LINE
  8
0
 62
     0
 10
1.192
 20
2.63205
 30
0.0
 11
1.47588
 21
2.07532
 31
0.0
  0
LINE
  8
0
 62
     0
 10
1.47588
 20
2.07532
 30
0.0
 11
1.91961
 21
1.63298
 31
0.0
  0
LINE
  8
0
 62
     0
 10
1.91961
 20
1.63298
 30
0.0
 11
2.47633
 21
1.3491
 31
0.0
  0
LINE
  8
0
 62
     0
 10
2.47633
 20
1.3491
 30
0.0
 11
3.09507
 21
1.25126
 31
0.0
  0
LINE
  8
0
 62
     0
 10
3.09507
 20
1.25126
 30
0.0
 11
3.7138
 21
1.3491
 31
0.0
  0
LINE
  8
0
 62
     0
 10
3.7138
 20
1.3491
 30
0.0
 11
4.27055
 21
1.63298
 31
0.0
  0
LINE
  8
0
 62
     0
 10
4.27055
 20
1.63298
 30
0.0
 11
4.7129
 21
2.07532
 31
0.0
  0
LINE
  8
0
 62
     0
 10
4.7129
 20
2.07532
 30
0.0
 11
4.99816
 21
2.63205
 31
0.0
  0
LINE
  8
0
 62
     0
 10
4.99816
 20
2.63205
 30
0.0
 11
5.0946
 21
3.25217
 31
0.0
  0
LINE
  8
0
 62
     0
 10
5.0946
 20
3.25217
 30
0.0
 11
4.99816
 21
3.86955
 31
0.0
  0
LINE
  8
0
 62
     0
 10
4.99816
 20
3.86955
 30
0.0
 11
4.7129
 21
4.42627
 31
0.0
  0
LINE
  8
0
 62
     0
 10
4.7129
 20
4.42627
 30
0.0
 11
4.27055
 21
4.86999
 31
0.0
  0
LINE
  8
0
 62
     0
 10
4.27055
 20
4.86999
 30
0.0
 11
3.7138
 21
5.15387
 31
0.0
  0
LINE
  8
0
 62
     0
 10
3.7138
 20
5.15387
 30
0.0
 11
3.09507
 21
5.2517
 31
0.0
  0
LINE
  8
0
 62
     0
 10
3.09507
 20
5.2517
 30
0.0
 11
2.47633
 21
5.15387
 31
0.0
  0
LINE
  8
0
 62
     0
 10
99.2269
 20
5.15387
 30
0.0
 11
98.6688
 21
4.86999
 31
0.0
  0
LINE
  8
0
 62
     0
 10
98.6688
 20
4.86999
 30
0.0
 11
98.2278
 21
4.42627
 31
0.0
  0
LINE
  8
0
 62
     0
 10
98.2278
 20
4.42627
 30
0.0
 11
97.9442
 21
3.86955
 31
0.0
  0
LINE
  8
0
 62
     0
 10
97.9442
 20
3.86955
 30
0.0
 11
97.8447
 21
3.25217
 31
0.0
  0
LINE
  8
0
 62
     0
 10
97.8447
 20
3.25217
 30
0.0
 11
97.9442
 21
2.63205
 31
0.0
  0
LINE
  8
0
 62
     0
 10
97.9442
 20
2.63205
 30
0.0
 11
98.2278
 21
2.07532
 31
0.0
  0
LINE
  8
0
 62
     0
 10
98.2278
 20
2.07532
 30
0.0
 11
98.6688
 21
1.63298
 31
0.0
  0
LINE
  8
0
 62
     0
 10
98.6688
 20
1.63298
 30
0.0
 11
99.2269
 21
1.3491
 31
0.0
  0
LINE
  8
0
 62
     0
 10
99.2269
 20
1.3491
 30
0.0
 11
99.8456
 21
1.25126
 31
0.0
  0
LINE
  8
0
 62
     0
 10
99.8456
 20
1.25126
 30
0.0
 11
100.463
 21
1.3491
 31
0.0
  0
LINE
  8
0
 62
     0
 10
100.463
 20
1.3491
 30
0.0
 11
101.02
 21
1.63298
 31
0.0
  0
LINE
  8
0
 62
     0
 10
101.02
 20
1.63298
 30
0.0
 11
101.463
 21
2.07532
 31
0.0
  0
LINE
  8
0
 62
     0
 10
101.463
 20
2.07532
 30
0.0
 11
101.747
 21
2.63205
 31
0.0
  0
LINE
  8
0
 62
     0
 10
101.747
 20
2.63205
 30
0.0
 11
101.845
 21
3.25217
 31
0.0
  0
LINE
  8
0
 62
     0
 10
101.845
 20
3.25217
 30
0.0
 11
101.747
 21
3.86955
 31
0.0
  0
LINE
  8
0
 62
     0
 10
101.747
 20
3.86955
 30
0.0
 11
101.463
 21
4.42627
 31
0.0
  0
LINE
  8
0
 62
     0
 10
101.463
 20
4.42627
 30
0.0
 11
101.02
 21
4.86999
 31
0.0
  0
LINE
  8
0
 62
     0
 10
101.02
 20
4.86999
 30
0.0
 11
100.463
 21
5.15387
 31
0.0
  0
LINE
  8
0
 62
     0
 10
100.463
 20
5.15387
 30
0.0
 11
99.8456
 21
5.2517
 31
0.0
  0
LINE
  8
0
 62
     0
 10
99.8456
 20
5.2517
 30
0.0
 11
99.2269
 21
5.15387
 31
0.0
  0
LINE
  8
0
 62
     0
 10
195.978
 20
5.15387
 30
0.0
 11
195.419
 21
4.86999
 31
0.0
  0
LINE
  8
0
 62
     0
 10
195.419
 20
4.86999
 30
0.0
 11
194.977
 21
4.42627
 31
0.0
  0
LINE
  8
0
 62
     0
 10
194.977
 20
4.42627
 30
0.0
 11
194.693
 21
3.86955
 31
0.0
  0
LINE
  8
0
 62
     0
 10
194.693
 20
3.86955
 30
0.0
 11
194.595
 21
3.25217
 31
0.0
  0
LINE
  8
0
 62
     0
 10
194.595
 20
3.25217
 30
0.0
 11
194.693
 21
2.63205
 31
0.0
  0
LINE
  8
0
 62
     0
 10
194.693
 20
2.63205
 30
0.0
 11
194.977
 21
2.07532
 31
0.0
  0
LINE
  8
0
 62
     0
 10
194.977
 20
2.07532
 30
0.0
 11
195.419
 21
1.63298
 31
0.0
  0
LINE
  8
0
 62
     0
 10
195.419
 20
1.63298
 30
0.0
 11
195.978
 21
1.3491
 31
0.0
  0
LINE
  8
0
 62
     0
 10
195.978
 20
1.3491
 30
0.0
 11
196.595
 21
1.25126
 31
0.0
  0
LINE
  8
0
 62
     0
 10
196.595
 20
1.25126
 30
0.0
 11
197.214
 21
1.3491
 31
0.0
  0
LINE
  8
0
 62
     0
 10
197.214
 20
1.3491
 30
0.0
 11
197.772
 21
1.63298
 31
0.0
  0
LINE
  8
0
 62
     0
 10
197.772
 20
1.63298
 30
0.0
 11
198.213
 21
2.07532
 31
0.0
  0
LINE
  8
0
 62
     0
 10
198.213
 20
2.07532
 30
0.0
 11
198.498
 21
2.63205
 31
0.0
  0
LINE
  8
0
 62
     0
 10
198.498
 20
2.63205
 30
0.0
 11
198.596
 21
3.25217
 31
0.0
  0
LINE
  8
0
 62
     0
 10
198.596
 20
3.25217
 30
0.0
 11
198.498
 21
3.86955
 31
0.0
  0
LINE
  8
0
 62
     0
 10
198.498
 20
3.86955
 30
0.0
 11
198.213
 21
4.42627
 31
0.0
  0
LINE
  8
0
 62
     0
 10
198.213
 20
4.42627
 30
0.0
 11
197.772
 21
4.86999
 31
0.0
  0
LINE
  8
0
 62
     0
 10
197.772
 20
4.86999
 30
0.0
 11
197.214
 21
5.15387
 31
0.0
  0
LINE
  8
0
 62
     0
 10
197.214
 20
5.15387
 30
0.0
 11
196.595
 21
5.2517
 31
0.0
  0
LINE
  8
0
 62
     0
 10
196.595
 20
5.2517
 30
0.0
 11
195.978
 21
5.15387
 31
0.0
  0
LINE
  8
0
 62
     0
 10
292.727
 20
5.15387
 30
0.0
 11
292.17
 21
4.86999
 31
0.0
  0
LINE
  8
0
 62
     0
 10
292.17
 20
4.86999
 30
0.0
 11
291.728
 21
4.42627
 31
0.0
  0
LINE
  8
0
 62
     0
 10
291.728
 20
4.42627
 30
0.0
 11
291.444
 21
3.86955
 31
0.0
  0
LINE
  8
0
 62
     0
 10
291.444
 20
3.86955
 30
0.0
 11
291.345
 21
3.25217
 31
0.0
  0
LINE
  8
0
 62
     0
 10
291.345
 20
3.25217
 30
0.0
 11
291.444
 21
2.63205
 31
0.0
  0
LINE
  8
0
 62
     0
 10
291.444
 20
2.63205
 30
0.0
 11
291.728
 21
2.07532
 31
0.0
  0
LINE
  8
0
 62
     0
 10
291.728
 20
2.07532
 30
0.0
 11
292.17
 21
1.63298
 31
0.0
  0
LINE
  8
0
 62
     0
 10
292.17
 20
1.63298
 30
0.0
 11
292.727
 21
1.3491
 31
0.0
  0
LINE
  8
0
 62
     0
 10
292.727
 20
1.3491
 30
0.0
 11
293.346
 21
1.25126
 31
0.0
  0
LINE
  8
0
 62
     0
 10
293.346
 20
1.25126
 30
0.0
 11
293.963
 21
1.3491
 31
0.0
  0
LINE
  8
0
 62
     0
 10
293.963
 20
1.3491
 30
0.0
 11
294.521
 21
1.63298
 31
0.0
  0
LINE
  8
0
 62
     0
 10
294.521
 20
1.63298
 30
0.0
 11
294.963
 21
2.07532
 31
0.0
  0
LINE
  8
0
 62
     0
 10
294.963
 20
2.07532
 30
0.0
 11
295.247
 21
2.63205
 31
0.0
  0
LINE
  8
0
 62
     0
 10
295.247
 20
2.63205
 30
0.0
 11
295.345
 21
3.25217
 31
0.0
  0
LINE
  8
0
 62
     0
 10
295.345
 20
3.25217
 30
0.0
 11
295.247
 21
3.86955
 31
0.0
  0
LINE
  8
0
 62
     0
 10
295.247
 20
3.86955
 30
0.0
 11
294.963
 21
4.42627
 31
0.0
  0
LINE
  8
0
 62
     0
 10
294.963
 20
4.42627
 30
0.0
 11
294.521
 21
4.86999
 31
0.0
  0
LINE
  8
0
 62
     0
 10
294.521
 20
4.86999
 30
0.0
 11
293.963
 21
5.15387
 31
0.0
  0
LINE
  8
0
 62
     0
 10
293.963
 20
5.15387
 30
0.0
 11
293.346
 21
5.2517
 31
0.0
  0
LINE
  8
0
 62
     0
 10
293.346
 20
5.2517
 30
0.0
 11
292.727
 21
5.15387
 31
0.0
  0
LINE
  8
0
 62
     0
 10
389.477
 20
5.15387
 30
0.0
 11
388.92
 21
4.86999
 31
0.0
  0
LINE
  8
0
 62
     0
 10
388.92
 20
4.86999
 30
0.0
 11
388.479
 21
4.42627
 31
0.0
  0
LINE
  8
0
 62
     0
 10
388.479
 20
4.42627
 30
0.0
 11
388.193
 21
3.86955
 31
0.0
  0
LINE
  8
0
 62
     0
 10
388.193
 20
3.86955
 30
0.0
 11
388.098
 21
3.25217
 31
0.0
  0
LINE
  8
0
 62
     0
 10
388.098
 20
3.25217
 30
0.0
 11
388.193
 21
2.63205
 31
0.0
  0
LINE
  8
0
 62
     0
 10
388.193
 20
2.63205
 30
0.0
 11
388.479
 21
2.07532
 31
0.0
  0
LINE
  8
0
 62
     0
 10
388.479
 20
2.07532
 30
0.0
 11
388.92
 21
1.63298
 31
0.0
  0
LINE
  8
0
 62
     0
 10
388.92
 20
1.63298
 30
0.0
 11
389.477
 21
1.3491
 31
0.0
  0
LINE
  8
0
 62
     0
 10
389.477
 20
1.3491
 30
0.0
 11
390.098
 21
1.25126
 31
0.0
  0
LINE
  8
0
 62
     0
 10
390.098
 20
1.25126
 30
0.0
 11
390.716
 21
1.3491
 31
0.0
  0
LINE
  8
0
 62
     0
 10
390.716
 20
1.3491
 30
0.0
 11
391.273
 21
1.63298
 31
0.0
  0
LINE
  8
0
 62
     0
 10
391.273
 20
1.63298
 30
0.0
 11
391.714
 21
2.07532
 31
0.0
  0
LINE
  8
0
 62
     0
 10
391.714
 20
2.07532
 30
0.0
 11
392
 21
2.63205
 31
0.0
  0
LINE
  8
0
 62
     0
 10
392
 20
2.63205
 30
0.0
 11
392.095
 21
3.25217
 31
0.0
  0
LINE
  8
0
 62
     0
 10
392.095
 20
3.25217
 30
0.0
 11
392
 21
3.86955
 31
0.0
  0
LINE
  8
0
 62
     0
 10
392
 20
3.86955
 30
0.0
 11
391.714
 21
4.42627
 31
0.0
  0
LINE
  8
0
 62
     0
 10
391.714
 20
4.42627
 30
0.0
 11
391.273
 21
4.86999
 31
0.0
  0
LINE
  8
0
 62
     0
 10
391.273
 20
4.86999
 30
0.0
 11
390.716
 21
5.15387
 31
0.0
  0
LINE
  8
0
 62
     0
 10
390.716
 20
5.15387
 30
0.0
 11
390.098
 21
5.2517
 31
0.0
  0
LINE
  8
0
 62
     0
 10
390.098
 20
5.2517
 30
0.0
 11
389.477
 21
5.15387
 31
0.0
  0
LINE
  8
0
 62
     0
 10
370.572
 20
22.7776
 30
0.0
 11
384.57
 21
22.7776
 31
0.0
  0
LINE
  8
0
 62
     0
 10
384.57
 20
22.7776
 30
0.0
 11
384.57
 21
8.7781
 31
0.0
  0
LINE
  8
0
 62
     0
 10
384.57
 20
8.7781
 30
0.0
 11
370.572
 21
8.7781
 31
0.0
  0
LINE
  8
0
 62
     0
 10
370.572
 20
8.7781
 30
0.0
 11
370.572
 21
22.7776
 31
0.0
  0
LINE
  8
0
 62
     0
 10
351.521
 20
22.7776
 30
0.0
 11
365.52
 21
22.7776
 31
0.0
  0
LINE
  8
0
 62
     0
 10
365.52
 20
22.7776
 30
0.0
 11
365.52
 21
8.7781
 31
0.0
  0
LINE
  8
0
 62
     0
 10
365.52
 20
8.7781
 30
0.0
 11
351.521
 21
8.7781
 31
0.0
  0
LINE
  8
0
 62
     0
 10
351.521
 20
8.7781
 30
0.0
 11
351.521
 21
22.7776
 31
0.0
  0
LINE
  8
0
 62
     0
 10
332.471
 20
22.7776
 30
0.0
 11
346.47
 21
22.7776
 31
0.0
  0
LINE
  8
0
 62
     0
 10
346.47
 20
22.7776
 30
0.0
 11
346.47
 21
8.7781
 31
0.0
  0
LINE
  8
0
 62
     0
 10
346.47
 20
8.7781
 30
0.0
 11
332.471
 21
8.7781
 31
0.0
  0
LINE
  8
0
 62
     0
 10
332.471
 20
8.7781
 30
0.0
 11
332.471
 21
22.7776
 31
0.0
  0
LINE
  8
0
 62
     0
 10
313.421
 20
22.7776
 30
0.0
 11
327.42
 21
22.7776
 31
0.0
  0
LINE
  8
0
 62
     0
 10
327.42
 20
22.7776
 30
0.0
 11
327.42
 21
8.7781
 31
0.0
  0
LINE
  8
0
 62
     0
 10
327.42
 20
8.7781
 30
0.0
 11
313.421
 21
8.7781
 31
0.0
  0
LINE
  8
0
 62
     0
 10
313.421
 20
8.7781
 30
0.0
 11
313.421
 21
22.7776
 31
0.0
  0
LINE
  8
0
 62
     0
 10
294.371
 20
22.7776
 30
0.0
 11
308.37
 21
22.7776
 31
0.0
  0
LINE
  8
0
 62
     0
 10
308.37
 20
22.7776
 30
0.0
 11
308.37
 21
8.7781
 31
0.0
  0
LINE
  8
0
 62
     0
 10
308.37
 20
8.7781
 30
0.0
 11
294.371
 21
8.7781
 31
0.0
  0
LINE
  8
0
 62
     0
 10
294.371
 20
8.7781
 30
0.0
 11
294.371
 21
22.7776
 31
0.0
  0
LINE
  8
0
 62
     0
 10
275.321
 20
22.7776
 30
0.0
 11
289.32
 21
22.7776
 31
0.0
  0
LINE
  8
0
 62
     0
 10
289.32
 20
22.7776
 30
0.0
 11
289.32
 21
8.7781
 31
0.0
  0
LINE
  8
0
 62
     0
 10
289.32
 20
8.7781
 30
0.0
 11
275.321
 21
8.7781
 31
0.0
  0
LINE
  8
0
 62
     0
 10
275.321
 20
8.7781
 30
0.0
 11
275.321
 21
22.7776
 31
0.0
  0
LINE
  8
0
 62
     0
 10
256.271
 20
22.7776
 30
0.0
 11
270.27
 21
22.7776
 31
0.0
  0
LINE
  8
0
 62
     0
 10
270.27
 20
22.7776
 30
0.0
 11
270.27
 21
8.7781
 31
0.0
  0
LINE
  8
0
 62
     0
 10
270.27
 20
8.7781
 30
0.0
 11
256.271
 21
8.7781
 31
0.0
  0
LINE
  8
0
 62
     0
 10
256.271
 20
8.7781
 30
0.0
 11
256.271
 21
22.7776
 31
0.0
  0
LINE
  8
0
 62
     0
 10
237.221
 20
22.7776
 30
0.0
 11
251.22
 21
22.7776
 31
0.0
  0
LINE
  8
0
 62
     0
 10
251.22
 20
22.7776
 30
0.0
 11
251.22
 21
8.7781
 31
0.0
  0
LINE
  8
0
 62
     0
 10
251.22
 20
8.7781
 30
0.0
 11
237.221
 21
8.7781
 31
0.0
  0
LINE
  8
0
 62
     0
 10
237.221
 20
8.7781
 30
0.0
 11
237.221
 21
22.7776
 31
0.0
  0
LINE
  8
0
 62
     0
 10
218.171
 20
22.7776
 30
0.0
 11
232.17
 21
22.7776
 31
0.0
  0
LINE
  8
0
 62
     0
 10
232.17
 20
22.7776
 30
0.0
 11
232.17
 21
8.7781
 31
0.0
  0
LINE
  8
0
 62
     0
 10
232.17
 20
8.7781
 30
0.0
 11
218.171
 21
8.7781
 31
0.0
  0
LINE
  8
0
 62
     0
 10
218.171
 20
8.7781
 30
0.0
 11
218.171
 21
22.7776
 31
0.0
  0
LINE
  8
0
 62
     0
 10
163.995
 20
23.7477
 30
0.0
 11
163.995
 21
22.7776
 31
0.0
  0
LINE
  8
0
 62
     0
 10
163.995
 20
22.7776
 30
0.0
 11
161.02
 21
22.7776
 31
0.0
  0
LINE
  8
0
 62
     0
 10
161.02
 20
22.7776
 30
0.0
 11
161.02
 21
8.7781
 31
0.0
  0
LINE
  8
0
 62
     0
 10
161.02
 20
8.7781
 30
0.0
 11
213.12
 21
8.7781
 31
0.0
  0
LINE
  8
0
 62
     0
 10
213.12
 20
8.7781
 30
0.0
 11
213.12
 21
22.7776
 31
0.0
  0
LINE
  8
0
 62
     0
 10
213.12
 20
22.7776
 30
0.0
 11
210.145
 21
22.7776
 31
0.0
  0
LINE
  8
0
 62
     0
 10
210.145
 20
22.7776
 30
0.0
 11
210.145
 21
23.7477
 31
0.0
  0
LINE
  8
0
 62
     0
 10
210.145
 20
23.7477
 30
0.0
 11
206.845
 21
23.7477
 31
0.0
  0
LINE
  8
0
 62
     0
 10
206.845
 20
23.7477
 30
0.0
 11
206.845
 21
22.7776
 31
0.0
  0
LINE
  8
0
 62
     0
 10
206.845
 20
22.7776
 30
0.0
 11
191.095
 21
22.7776
 31
0.0
  0
LINE
  8
0
 62
     0
 10
191.095
 20
22.7776
 30
0.0
 11
191.095
 21
23.7477
 31
0.0
  0
LINE
  8
0
 62
     0
 10
191.095
 20
23.7477
 30
0.0
 11
187.795
 21
23.7477
 31
0.0
  0
LINE
  8
0
 62
     0
 10
187.795
 20
23.7477
 30
0.0
 11
187.795
 21
22.7776
 31
0.0
  0
LINE
  8
0
 62
     0
 10
187.795
 20
22.7776
 30
0.0
 11
186.345
 21
22.7776
 31
0.0
  0
LINE
  8
0
 62
     0
 10
186.345
 20
22.7776
 30
0.0
 11
186.345
 21
23.7477
 31
0.0
  0
LINE
  8
0
 62
     0
 10
186.345
 20
23.7477
 30
0.0
 11
183.045
 21
23.7477
 31
0.0
  0
LINE
  8
0
 62
     0
 10
183.045
 20
23.7477
 30
0.0
 11
183.045
 21
22.7776
 31
0.0
  0
LINE
  8
0
 62
     0
 10
183.045
 20
22.7776
 30
0.0
 11
167.295
 21
22.7776
 31
0.0
  0
LINE
  8
0
 62
     0
 10
167.295
 20
22.7776
 30
0.0
 11
167.295
 21
23.7477
 31
0.0
  0
LINE
  8
0
 62
     0
 10
167.295
 20
23.7477
 30
0.0
 11
163.995
 21
23.7477
 31
0.0
  0
LINE
  8
0
 62
     0
 10
106.845
 20
23.7477
 30
0.0
 11
106.845
 21
22.7776
 31
0.0
  0
LINE
  8
0
 62
     0
 10
106.845
 20
22.7776
 30
0.0
 11
103.87
 21
22.7776
 31
0.0
  0
LINE
  8
0
 62
     0
 10
103.87
 20
22.7776
 30
0.0
 11
103.87
 21
8.7781
 31
0.0
  0
LINE
  8
0
 62
     0
 10
103.87
 20
8.7781
 30
0.0
 11
155.97
 21
8.7781
 31
0.0
  0
LINE
  8
0
 62
     0
 10
155.97
 20
8.7781
 30
0.0
 11
155.97
 21
22.7776
 31
0.0
  0
LINE
  8
0
 62
     0
 10
155.97
 20
22.7776
 30
0.0
 11
152.995
 21
22.7776
 31
0.0
  0
LINE
  8
0
 62
     0
 10
152.995
 20
22.7776
 30
0.0
 11
152.995
 21
23.7477
 31
0.0
  0
LINE
  8
0
 62
     0
 10
152.995
 20
23.7477
 30
0.0
 11
149.695
 21
23.7477
 31
0.0
  0
LINE
  8
0
 62
     0
 10
149.695
 20
23.7477
 30
0.0
 11
149.695
 21
22.7776
 31
0.0
  0
LINE
  8
0
 62
     0
 10
149.695
 20
22.7776
 30
0.0
 11
133.945
 21
22.7776
 31
0.0
  0
LINE
  8
0
 62
     0
 10
133.945
 20
22.7776
 30
0.0
 11
133.945
 21
23.7477
 31
0.0
  0
LINE
  8
0
 62
     0
 10
133.945
 20
23.7477
 30
0.0
 11
130.645
 21
23.7477
 31
0.0
  0
LINE
  8
0
 62
     0
 10
130.645
 20
23.7477
 30
0.0
 11
130.645
 21
22.7776
 31
0.0
  0
LINE
  8
0
 62
     0
 10
130.645
 20
22.7776
 30
0.0
 11
129.195
 21
22.7776
 31
0.0
  0
LINE
  8
0
 62
     0
 10
129.195
 20
22.7776
 30
0.0
 11
129.195
 21
23.7477
 31
0.0
  0
LINE
  8
0
 62
     0
 10
129.195
 20
23.7477
 30
0.0
 11
125.895
 21
23.7477
 31
0.0
  0
LINE
  8
0
 62
     0
 10
125.895
 20
23.7477
 30
0.0
 11
125.895
 21
22.7776
 31
0.0
  0
LINE
  8
0
 62
     0
 10
125.895
 20
22.7776
 30
0.0
 11
110.145
 21
22.7776
 31
0.0
  0
LINE
  8
0
 62
     0
 10
110.145
 20
22.7776
 30
0.0
 11
110.145
 21
23.7477
 31
0.0
  0
LINE
  8
0
 62
     0
 10
110.145
 20
23.7477
 30
0.0
 11
106.845
 21
23.7477
 31
0.0
  0
LINE
  8
0
 62
     0
 10
84.8212
 20
22.7776
 30
0.0
 11
98.8205
 21
22.7776
 31
0.0
  0
LINE
  8
0
 62
     0
 10
98.8205
 20
22.7776
 30
0.0
 11
98.8205
 21
8.7781
 31
0.0
  0
LINE
  8
0
 62
     0
 10
98.8205
 20
8.7781
 30
0.0
 11
84.8212
 21
8.7781
 31
0.0
  0
LINE
  8
0
 62
     0
 10
84.8212
 20
8.7781
 30
0.0
 11
84.8212
 21
22.7776
 31
0.0
  0
LINE
  8
0
 62
     0
 10
65.7712
 20
22.7776
 30
0.0
 11
79.7705
 21
22.7776
 31
0.0
  0
LINE
  8
0
 62
     0
 10
79.7705
 20
22.7776
 30
0.0
 11
79.7705
 21
8.7781
 31
0.0
  0
LINE
  8
0
 62
     0
 10
79.7705
 20
8.7781
 30
0.0
 11
65.7712
 21
8.7781
 31
0.0
  0
LINE
  8
0
 62
     0
 10
65.7712
 20
8.7781
 30
0.0
 11
65.7712
 21
22.7776
 31
0.0
  0
LINE
  8
0
 62
     0
 10
46.7212
 20
22.7776
 30
0.0
 11
60.7205
 21
22.7776
 31
0.0
  0
LINE
  8
0
 62
     0
 10
60.7205
 20
22.7776
 30
0.0
 11
60.7205
 21
8.7781
 31
0.0
  0
LINE
  8
0
 62
     0
 10
60.7205
 20
8.7781
 30
0.0
 11
46.7212
 21
8.7781
 31
0.0
  0
LINE
  8
0
 62
     0
 10
46.7212
 20
8.7781
 30
0.0
 11
46.7212
 21
22.7776
 31
0.0
  0
LINE
  8
0
 62
     0
 10
27.671
 20
22.7776
 30
0.0
 11
41.6705
 21
22.7776
 31
0.0
  0
LINE
  8
0
 62
     0
 10
41.6705
 20
22.7776
 30
0.0
 11
41.6705
 21
8.7781
 31
0.0
  0
LINE
  8
0
 62
     0
 10
41.6705
 20
8.7781
 30
0.0
 11
27.671
 21
8.7781
 31
0.0
  0
LINE
  8
0
 62
     0
 10
27.671
 20
8.7781
 30
0.0
 11
27.671
 21
22.7776
 31
0.0
  0
LINE
  8
0
 62
     0
 10
8.61963
 20
22.7776
 30
0.0
 11
22.6205
 21
22.7776
 31
0.0
  0
LINE
  8
0
 62
     0
 10
22.6205
 20
22.7776
 30
0.0
 11
22.6205
 21
8.7781
 31
0.0
  0
LINE
  8
0
 62
     0
 10
22.6205
 20
8.7781
 30
0.0
 11
8.61963
 21
8.7781
 31
0.0
  0
LINE
  8
0
 62
     0
 10
8.61963
 20
8.7781
 30
0.0
 11
8.61963
 21
22.7776
 31
0.0
  0
LINE
  8
0
 62
     0
 10
370.572
 20
41.8264
 30
0.0
 11
384.57
 21
41.8264
 31
0.0
  0
LINE
  8
0
 62
     0
 10
384.57
 20
41.8264
 30
0.0
 11
384.57
 21
27.8267
 31
0.0
  0
LINE
  8
0
 62
     0
 10
384.57
 20
27.8267
 30
0.0
 11
370.572
 21
27.8267
 31
0.0
  0
LINE
  8
0
 62
     0
 10
370.572
 20
27.8267
 30
0.0
 11
370.572
 21
41.8264
 31
0.0
  0
LINE
  8
0
 62
     0
 10
351.521
 20
41.8264
 30
0.0
 11
365.52
 21
41.8264
 31
0.0
  0
LINE
  8
0
 62
     0
 10
365.52
 20
41.8264
 30
0.0
 11
365.52
 21
27.8267
 31
0.0
  0
LINE
  8
0
 62
     0
 10
365.52
 20
27.8267
 30
0.0
 11
351.521
 21
27.8267
 31
0.0
  0
LINE
  8
0
 62
     0
 10
351.521
 20
27.8267
 30
0.0
 11
351.521
 21
41.8264
 31
0.0
  0
LINE
  8
0
 62
     0
 10
332.471
 20
41.8264
 30
0.0
 11
346.47
 21
41.8264
 31
0.0
  0
LINE
  8
0
 62
     0
 10
346.47
 20
41.8264
 30
0.0
 11
346.47
 21
27.8267
 31
0.0
  0
LINE
  8
0
 62
     0
 10
346.47
 20
27.8267
 30
0.0
 11
332.471
 21
27.8267
 31
0.0
  0
LINE
  8
0
 62
     0
 10
332.471
 20
27.8267
 30
0.0
 11
332.471
 21
41.8264
 31
0.0
  0
LINE
  8
0
 62
     0
 10
313.421
 20
60.8764
 30
0.0
 11
313.421
 21
57.9025
 31
0.0
  0
LINE
  8
0
 62
     0
 10
313.421
 20
57.9025
 30
0.0
 11
312.451
 21
57.9025
 31
0.0
  0
LINE
  8
0
 62
     0
 10
312.451
 20
57.9025
 30
0.0
 11
312.451
 21
54.6019
 31
0.0
  0
LINE
  8
0
 62
     0
 10
312.451
 20
54.6019
 30
0.0
 11
313.421
 21
54.6019
 31
0.0
  0
LINE
  8
0
 62
     0
 10
313.421
 20
54.6019
 30
0.0
 11
313.421
 21
34.1023
 31
0.0
  0
LINE
  8
0
 62
     0
 10
313.421
 20
34.1023
 30
0.0
 11
312.451
 21
34.1023
 31
0.0
  0
LINE
  8
0
 62
     0
 10
312.451
 20
34.1023
 30
0.0
 11
312.451
 21
30.8019
 31
0.0
  0
LINE
  8
0
 62
     0
 10
312.451
 20
30.8019
 30
0.0
 11
313.421
 21
30.8019
 31
0.0
  0
LINE
  8
0
 62
     0
 10
313.421
 20
30.8019
 30
0.0
 11
313.421
 21
27.8267
 31
0.0
  0
LINE
  8
0
 62
     0
 10
313.421
 20
27.8267
 30
0.0
 11
327.42
 21
27.8267
 31
0.0
  0
LINE
  8
0
 62
     0
 10
327.42
 20
27.8267
 30
0.0
 11
327.42
 21
60.8764
 31
0.0
  0
LINE
  8
0
 62
     0
 10
327.42
 20
60.8764
 30
0.0
 11
313.421
 21
60.8764
 31
0.0
  0
LINE
  8
0
 62
     0
 10
294.371
 20
41.8264
 30
0.0
 11
308.37
 21
41.8264
 31
0.0
  0
LINE
  8
0
 62
     0
 10
308.37
 20
41.8264
 30
0.0
 11
308.37
 21
27.8267
 31
0.0
  0
LINE
  8
0
 62
     0
 10
308.37
 20
27.8267
 30
0.0
 11
294.371
 21
27.8267
 31
0.0
  0
LINE
  8
0
 62
     0
 10
294.371
 20
27.8267
 30
0.0
 11
294.371
 21
41.8264
 31
0.0
  0
LINE
  8
0
 62
     0
 10
275.321
 20
41.8264
 30
0.0
 11
289.32
 21
41.8264
 31
0.0
  0
LINE
  8
0
 62
     0
 10
289.32
 20
41.8264
 30
0.0
 11
289.32
 21
27.8267
 31
0.0
  0
LINE
  8
0
 62
     0
 10
289.32
 20
27.8267
 30
0.0
 11
275.321
 21
27.8267
 31
0.0
  0
LINE
  8
0
 62
     0
 10
275.321
 20
27.8267
 30
0.0
 11
275.321
 21
41.8264
 31
0.0
  0
LINE
  8
0
 62
     0
 10
256.271
 20
41.8264
 30
0.0
 11
270.27
 21
41.8264
 31
0.0
  0
LINE
  8
0
 62
     0
 10
270.27
 20
41.8264
 30
0.0
 11
270.27
 21
27.8267
 31
0.0
  0
LINE
  8
0
 62
     0
 10
270.27
 20
27.8267
 30
0.0
 11
256.271
 21
27.8267
 31
0.0
  0
LINE
  8
0
 62
     0
 10
256.271
 20
27.8267
 30
0.0
 11
256.271
 21
41.8264
 31
0.0
  0
LINE
  8
0
 62
     0
 10
237.221
 20
41.8264
 30
0.0
 11
251.22
 21
41.8264
 31
0.0
  0
LINE
  8
0
 62
     0
 10
251.22
 20
41.8264
 30
0.0
 11
251.22
 21
27.8267
 31
0.0
  0
LINE
  8
0
 62
     0
 10
251.22
 20
27.8267
 30
0.0
 11
237.221
 21
27.8267
 31
0.0
  0
LINE
  8
0
 62
     0
 10
237.221
 20
27.8267
 30
0.0
 11
237.221
 21
41.8264
 31
0.0
  0
LINE
  8
0
 62
     0
 10
218.171
 20
41.8264
 30
0.0
 11
232.17
 21
41.8264
 31
0.0
  0
LINE
  8
0
 62
     0
 10
232.17
 20
41.8264
 30
0.0
 11
232.17
 21
27.8267
 31
0.0
  0
LINE
  8
0
 62
     0
 10
232.17
 20
27.8267
 30
0.0
 11
218.171
 21
27.8267
 31
0.0
  0
LINE
  8
0
 62
     0
 10
218.171
 20
27.8267
 30
0.0
 11
218.171
 21
41.8264
 31
0.0
  0
LINE
  8
0
 62
     0
 10
199.121
 20
41.8264
 30
0.0
 11
213.12
 21
41.8264
 31
0.0
  0
LINE
  8
0
 62
     0
 10
213.12
 20
41.8264
 30
0.0
 11
213.12
 21
27.8267
 31
0.0
  0
LINE
  8
0
 62
     0
 10
213.12
 20
27.8267
 30
0.0
 11
199.121
 21
27.8267
 31
0.0
  0
LINE
  8
0
 62
     0
 10
199.121
 20
27.8267
 30
0.0
 11
199.121
 21
41.8264
 31
0.0
  0
LINE
  8
0
 62
     0
 10
180.071
 20
41.8264
 30
0.0
 11
194.07
 21
41.8264
 31
0.0
  0
LINE
  8
0
 62
     0
 10
194.07
 20
41.8264
 30
0.0
 11
194.07
 21
27.8267
 31
0.0
  0
LINE
  8
0
 62
     0
 10
194.07
 20
27.8267
 30
0.0
 11
180.071
 21
27.8267
 31
0.0
  0
LINE
  8
0
 62
     0
 10
180.071
 20
27.8267
 30
0.0
 11
180.071
 21
41.8264
 31
0.0
  0
LINE
  8
0
 62
     0
 10
161.021
 20
41.8264
 30
0.0
 11
175.02
 21
41.8264
 31
0.0
  0
LINE
  8
0
 62
     0
 10
175.02
 20
41.8264
 30
0.0
 11
175.02
 21
27.8267
 31
0.0
  0
LINE
  8
0
 62
     0
 10
175.02
 20
27.8267
 30
0.0
 11
161.021
 21
27.8267
 31
0.0
  0
LINE
  8
0
 62
     0
 10
161.021
 20
27.8267
 30
0.0
 11
161.021
 21
41.8264
 31
0.0
  0
LINE
  8
0
 62
     0
 10
141.971
 20
41.8264
 30
0.0
 11
155.97
 21
41.8264
 31
0.0
  0
LINE
  8
0
 62
     0
 10
155.97
 20
41.8264
 30
0.0
 11
155.97
 21
27.8267
 31
0.0
  0
LINE
  8
0
 62
     0
 10
155.97
 20
27.8267
 30
0.0
 11
141.971
 21
27.8267
 31
0.0
  0
LINE
  8
0
 62
     0
 10
141.971
 20
27.8267
 30
0.0
 11
141.971
 21
41.8264
 31
0.0
  0
LINE
  8
0
 62
     0
 10
122.92
 20
41.8264
 30
0.0
 11
136.92
 21
41.8264
 31
0.0
  0
LINE
  8
0
 62
     0
 10
136.92
 20
41.8264
 30
0.0
 11
136.92
 21
27.8267
 31
0.0
  0
LINE
  8
0
 62
     0
 10
136.92
 20
27.8267
 30
0.0
 11
122.92
 21
27.8267
 31
0.0
  0
LINE
  8
0
 62
     0
 10
122.92
 20
27.8267
 30
0.0
 11
122.92
 21
41.8264
 31
0.0
  0
LINE
  8
0
 62
     0
 10
103.87
 20
41.8264
 30
0.0
 11
117.869
 21
41.8264
 31
0.0
  0
LINE
  8
0
 62
     0
 10
117.869
 20
41.8264
 30
0.0
 11
117.869
 21
27.8267
 31
0.0
  0
LINE
  8
0
 62
     0
 10
117.869
 20
27.8267
 30
0.0
 11
103.87
 21
27.8267
 31
0.0
  0
LINE
  8
0
 62
     0
 10
103.87
 20
27.8267
 30
0.0
 11
103.87
 21
41.8264
 31
0.0
  0
LINE
  8
0
 62
     0
 10
84.8212
 20
41.8264
 30
0.0
 11
98.8205
 21
41.8264
 31
0.0
  0
LINE
  8
0
 62
     0
 10
98.8205
 20
41.8264
 30
0.0
 11
98.8205
 21
27.8267
 31
0.0
  0
LINE
  8
0
 62
     0
 10
98.8205
 20
27.8267
 30
0.0
 11
84.8212
 21
27.8267
 31
0.0
  0
LINE
  8
0
 62
     0
 10
84.8212
 20
27.8267
 30
0.0
 11
84.8212
 21
41.8264
 31
0.0
  0
LINE
  8
0
 62
     0
 10
65.7712
 20
41.8264
 30
0.0
 11
79.7705
 21
41.8264
 31
0.0
  0
LINE
  8
0
 62
     0
 10
79.7705
 20
41.8264
 30
0.0
 11
79.7705
 21
27.8267
 31
0.0
  0
LINE
  8
0
 62
     0
 10
79.7705
 20
27.8267
 30
0.0
 11
65.7712
 21
27.8267
 31
0.0
  0
LINE
  8
0
 62
     0
 10
65.7712
 20
27.8267
 30
0.0
 11
65.7712
 21
41.8264
 31
0.0
  0
LINE
  8
0
 62
     0
 10
46.7212
 20
41.8264
 30
0.0
 11
60.7205
 21
41.8264
 31
0.0
  0
LINE
  8
0
 62
     0
 10
60.7205
 20
41.8264
 30
0.0
 11
60.7205
 21
27.8267
 31
0.0
  0
LINE
  8
0
 62
     0
 10
60.7205
 20
27.8267
 30
0.0
 11
46.7212
 21
27.8267
 31
0.0
  0
LINE
  8
0
 62
     0
 10
46.7212
 20
27.8267
 30
0.0
 11
46.7212
 21
41.8264
 31
0.0
  0
LINE
  8
0
 62
     0
 10
27.671
 20
41.8264
 30
0.0
 11
41.6705
 21
41.8264
 31
0.0
  0
LINE
  8
0
 62
     0
 10
41.6705
 20
41.8264
 30
0.0
 11
41.6705
 21
27.8267
 31
0.0
  0
LINE
  8
0
 62
     0
 10
41.6705
 20
27.8267
 30
0.0
 11
27.671
 21
27.8267
 31
0.0
  0
LINE
  8
0
 62
     0
 10
27.671
 20
27.8267
 30
0.0
 11
27.671
 21
41.8264
 31
0.0
  0
LINE
  8
0
 62
     0
 10
8.61963
 20
41.8264
 30
0.0
 11
22.6205
 21
41.8264
 31
0.0
  0
LINE
  8
0
 62
     0
 10
22.6205
 20
41.8264
 30
0.0
 11
22.6205
 21
27.8267
 31
0.0
  0
LINE
  8
0
 62
     0
 10
22.6205
 20
27.8267
 30
0.0
 11
8.61963
 21
27.8267
 31
0.0
  0
LINE
  8
0
 62
     0
 10
8.61963
 20
27.8267
 30
0.0
 11
8.61963
 21
41.8264
 31
0.0
  0
LINE
  8
0
 62
     0
 10
370.572
 20
60.8764
 30
0.0
 11
384.57
 21
60.8764
 31
0.0
  0
LINE
  8
0
 62
     0
 10
384.57
 20
60.8764
 30
0.0
 11
384.57
 21
46.8768
 31
0.0
  0
LINE
  8
0
 62
     0
 10
384.57
 20
46.8768
 30
0.0
 11
370.572
 21
46.8768
 31
0.0
  0
LINE
  8
0
 62
     0
 10
370.572
 20
46.8768
 30
0.0
 11
370.572
 21
60.8764
 31
0.0
  0
LINE
  8
0
 62
     0
 10
351.521
 20
60.8764
 30
0.0
 11
365.52
 21
60.8764
 31
0.0
  0
LINE
  8
0
 62
     0
 10
365.52
 20
60.8764
 30
0.0
 11
365.52
 21
46.8768
 31
0.0
  0
LINE
  8
0
 62
     0
 10
365.52
 20
46.8768
 30
0.0
 11
351.521
 21
46.8768
 31
0.0
  0
LINE
  8
0
 62
     0
 10
351.521
 20
46.8768
 30
0.0
 11
351.521
 21
60.8764
 31
0.0
  0
LINE
  8
0
 62
     0
 10
332.471
 20
60.8764
 30
0.0
 11
346.47
 21
60.8764
 31
0.0
  0
LINE
  8
0
 62
     0
 10
346.47
 20
60.8764
 30
0.0
 11
346.47
 21
46.8768
 31
0.0
  0
LINE
  8
0
 62
     0
 10
346.47
 20
46.8768
 30
0.0
 11
332.471
 21
46.8768
 31
0.0
  0
LINE
  8
0
 62
     0
 10
332.471
 20
46.8768
 30
0.0
 11
332.471
 21
60.8764
 31
0.0
  0
LINE
  8
0
 62
     0
 10
294.371
 20
60.8764
 30
0.0
 11
308.37
 21
60.8764
 31
0.0
  0
LINE
  8
0
 62
     0
 10
308.37
 20
60.8764
 30
0.0
 11
308.37
 21
46.8768
 31
0.0
  0
LINE
  8
0
 62
     0
 10
308.37
 20
46.8768
 30
0.0
 11
294.371
 21
46.8768
 31
0.0
  0
LINE
  8
0
 62
     0
 10
294.371
 20
46.8768
 30
0.0
 11
294.371
 21
60.8764
 31
0.0
  0
LINE
  8
0
 62
     0
 10
275.321
 20
60.8764
 30
0.0
 11
289.32
 21
60.8764
 31
0.0
  0
LINE
  8
0
 62
     0
 10
289.32
 20
60.8764
 30
0.0
 11
289.32
 21
46.8768
 31
0.0
  0
LINE
  8
0
 62
     0
 10
289.32
 20
46.8768
 30
0.0
 11
275.321
 21
46.8768
 31
0.0
  0
LINE
  8
0
 62
     0
 10
275.321
 20
46.8768
 30
0.0
 11
275.321
 21
60.8764
 31
0.0
  0
LINE
  8
0
 62
     0
 10
256.271
 20
60.8764
 30
0.0
 11
270.27
 21
60.8764
 31
0.0
  0
LINE
  8
0
 62
     0
 10
270.27
 20
60.8764
 30
0.0
 11
270.27
 21
46.8768
 31
0.0
  0
LINE
  8
0
 62
     0
 10
270.27
 20
46.8768
 30
0.0
 11
256.271
 21
46.8768
 31
0.0
  0
LINE
  8
0
 62
     0
 10
256.271
 20
46.8768
 30
0.0
 11
256.271
 21
60.8764
 31
0.0
  0
LINE
  8
0
 62
     0
 10
237.221
 20
60.8764
 30
0.0
 11
251.22
 21
60.8764
 31
0.0
  0
LINE
  8
0
 62
     0
 10
251.22
 20
60.8764
 30
0.0
 11
251.22
 21
46.8768
 31
0.0
  0
LINE
  8
0
 62
     0
 10
251.22
 20
46.8768
 30
0.0
 11
237.221
 21
46.8768
 31
0.0
  0
LINE
  8
0
 62
     0
 10
237.221
 20
46.8768
 30
0.0
 11
237.221
 21
60.8764
 31
0.0
  0
LINE
  8
0
 62
     0
 10
218.171
 20
60.8764
 30
0.0
 11
232.17
 21
60.8764
 31
0.0
  0
LINE
  8
0
 62
     0
 10
232.17
 20
60.8764
 30
0.0
 11
232.17
 21
46.8768
 31
0.0
  0
LINE
  8
0
 62
     0
 10
232.17
 20
46.8768
 30
0.0
 11
218.171
 21
46.8768
 31
0.0
  0
LINE
  8
0
 62
     0
 10
218.171
 20
46.8768
 30
0.0
 11
218.171
 21
60.8764
 31
0.0
  0
LINE
  8
0
 62
     0
 10
199.121
 20
60.8764
 30
0.0
 11
213.12
 21
60.8764
 31
0.0
  0
LINE
  8
0
 62
     0
 10
213.12
 20
60.8764
 30
0.0
 11
213.12
 21
46.8768
 31
0.0
  0
LINE
  8
0
 62
     0
 10
213.12
 20
46.8768
 30
0.0
 11
199.121
 21
46.8768
 31
0.0
  0
LINE
  8
0
 62
     0
 10
199.121
 20
46.8768
 30
0.0
 11
199.121
 21
60.8764
 31
0.0
  0
LINE
  8
0
 62
     0
 10
180.071
 20
60.8764
 30
0.0
 11
194.07
 21
60.8764
 31
0.0
  0
LINE
  8
0
 62
     0
 10
194.07
 20
60.8764
 30
0.0
 11
194.07
 21
46.8768
 31
0.0
  0
LINE
  8
0
 62
     0
 10
194.07
 20
46.8768
 30
0.0
 11
180.071
 21
46.8768
 31
0.0
  0
LINE
  8
0
 62
     0
 10
180.071
 20
46.8768
 30
0.0
 11
180.071
 21
60.8764
 31
0.0
  0
LINE
  8
0
 62
     0
 10
161.021
 20
60.8764
 30
0.0
 11
175.02
 21
60.8764
 31
0.0
  0
LINE
  8
0
 62
     0
 10
175.02
 20
60.8764
 30
0.0
 11
175.02
 21
46.8768
 31
0.0
  0
LINE
  8
0
 62
     0
 10
175.02
 20
46.8768
 30
0.0
 11
161.021
 21
46.8768
 31
0.0
  0
LINE
  8
0
 62
     0
 10
161.021
 20
46.8768
 30
0.0
 11
161.021
 21
60.8764
 31
0.0
  0
LINE
  8
0
 62
     0
 10
141.971
 20
60.8764
 30
0.0
 11
155.97
 21
60.8764
 31
0.0
  0
LINE
  8
0
 62
     0
 10
155.97
 20
60.8764
 30
0.0
 11
155.97
 21
46.8768
 31
0.0
  0
LINE
  8
0
 62
     0
 10
155.97
 20
46.8768
 30
0.0
 11
141.971
 21
46.8768
 31
0.0
  0
LINE
  8
0
 62
     0
 10
141.971
 20
46.8768
 30
0.0
 11
141.971
 21
60.8764
 31
0.0
  0
LINE
  8
0
 62
     0
 10
122.92
 20
60.8764
 30
0.0
 11
136.92
 21
60.8764
 31
0.0
  0
LINE
  8
0
 62
     0
 10
136.92
 20
60.8764
 30
0.0
 11
136.92
 21
46.8768
 31
0.0
  0
LINE
  8
0
 62
     0
 10
136.92
 20
46.8768
 30
0.0
 11
122.92
 21
46.8768
 31
0.0
  0
LINE
  8
0
 62
     0
 10
122.92
 20
46.8768
 30
0.0
 11
122.92
 21
60.8764
 31
0.0
  0
LINE
  8
0
 62
     0
 10
103.87
 20
60.8764
 30
0.0
 11
117.869
 21
60.8764
 31
0.0
  0
LINE
  8
0
 62
     0
 10
117.869
 20
60.8764
 30
0.0
 11
117.869
 21
46.8768
 31
0.0
  0
LINE
  8
0
 62
     0
 10
117.869
 20
46.8768
 30
0.0
 11
103.87
 21
46.8768
 31
0.0
  0
LINE
  8
0
 62
     0
 10
103.87
 20
46.8768
 30
0.0
 11
103.87
 21
60.8764
 31
0.0
  0
LINE
  8
0
 62
     0
 10
84.8212
 20
60.8764
 30
0.0
 11
98.8205
 21
60.8764
 31
0.0
  0
LINE
  8
0
 62
     0
 10
98.8205
 20
60.8764
 30
0.0
 11
98.8205
 21
46.8768
 31
0.0
  0
LINE
  8
0
 62
     0
 10
98.8205
 20
46.8768
 30
0.0
 11
84.8212
 21
46.8768
 31
0.0
  0
LINE
  8
0
 62
     0
 10
84.8212
 20
46.8768
 30
0.0
 11
84.8212
 21
60.8764
 31
0.0
  0
LINE
  8
0
 62
     0
 10
65.7712
 20
60.8764
 30
0.0
 11
79.7705
 21
60.8764
 31
0.0
  0
LINE
  8
0
 62
     0
 10
79.7705
 20
60.8764
 30
0.0
 11
79.7705
 21
46.8768
 31
0.0
  0
LINE
  8
0
 62
     0
 10
79.7705
 20
46.8768
 30
0.0
 11
65.7712
 21
46.8768
 31
0.0
  0
LINE
  8
0
 62
     0
 10
65.7712
 20
46.8768
 30
0.0
 11
65.7712
 21
60.8764
 31
0.0
  0
LINE
  8
0
 62
     0
 10
46.7212
 20
60.8764
 30
0.0
 11
60.7205
 21
60.8764
 31
0.0
  0
LINE
  8
0
 62
     0
 10
60.7205
 20
60.8764
 30
0.0
 11
60.7205
 21
46.8768
 31
0.0
  0
LINE
  8
0
 62
     0
 10
60.7205
 20
46.8768
 30
0.0
 11
46.7212
 21
46.8768
 31
0.0
  0
LINE
  8
0
 62
     0
 10
46.7212
 20
46.8768
 30
0.0
 11
46.7212
 21
60.8764
 31
0.0
  0
LINE
  8
0
 62
     0
 10
27.671
 20
60.8764
 30
0.0
 11
41.6705
 21
60.8764
 31
0.0
  0
LINE
  8
0
 62
     0
 10
41.6705
 20
60.8764
 30
0.0
 11
41.6705
 21
46.8768
 31
0.0
  0
LINE
  8
0
 62
     0
 10
41.6705
 20
46.8768
 30
0.0
 11
27.671
 21
46.8768
 31
0.0
  0
LINE
  8
0
 62
     0
 10
27.671
 20
46.8768
 30
0.0
 11
27.671
 21
60.8764
 31
0.0
  0
LINE
  8
0
 62
     0
 10
8.61963
 20
60.8764
 30
0.0
 11
22.6205
 21
60.8764
 31
0.0
  0
LINE
  8
0
 62
     0
 10
22.6205
 20
60.8764
 30
0.0
 11
22.6205
 21
46.8768
 31
0.0
  0
LINE
  8
0
 62
     0
 10
22.6205
 20
46.8768
 30
0.0
 11
8.61963
 21
46.8768
 31
0.0
  0
LINE
  8
0
 62
     0
 10
8.61963
 20
46.8768
 30
0.0
 11
8.61963
 21
60.8764
 31
0.0
  0
LINE
  8
0
 62
     0
 10
370.572
 20
79.9264
 30
0.0
 11
384.57
 21
79.9264
 31
0.0
  0
LINE
  8
0
 62
     0
 10
384.57
 20
79.9264
 30
0.0
 11
384.57
 21
65.9268
 31
0.0
  0
LINE
  8
0
 62
     0
 10
384.57
 20
65.9268
 30
0.0
 11
370.572
 21
65.9268
 31
0.0
  0
LINE
  8
0
 62
     0
 10
370.572
 20
65.9268
 30
0.0
 11
370.572
 21
79.9264
 31
0.0
  0
LINE
  8
0
 62
     0
 10
351.521
 20
79.9264
 30
0.0
 11
365.52
 21
79.9264
 31
0.0
  0
LINE
  8
0
 62
     0
 10
365.52
 20
79.9264
 30
0.0
 11
365.52
 21
65.9268
 31
0.0
  0
LINE
  8
0
 62
     0
 10
365.52
 20
65.9268
 30
0.0
 11
351.521
 21
65.9268
 31
0.0
  0
LINE
  8
0
 62
     0
 10
351.521
 20
65.9268
 30
0.0
 11
351.521
 21
79.9264
 31
0.0
  0
LINE
  8
0
 62
     0
 10
332.471
 20
79.9264
 30
0.0
 11
346.47
 21
79.9264
 31
0.0
  0
LINE
  8
0
 62
     0
 10
346.47
 20
79.9264
 30
0.0
 11
346.47
 21
65.9268
 31
0.0
  0
LINE
  8
0
 62
     0
 10
346.47
 20
65.9268
 30
0.0
 11
332.471
 21
65.9268
 31
0.0
  0
LINE
  8
0
 62
     0
 10
332.471
 20
65.9268
 30
0.0
 11
332.471
 21
79.9264
 31
0.0
  0
LINE
  8
0
 62
     0
 10
313.421
 20
79.9264
 30
0.0
 11
327.42
 21
79.9264
 31
0.0
  0
LINE
  8
0
 62
     0
 10
327.42
 20
79.9264
 30
0.0
 11
327.42
 21
65.9268
 31
0.0
  0
LINE
  8
0
 62
     0
 10
327.42
 20
65.9268
 30
0.0
 11
313.421
 21
65.9268
 31
0.0
  0
LINE
  8
0
 62
     0
 10
313.421
 20
65.9268
 30
0.0
 11
313.421
 21
79.9264
 31
0.0
  0
LINE
  8
0
 62
     0
 10
294.371
 20
79.9264
 30
0.0
 11
308.37
 21
79.9264
 31
0.0
  0
LINE
  8
0
 62
     0
 10
308.37
 20
79.9264
 30
0.0
 11
308.37
 21
65.9268
 31
0.0
  0
LINE
  8
0
 62
     0
 10
308.37
 20
65.9268
 30
0.0
 11
294.371
 21
65.9268
 31
0.0
  0
LINE
  8
0
 62
     0
 10
294.371
 20
65.9268
 30
0.0
 11
294.371
 21
79.9264
 31
0.0
  0
LINE
  8
0
 62
     0
 10
275.321
 20
79.9264
 30
0.0
 11
289.32
 21
79.9264
 31
0.0
  0
LINE
  8
0
 62
     0
 10
289.32
 20
79.9264
 30
0.0
 11
289.32
 21
65.9268
 31
0.0
  0
LINE
  8
0
 62
     0
 10
289.32
 20
65.9268
 30
0.0
 11
275.321
 21
65.9268
 31
0.0
  0
LINE
  8
0
 62
     0
 10
275.321
 20
65.9268
 30
0.0
 11
275.321
 21
79.9264
 31
0.0
  0
LINE
  8
0
 62
     0
 10
256.271
 20
79.9264
 30
0.0
 11
270.27
 21
79.9264
 31
0.0
  0
LINE
  8
0
 62
     0
 10
270.27
 20
79.9264
 30
0.0
 11
270.27
 21
65.9268
 31
0.0
  0
LINE
  8
0
 62
     0
 10
270.27
 20
65.9268
 30
0.0
 11
256.271
 21
65.9268
 31
0.0
  0
LINE
  8
0
 62
     0
 10
256.271
 20
65.9268
 30
0.0
 11
256.271
 21
79.9264
 31
0.0
  0
LINE
  8
0
 62
     0
 10
237.221
 20
79.9264
 30
0.0
 11
251.22
 21
79.9264
 31
0.0
  0
LINE
  8
0
 62
     0
 10
251.22
 20
79.9264
 30
0.0
 11
251.22
 21
65.9268
 31
0.0
  0
LINE
  8
0
 62
     0
 10
251.22
 20
65.9268
 30
0.0
 11
237.221
 21
65.9268
 31
0.0
  0
LINE
  8
0
 62
     0
 10
237.221
 20
65.9268
 30
0.0
 11
237.221
 21
79.9264
 31
0.0
  0
LINE
  8
0
 62
     0
 10
218.171
 20
79.9264
 30
0.0
 11
232.17
 21
79.9264
 31
0.0
  0
LINE
  8
0
 62
     0
 10
232.17
 20
79.9264
 30
0.0
 11
232.17
 21
65.9268
 31
0.0
  0
LINE
  8
0
 62
     0
 10
232.17
 20
65.9268
 30
0.0
 11
218.171
 21
65.9268
 31
0.0
  0
LINE
  8
0
 62
     0
 10
218.171
 20
65.9268
 30
0.0
 11
218.171
 21
79.9264
 31
0.0
  0
LINE
  8
0
 62
     0
 10
199.121
 20
79.9264
 30
0.0
 11
213.12
 21
79.9264
 31
0.0
  0
LINE
  8
0
 62
     0
 10
213.12
 20
79.9264
 30
0.0
 11
213.12
 21
65.9268
 31
0.0
  0
LINE
  8
0
 62
     0
 10
213.12
 20
65.9268
 30
0.0
 11
199.121
 21
65.9268
 31
0.0
  0
LINE
  8
0
 62
     0
 10
199.121
 20
65.9268
 30
0.0
 11
199.121
 21
79.9264
 31
0.0
  0
LINE
  8
0
 62
     0
 10
180.071
 20
79.9264
 30
0.0
 11
194.07
 21
79.9264
 31
0.0
  0
LINE
  8
0
 62
     0
 10
194.07
 20
79.9264
 30
0.0
 11
194.07
 21
65.9268
 31
0.0
  0
LINE
  8
0
 62
     0
 10
194.07
 20
65.9268
 30
0.0
 11
180.071
 21
65.9268
 31
0.0
  0
LINE
  8
0
 62
     0
 10
180.071
 20
65.9268
 30
0.0
 11
180.071
 21
79.9264
 31
0.0
  0
LINE
  8
0
 62
     0
 10
161.021
 20
79.9264
 30
0.0
 11
175.02
 21
79.9264
 31
0.0
  0
LINE
  8
0
 62
     0
 10
175.02
 20
79.9264
 30
0.0
 11
175.02
 21
65.9268
 31
0.0
  0
LINE
  8
0
 62
     0
 10
175.02
 20
65.9268
 30
0.0
 11
161.021
 21
65.9268
 31
0.0
  0
LINE
  8
0
 62
     0
 10
161.021
 20
65.9268
 30
0.0
 11
161.021
 21
79.9264
 31
0.0
  0
LINE
  8
0
 62
     0
 10
141.971
 20
79.9264
 30
0.0
 11
155.97
 21
79.9264
 31
0.0
  0
LINE
  8
0
 62
     0
 10
155.97
 20
79.9264
 30
0.0
 11
155.97
 21
65.9268
 31
0.0
  0
LINE
  8
0
 62
     0
 10
155.97
 20
65.9268
 30
0.0
 11
141.971
 21
65.9268
 31
0.0
  0
LINE
  8
0
 62
     0
 10
141.971
 20
65.9268
 30
0.0
 11
141.971
 21
79.9264
 31
0.0
  0
LINE
  8
0
 62
     0
 10
122.92
 20
79.9264
 30
0.0
 11
136.92
 21
79.9264
 31
0.0
  0
LINE
  8
0
 62
     0
 10
136.92
 20
79.9264
 30
0.0
 11
136.92
 21
65.9268
 31
0.0
  0
LINE
  8
0
 62
     0
 10
136.92
 20
65.9268
 30
0.0
 11
122.92
 21
65.9268
 31
0.0
  0
LINE
  8
0
 62
     0
 10
122.92
 20
65.9268
 30
0.0
 11
122.92
 21
79.9264
 31
0.0
  0
LINE
  8
0
 62
     0
 10
103.87
 20
79.9264
 30
0.0
 11
117.869
 21
79.9264
 31
0.0
  0
LINE
  8
0
 62
     0
 10
117.869
 20
79.9264
 30
0.0
 11
117.869
 21
65.9268
 31
0.0
  0
LINE
  8
0
 62
     0
 10
117.869
 20
65.9268
 30
0.0
 11
103.87
 21
65.9268
 31
0.0
  0
LINE
  8
0
 62
     0
 10
103.87
 20
65.9268
 30
0.0
 11
103.87
 21
79.9264
 31
0.0
  0
LINE
  8
0
 62
     0
 10
84.8212
 20
79.9264
 30
0.0
 11
98.8205
 21
79.9264
 31
0.0
  0
LINE
  8
0
 62
     0
 10
98.8205
 20
79.9264
 30
0.0
 11
98.8205
 21
65.9268
 31
0.0
  0
LINE
  8
0
 62
     0
 10
98.8205
 20
65.9268
 30
0.0
 11
84.8212
 21
65.9268
 31
0.0
  0
LINE
  8
0
 62
     0
 10
84.8212
 20
65.9268
 30
0.0
 11
84.8212
 21
79.9264
 31
0.0
  0
LINE
  8
0
 62
     0
 10
65.7712
 20
79.9264
 30
0.0
 11
79.7705
 21
79.9264
 31
0.0
  0
LINE
  8
0
 62
     0
 10
79.7705
 20
79.9264
 30
0.0
 11
79.7705
 21
65.9268
 31
0.0
  0
LINE
  8
0
 62
     0
 10
79.7705
 20
65.9268
 30
0.0
 11
65.7712
 21
65.9268
 31
0.0
  0
LINE
  8
0
 62
     0
 10
65.7712
 20
65.9268
 30
0.0
 11
65.7712
 21
79.9264
 31
0.0
  0
LINE
  8
0
 62
     0
 10
46.7212
 20
79.9264
 30
0.0
 11
60.7205
 21
79.9264
 31
0.0
  0
LINE
  8
0
 62
     0
 10
60.7205
 20
79.9264
 30
0.0
 11
60.7205
 21
65.9268
 31
0.0
  0
LINE
  8
0
 62
     0
 10
60.7205
 20
65.9268
 30
0.0
 11
46.7212
 21
65.9268
 31
0.0
  0
LINE
  8
0
 62
     0
 10
46.7212
 20
65.9268
 30
0.0
 11
46.7212
 21
79.9264
 31
0.0
  0
LINE
  8
0
 62
     0
 10
27.671
 20
79.9264
 30
0.0
 11
41.6705
 21
79.9264
 31
0.0
  0
LINE
  8
0
 62
     0
 10
41.6705
 20
79.9264
 30
0.0
 11
41.6705
 21
65.9268
 31
0.0
  0
LINE
  8
0
 62
     0
 10
41.6705
 20
65.9268
 30
0.0
 11
27.671
 21
65.9268
 31
0.0
  0
LINE
  8
0
 62
     0
 10
27.671
 20
65.9268
 30
0.0
 11
27.671
 21
79.9264
 31
0.0
  0
LINE
  8
0
 62
     0
 10
8.61963
 20
79.9264
 30
0.0
 11
22.6205
 21
79.9264
 31
0.0
  0
LINE
  8
0
 62
     0
 10
22.6205
 20
79.9264
 30
0.0
 11
22.6205
 21
65.9268
 31
0.0
  0
LINE
  8
0
 62
     0
 10
22.6205
 20
65.9268
 30
0.0
 11
8.61963
 21
65.9268
 31
0.0
  0
LINE
  8
0
 62
     0
 10
8.61963
 20
65.9268
 30
0.0
 11
8.61963
 21
79.9264
 31
0.0
  0
LINE
  8
0
 62
     0
 10
370.572
 20
98.9764
 30
0.0
 11
384.57
 21
98.9764
 31
0.0
  0
LINE
  8
0
 62
     0
 10
384.57
 20
98.9764
 30
0.0
 11
384.57
 21
84.9768
 31
0.0
  0
LINE
  8
0
 62
     0
 10
384.57
 20
84.9768
 30
0.0
 11
370.572
 21
84.9768
 31
0.0
  0
LINE
  8
0
 62
     0
 10
370.572
 20
84.9768
 30
0.0
 11
370.572
 21
98.9764
 31
0.0
  0
LINE
  8
0
 62
     0
 10
351.521
 20
98.9764
 30
0.0
 11
365.52
 21
98.9764
 31
0.0
  0
LINE
  8
0
 62
     0
 10
365.52
 20
98.9764
 30
0.0
 11
365.52
 21
84.9768
 31
0.0
  0
LINE
  8
0
 62
     0
 10
365.52
 20
84.9768
 30
0.0
 11
351.521
 21
84.9768
 31
0.0
  0
LINE
  8
0
 62
     0
 10
351.521
 20
84.9768
 30
0.0
 11
351.521
 21
98.9764
 31
0.0
  0
LINE
  8
0
 62
     0
 10
332.471
 20
98.9764
 30
0.0
 11
346.47
 21
98.9764
 31
0.0
  0
LINE
  8
0
 62
     0
 10
346.47
 20
98.9764
 30
0.0
 11
346.47
 21
84.9768
 31
0.0
  0
LINE
  8
0
 62
     0
 10
346.47
 20
84.9768
 30
0.0
 11
332.471
 21
84.9768
 31
0.0
  0
LINE
  8
0
 62
     0
 10
332.471
 20
84.9768
 30
0.0
 11
332.471
 21
98.9764
 31
0.0
  0
LINE
  8
0
 62
     0
 10
313.421
 20
98.9764
 30
0.0
 11
327.42
 21
98.9764
 31
0.0
  0
LINE
  8
0
 62
     0
 10
327.42
 20
98.9764
 30
0.0
 11
327.42
 21
84.9768
 31
0.0
  0
LINE
  8
0
 62
     0
 10
327.42
 20
84.9768
 30
0.0
 11
313.421
 21
84.9768
 31
0.0
  0
LINE
  8
0
 62
     0
 10
313.421
 20
84.9768
 30
0.0
 11
313.421
 21
98.9764
 31
0.0
  0
LINE
  8
0
 62
     0
 10
294.371
 20
98.9764
 30
0.0
 11
308.37
 21
98.9764
 31
0.0
  0
LINE
  8
0
 62
     0
 10
308.37
 20
98.9764
 30
0.0
 11
308.37
 21
84.9768
 31
0.0
  0
LINE
  8
0
 62
     0
 10
308.37
 20
84.9768
 30
0.0
 11
294.371
 21
84.9768
 31
0.0
  0
LINE
  8
0
 62
     0
 10
294.371
 20
84.9768
 30
0.0
 11
294.371
 21
98.9764
 31
0.0
  0
LINE
  8
0
 62
     0
 10
275.321
 20
98.9764
 30
0.0
 11
289.32
 21
98.9764
 31
0.0
  0
LINE
  8
0
 62
     0
 10
289.32
 20
98.9764
 30
0.0
 11
289.32
 21
84.9768
 31
0.0
  0
LINE
  8
0
 62
     0
 10
289.32
 20
84.9768
 30
0.0
 11
275.321
 21
84.9768
 31
0.0
  0
LINE
  8
0
 62
     0
 10
275.321
 20
84.9768
 30
0.0
 11
275.321
 21
98.9764
 31
0.0
  0
LINE
  8
0
 62
     0
 10
256.271
 20
98.9764
 30
0.0
 11
270.27
 21
98.9764
 31
0.0
  0
LINE
  8
0
 62
     0
 10
270.27
 20
98.9764
 30
0.0
 11
270.27
 21
84.9768
 31
0.0
  0
LINE
  8
0
 62
     0
 10
270.27
 20
84.9768
 30
0.0
 11
256.271
 21
84.9768
 31
0.0
  0
LINE
  8
0
 62
     0
 10
256.271
 20
84.9768
 30
0.0
 11
256.271
 21
98.9764
 31
0.0
  0
LINE
  8
0
 62
     0
 10
237.221
 20
98.9764
 30
0.0
 11
251.22
 21
98.9764
 31
0.0
  0
LINE
  8
0
 62
     0
 10
251.22
 20
98.9764
 30
0.0
 11
251.22
 21
84.9768
 31
0.0
  0
LINE
  8
0
 62
     0
 10
251.22
 20
84.9768
 30
0.0
 11
237.221
 21
84.9768
 31
0.0
  0
LINE
  8
0
 62
     0
 10
237.221
 20
84.9768
 30
0.0
 11
237.221
 21
98.9764
 31
0.0
  0
LINE
  8
0
 62
     0
 10
218.171
 20
98.9764
 30
0.0
 11
232.17
 21
98.9764
 31
0.0
  0
LINE
  8
0
 62
     0
 10
232.17
 20
98.9764
 30
0.0
 11
232.17
 21
84.9768
 31
0.0
  0
LINE
  8
0
 62
     0
 10
232.17
 20
84.9768
 30
0.0
 11
218.171
 21
84.9768
 31
0.0
  0
LINE
  8
0
 62
     0
 10
218.171
 20
84.9768
 30
0.0
 11
218.171
 21
98.9764
 31
0.0
  0
LINE
  8
0
 62
     0
 10
199.121
 20
98.9764
 30
0.0
 11
213.12
 21
98.9764
 31
0.0
  0
LINE
  8
0
 62
     0
 10
213.12
 20
98.9764
 30
0.0
 11
213.12
 21
84.9768
 31
0.0
  0
LINE
  8
0
 62
     0
 10
213.12
 20
84.9768
 30
0.0
 11
199.121
 21
84.9768
 31
0.0
  0
LINE
  8
0
 62
     0
 10
199.121
 20
84.9768
 30
0.0
 11
199.121
 21
98.9764
 31
0.0
  0
LINE
  8
0
 62
     0
 10
180.071
 20
98.9764
 30
0.0
 11
194.07
 21
98.9764
 31
0.0
  0
LINE
  8
0
 62
     0
 10
194.07
 20
98.9764
 30
0.0
 11
194.07
 21
84.9768
 31
0.0
  0
LINE
  8
0
 62
     0
 10
194.07
 20
84.9768
 30
0.0
 11
180.071
 21
84.9768
 31
0.0
  0
LINE
  8
0
 62
     0
 10
180.071
 20
84.9768
 30
0.0
 11
180.071
 21
98.9764
 31
0.0
  0
LINE
  8
0
 62
     0
 10
161.021
 20
98.9764
 30
0.0
 11
175.02
 21
98.9764
 31
0.0
  0
LINE
  8
0
 62
     0
 10
175.02
 20
98.9764
 30
0.0
 11
175.02
 21
84.9768
 31
0.0
  0
LINE
  8
0
 62
     0
 10
175.02
 20
84.9768
 30
0.0
 11
161.021
 21
84.9768
 31
0.0
  0
LINE
  8
0
 62
     0
 10
161.021
 20
84.9768
 30
0.0
 11
161.021
 21
98.9764
 31
0.0
  0
LINE
  8
0
 62
     0
 10
141.971
 20
98.9764
 30
0.0
 11
155.97
 21
98.9764
 31
0.0
  0
LINE
  8
0
 62
     0
 10
155.97
 20
98.9764
 30
0.0
 11
155.97
 21
84.9768
 31
0.0
  0
LINE
  8
0
 62
     0
 10
155.97
 20
84.9768
 30
0.0
 11
141.971
 21
84.9768
 31
0.0
  0
LINE
  8
0
 62
     0
 10
141.971
 20
84.9768
 30
0.0
 11
141.971
 21
98.9764
 31
0.0
  0
LINE
  8
0
 62
     0
 10
122.92
 20
98.9764
 30
0.0
 11
136.92
 21
98.9764
 31
0.0
  0
LINE
  8
0
 62
     0
 10
136.92
 20
98.9764
 30
0.0
 11
136.92
 21
84.9768
 31
0.0
  0
LINE
  8
0
 62
     0
 10
136.92
 20
84.9768
 30
0.0
 11
122.92
 21
84.9768
 31
0.0
  0
LINE
  8
0
 62
     0
 10
122.92
 20
84.9768
 30
0.0
 11
122.92
 21
98.9764
 31
0.0
  0
LINE
  8
0
 62
     0
 10
103.87
 20
98.9764
 30
0.0
 11
117.869
 21
98.9764
 31
0.0
  0
LINE
  8
0
 62
     0
 10
117.869
 20
98.9764
 30
0.0
 11
117.869
 21
84.9768
 31
0.0
  0
LINE
  8
0
 62
     0
 10
117.869
 20
84.9768
 30
0.0
 11
103.87
 21
84.9768
 31
0.0
  0
LINE
  8
0
 62
     0
 10
103.87
 20
84.9768
 30
0.0
 11
103.87
 21
98.9764
 31
0.0
  0
LINE
  8
0
 62
     0
 10
84.8212
 20
98.9764
 30
0.0
 11
98.8205
 21
98.9764
 31
0.0
  0
LINE
  8
0
 62
     0
 10
98.8205
 20
98.9764
 30
0.0
 11
98.8205
 21
84.9768
 31
0.0
  0
LINE
  8
0
 62
     0
 10
98.8205
 20
84.9768
 30
0.0
 11
84.8212
 21
84.9768
 31
0.0
  0
LINE
  8
0
 62
     0
 10
84.8212
 20
84.9768
 30
0.0
 11
84.8212
 21
98.9764
 31
0.0
  0
LINE
  8
0
 62
     0
 10
65.7712
 20
98.9764
 30
0.0
 11
79.7705
 21
98.9764
 31
0.0
  0
LINE
  8
0
 62
     0
 10
79.7705
 20
98.9764
 30
0.0
 11
79.7705
 21
84.9768
 31
0.0
  0
LINE
  8
0
 62
     0
 10
79.7705
 20
84.9768
 30
0.0
 11
65.7712
 21
84.9768
 31
0.0
  0
LINE
  8
0
 62
     0
 10
65.7712
 20
84.9768
 30
0.0
 11
65.7712
 21
98.9764
 31
0.0
  0
LINE
  8
0
 62
     0
 10
46.7212
 20
98.9764
 30
0.0
 11
60.7205
 21
98.9764
 31
0.0
  0
LINE
  8
0
 62
     0
 10
60.7205
 20
98.9764
 30
0.0
 11
60.7205
 21
84.9768
 31
0.0
  0
LINE
  8
0
 62
     0
 10
60.7205
 20
84.9768
 30
0.0
 11
46.7212
 21
84.9768
 31
0.0
  0
LINE
  8
0
 62
     0
 10
46.7212
 20
84.9768
 30
0.0
 11
46.7212
 21
98.9764
 31
0.0
  0
LINE
  8
0
 62
     0
 10
27.671
 20
98.9764
 30
0.0
 11
41.6705
 21
98.9764
 31
0.0
  0
LINE
  8
0
 62
     0
 10
41.6705
 20
98.9764
 30
0.0
 11
41.6705
 21
84.9768
 31
0.0
  0
LINE
  8
0
 62
     0
 10
41.6705
 20
84.9768
 30
0.0
 11
27.671
 21
84.9768
 31
0.0
  0
LINE
  8
0
 62
     0
 10
27.671
 20
84.9768
 30
0.0
 11
27.671
 21
98.9764
 31
0.0
  0
LINE
  8
0
 62
     0
 10
8.61963
 20
98.9764
 30
0.0
 11
22.6205
 21
98.9764
 31
0.0
  0
LINE
  8
0
 62
     0
 10
22.6205
 20
98.9764
 30
0.0
 11
22.6205
 21
84.9768
 31
0.0
  0
LINE
  8
0
 62
     0
 10
22.6205
 20
84.9768
 30
0.0
 11
8.61963
 21
84.9768
 31
0.0
  0
LINE
  8
0
 62
     0
 10
8.61963
 20
84.9768
 30
0.0
 11
8.61963
 21
98.9764
 31
0.0
  0
LINE
  8
0
 62
     0
 10
370.572
 20
118.027
 30
0.0
 11
384.57
 21
118.027
 31
0.0
  0
LINE
  8
0
 62
     0
 10
384.57
 20
118.027
 30
0.0
 11
384.57
 21
104.027
 31
0.0
  0
LINE
  8
0
 62
     0
 10
384.57
 20
104.027
 30
0.0
 11
370.572
 21
104.027
 31
0.0
  0
LINE
  8
0
 62
     0
 10
370.572
 20
104.027
 30
0.0
 11
370.572
 21
118.027
 31
0.0
  0
LINE
  8
0
 62
     0
 10
351.521
 20
118.027
 30
0.0
 11
365.52
 21
118.027
 31
0.0
  0
LINE
  8
0
 62
     0
 10
365.52
 20
118.027
 30
0.0
 11
365.52
 21
104.027
 31
0.0
  0
LINE
  8
0
 62
     0
 10
365.52
 20
104.027
 30
0.0
 11
351.521
 21
104.027
 31
0.0
  0
LINE
  8
0
 62
     0
 10
351.521
 20
104.027
 30
0.0
 11
351.521
 21
118.027
 31
0.0
  0
LINE
  8
0
 62
     0
 10
332.471
 20
118.027
 30
0.0
 11
346.47
 21
118.027
 31
0.0
  0
LINE
  8
0
 62
     0
 10
346.47
 20
118.027
 30
0.0
 11
346.47
 21
104.027
 31
0.0
  0
LINE
  8
0
 62
     0
 10
346.47
 20
104.027
 30
0.0
 11
332.471
 21
104.027
 31
0.0
  0
LINE
  8
0
 62
     0
 10
332.471
 20
104.027
 30
0.0
 11
332.471
 21
118.027
 31
0.0
  0
LINE
  8
0
 62
     0
 10
313.421
 20
118.027
 30
0.0
 11
327.42
 21
118.027
 31
0.0
  0
LINE
  8
0
 62
     0
 10
327.42
 20
118.027
 30
0.0
 11
327.42
 21
104.027
 31
0.0
  0
LINE
  8
0
 62
     0
 10
327.42
 20
104.027
 30
0.0
 11
313.421
 21
104.027
 31
0.0
  0
LINE
  8
0
 62
     0
 10
313.421
 20
104.027
 30
0.0
 11
313.421
 21
118.027
 31
0.0
  0
LINE
  8
0
 62
     0
 10
294.371
 20
118.027
 30
0.0
 11
308.37
 21
118.027
 31
0.0
  0
LINE
  8
0
 62
     0
 10
308.37
 20
118.027
 30
0.0
 11
308.37
 21
104.027
 31
0.0
  0
LINE
  8
0
 62
     0
 10
308.37
 20
104.027
 30
0.0
 11
294.371
 21
104.027
 31
0.0
  0
LINE
  8
0
 62
     0
 10
294.371
 20
104.027
 30
0.0
 11
294.371
 21
118.027
 31
0.0
  0
LINE
  8
0
 62
     0
 10
275.321
 20
118.027
 30
0.0
 11
289.32
 21
118.027
 31
0.0
  0
LINE
  8
0
 62
     0
 10
289.32
 20
118.027
 30
0.0
 11
289.32
 21
104.027
 31
0.0
  0
LINE
  8
0
 62
     0
 10
289.32
 20
104.027
 30
0.0
 11
275.321
 21
104.027
 31
0.0
  0
LINE
  8
0
 62
     0
 10
275.321
 20
104.027
 30
0.0
 11
275.321
 21
118.027
 31
0.0
  0
LINE
  8
0
 62
     0
 10
256.271
 20
118.027
 30
0.0
 11
270.27
 21
118.027
 31
0.0
  0
LINE
  8
0
 62
     0
 10
270.27
 20
118.027
 30
0.0
 11
270.27
 21
104.027
 31
0.0
  0
LINE
  8
0
 62
     0
 10
270.27
 20
104.027
 30
0.0
 11
256.271
 21
104.027
 31
0.0
  0
LINE
  8
0
 62
     0
 10
256.271
 20
104.027
 30
0.0
 11
256.271
 21
118.027
 31
0.0
  0
LINE
  8
0
 62
     0
 10
237.221
 20
118.027
 30
0.0
 11
251.22
 21
118.027
 31
0.0
  0
LINE
  8
0
 62
     0
 10
251.22
 20
118.027
 30
0.0
 11
251.22
 21
104.027
 31
0.0
  0
LINE
  8
0
 62
     0
 10
251.22
 20
104.027
 30
0.0
 11
237.221
 21
104.027
 31
0.0
  0
LINE
  8
0
 62
     0
 10
237.221
 20
104.027
 30
0.0
 11
237.221
 21
118.027
 31
0.0
  0
LINE
  8
0
 62
     0
 10
218.171
 20
118.027
 30
0.0
 11
232.17
 21
118.027
 31
0.0
  0
LINE
  8
0
 62
     0
 10
232.17
 20
118.027
 30
0.0
 11
232.17
 21
104.027
 31
0.0
  0
LINE
  8
0
 62
     0
 10
232.17
 20
104.027
 30
0.0
 11
218.171
 21
104.027
 31
0.0
  0
LINE
  8
0
 62
     0
 10
218.171
 20
104.027
 30
0.0
 11
218.171
 21
118.027
 31
0.0
  0
LINE
  8
0
 62
     0
 10
199.121
 20
118.027
 30
0.0
 11
213.12
 21
118.027
 31
0.0
  0
LINE
  8
0
 62
     0
 10
213.12
 20
118.027
 30
0.0
 11
213.12
 21
104.027
 31
0.0
  0
LINE
  8
0
 62
     0
 10
213.12
 20
104.027
 30
0.0
 11
199.121
 21
104.027
 31
0.0
  0
LINE
  8
0
 62
     0
 10
199.121
 20
104.027
 30
0.0
 11
199.121
 21
118.027
 31
0.0
  0
LINE
  8
0
 62
     0
 10
180.071
 20
118.027
 30
0.0
 11
194.07
 21
118.027
 31
0.0
  0
LINE
  8
0
 62
     0
 10
194.07
 20
118.027
 30
0.0
 11
194.07
 21
104.027
 31
0.0
  0
LINE
  8
0
 62
     0
 10
194.07
 20
104.027
 30
0.0
 11
180.071
 21
104.027
 31
0.0
  0
LINE
  8
0
 62
     0
 10
180.071
 20
104.027
 30
0.0
 11
180.071
 21
118.027
 31
0.0
  0
LINE
  8
0
 62
     0
 10
161.021
 20
118.027
 30
0.0
 11
175.02
 21
118.027
 31
0.0
  0
LINE
  8
0
 62
     0
 10
175.02
 20
118.027
 30
0.0
 11
175.02
 21
104.027
 31
0.0
  0
LINE
  8
0
 62
     0
 10
175.02
 20
104.027
 30
0.0
 11
161.021
 21
104.027
 31
0.0
  0
LINE
  8
0
 62
     0
 10
161.021
 20
104.027
 30
0.0
 11
161.021
 21
118.027
 31
0.0
  0
LINE
  8
0
 62
     0
 10
141.971
 20
118.027
 30
0.0
 11
155.97
 21
118.027
 31
0.0
  0
LINE
  8
0
 62
     0
 10
155.97
 20
118.027
 30
0.0
 11
155.97
 21
104.027
 31
0.0
  0
LINE
  8
0
 62
     0
 10
155.97
 20
104.027
 30
0.0
 11
141.971
 21
104.027
 31
0.0
  0
LINE
  8
0
 62
     0
 10
141.971
 20
104.027
 30
0.0
 11
141.971
 21
118.027
 31
0.0
  0
LINE
  8
0
 62
     0
 10
122.92
 20
118.027
 30
0.0
 11
136.92
 21
118.027
 31
0.0
  0
LINE
  8
0
 62
     0
 10
136.92
 20
118.027
 30
0.0
 11
136.92
 21
104.027
 31
0.0
  0
LINE
  8
0
 62
     0
 10
136.92
 20
104.027
 30
0.0
 11
122.92
 21
104.027
 31
0.0
  0
LINE
  8
0
 62
     0
 10
122.92
 20
104.027
 30
0.0
 11
122.92
 21
118.027
 31
0.0
  0
LINE
  8
0
 62
     0
 10
103.87
 20
118.027
 30
0.0
 11
117.869
 21
118.027
 31
0.0
  0
LINE
  8
0
 62
     0
 10
117.869
 20
118.027
 30
0.0
 11
117.869
 21
104.027
 31
0.0
  0
LINE
  8
0
 62
     0
 10
117.869
 20
104.027
 30
0.0
 11
103.87
 21
104.027
 31
0.0
  0
LINE
  8
0
 62
     0
 10
103.87
 20
104.027
 30
0.0
 11
103.87
 21
118.027
 31
0.0
  0
LINE
  8
0
 62
     0
 10
84.8212
 20
118.027
 30
0.0
 11
98.8205
 21
118.027
 31
0.0
  0
LINE
  8
0
 62
     0
 10
98.8205
 20
118.027
 30
0.0
 11
98.8205
 21
104.027
 31
0.0
  0
LINE
  8
0
 62
     0
 10
98.8205
 20
104.027
 30
0.0
 11
84.8212
 21
104.027
 31
0.0
  0
LINE
  8
0
 62
     0
 10
84.8212
 20
104.027
 30
0.0
 11
84.8212
 21
118.027
 31
0.0
  0
LINE
  8
0
 62
     0
 10
65.7712
 20
118.027
 30
0.0
 11
79.7705
 21
118.027
 31
0.0
  0
LINE
  8
0
 62
     0
 10
79.7705
 20
118.027
 30
0.0
 11
79.7705
 21
104.027
 31
0.0
  0
LINE
  8
0
 62
     0
 10
79.7705
 20
104.027
 30
0.0
 11
65.7712
 21
104.027
 31
0.0
  0
LINE
  8
0
 62
     0
 10
65.7712
 20
104.027
 30
0.0
 11
65.7712
 21
118.027
 31
0.0
  0
LINE
  8
0
 62
     0
 10
46.7212
 20
118.027
 30
0.0
 11
60.7205
 21
118.027
 31
0.0
  0
LINE
  8
0
 62
     0
 10
60.7205
 20
118.027
 30
0.0
 11
60.7205
 21
104.027
 31
0.0
  0
LINE
  8
0
 62
     0
 10
60.7205
 20
104.027
 30
0.0
 11
46.7212
 21
104.027
 31
0.0
  0
LINE
  8
0
 62
     0
 10
46.7212
 20
104.027
 30
0.0
 11
46.7212
 21
118.027
 31
0.0
  0
LINE
  8
0
 62
     0
 10
27.671
 20
118.027
 30
0.0
 11
41.6705
 21
118.027
 31
0.0
  0
LINE
  8
0
 62
     0
 10
41.6705
 20
118.027
 30
0.0
 11
41.6705
 21
104.027
 31
0.0
  0
LINE
  8
0
 62
     0
 10
41.6705
 20
104.027
 30
0.0
 11
27.671
 21
104.027
 31
0.0
  0
LINE
  8
0
 62
     0
 10
27.671
 20
104.027
 30
0.0
 11
27.671
 21
118.027
 31
0.0
  0
LINE
  8
0
 62
     0
 10
8.61963
 20
118.027
 30
0.0
 11
22.6205
 21
118.027
 31
0.0
  0
LINE
  8
0
 62
     0
 10
22.6205
 20
118.027
 30
0.0
 11
22.6205
 21
104.027
 31
0.0
  0
LINE
  8
0
 62
     0
 10
22.6205
 20
104.027
 30
0.0
 11
8.61963
 21
104.027
 31
0.0
  0
LINE
  8
0
 62
     0
 10
8.61963
 20
104.027
 30
0.0
 11
8.61963
 21
118.027
 31
0.0
  0
LINE
  8
0
 62
     0
 10
2.47633
 20
125.455
 30
0.0
 11
1.91961
 21
125.171
 31
0.0
  0
LINE
  8
0
 62
     0
 10
1.91961
 20
125.171
 30
0.0
 11
1.47588
 21
124.728
 31
0.0
  0
LINE
  8
0
 62
     0
 10
1.47588
 20
124.728
 30
0.0
 11
1.192
 21
124.171
 31
0.0
  0
LINE
  8
0
 62
     0
 10
1.192
 20
124.171
 30
0.0
 11
1.09416
 21
123.552
 31
0.0
  0
LINE
  8
0
 62
     0
 10
1.09416
 20
123.552
 30
0.0
 11
1.192
 21
122.934
 31
0.0
  0
LINE
  8
0
 62
     0
 10
1.192
 20
122.934
 30
0.0
 11
1.47588
 21
122.377
 31
0.0
  0
LINE
  8
0
 62
     0
 10
1.47588
 20
122.377
 30
0.0
 11
1.91961
 21
121.934
 31
0.0
  0
LINE
  8
0
 62
     0
 10
1.91961
 20
121.934
 30
0.0
 11
2.47633
 21
121.649
 31
0.0
  0
LINE
  8
0
 62
     0
 10
2.47633
 20
121.649
 30
0.0
 11
3.09507
 21
121.551
 31
0.0
  0
LINE
  8
0
 62
     0
 10
3.09507
 20
121.551
 30
0.0
 11
3.7138
 21
121.649
 31
0.0
  0
LINE
  8
0
 62
     0
 10
3.7138
 20
121.649
 30
0.0
 11
4.27055
 21
121.934
 31
0.0
  0
LINE
  8
0
 62
     0
 10
4.27055
 20
121.934
 30
0.0
 11
4.7129
 21
122.377
 31
0.0
  0
LINE
  8
0
 62
     0
 10
4.7129
 20
122.377
 30
0.0
 11
4.99816
 21
122.934
 31
0.0
  0
LINE
  8
0
 62
     0
 10
4.99816
 20
122.934
 30
0.0
 11
5.0946
 21
123.552
 31
0.0
  0
LINE
  8
0
 62
     0
 10
5.0946
 20
123.552
 30
0.0
 11
4.99816
 21
124.171
 31
0.0
  0
LINE
  8
0
 62
     0
 10
4.99816
 20
124.171
 30
0.0
 11
4.7129
 21
124.728
 31
0.0
  0
LINE
  8
0
 62
     0
 10
4.7129
 20
124.728
 30
0.0
 11
4.27055
 21
125.171
 31
0.0
  0
LINE
  8
0
 62
     0
 10
4.27055
 20
125.171
 30
0.0
 11
3.7138
 21
125.455
 31
0.0
  0
LINE
  8
0
 62
     0
 10
3.7138
 20
125.455
 30
0.0
 11
3.09507
 21
125.552
 31
0.0
  0
LINE
  8
0
 62
     0
 10
3.09507
 20
125.552
 30
0.0
 11
2.47633
 21
125.455
 31
0.0
  0
LINE
  8
0
 62
     0
 10
389.477
 20
125.455
 30
0.0
 11
388.92
 21
125.171
 31
0.0
  0
LINE
  8
0
 62
     0
 10
388.92
 20
125.171
 30
0.0
 11
388.479
 21
124.728
 31
0.0
  0
LINE
  8
0
 62
     0
 10
388.479
 20
124.728
 30
0.0
 11
388.193
 21
124.171
 31
0.0
  0
LINE
  8
0
 62
     0
 10
388.193
 20
124.171
 30
0.0
 11
388.098
 21
123.552
 31
0.0
  0
LINE
  8
0
 62
     0
 10
388.098
 20
123.552
 30
0.0
 11
388.193
 21
122.934
 31
0.0
  0
LINE
  8
0
 62
     0
 10
388.193
 20
122.934
 30
0.0
 11
388.479
 21
122.377
 31
0.0
  0
LINE
  8
0
 62
     0
 10
388.479
 20
122.377
 30
0.0
 11
388.92
 21
121.934
 31
0.0
  0
LINE
  8
0
 62
     0
 10
388.92
 20
121.934
 30
0.0
 11
389.477
 21
121.649
 31
0.0
  0
LINE
  8
0
 62
     0
 10
389.477
 20
121.649
 30
0.0
 11
390.098
 21
121.551
 31
0.0
  0
LINE
  8
0
 62
     0
 10
390.098
 20
121.551
 30
0.0
 11
390.716
 21
121.649
 31
0.0
  0
LINE
  8
0
 62
     0
 10
390.716
 20
121.649
 30
0.0
 11
391.273
 21
121.934
 31
0.0
  0
LINE
  8
0
 62
     0
 10
391.273
 20
121.934
 30
0.0
 11
391.714
 21
122.377
 31
0.0
  0
LINE
  8
0
 62
     0
 10
391.714
 20
122.377
 30
0.0
 11
392
 21
122.934
 31
0.0
  0
LINE
  8
0
 62
     0
 10
392
 20
122.934
 30
0.0
 11
392.095
 21
123.552
 31
0.0
  0
LINE
  8
0
 62
     0
 10
392.095
 20
123.552
 30
0.0
 11
392
 21
124.171
 31
0.0
  0
LINE
  8
0
 62
     0
 10
392
 20
124.171
 30
0.0
 11
391.714
 21
124.728
 31
0.0
  0
LINE
  8
0
 62
     0
 10
391.714
 20
124.728
 30
0.0
 11
391.273
 21
125.171
 31
0.0
  0
LINE
  8
0
 62
     0
 10
391.273
 20
125.171
 30
0.0
 11
390.716
 21
125.455
 31
0.0
  0
LINE
  8
0
 62
     0
 10
390.716
 20
125.455
 30
0.0
 11
390.098
 21
125.552
 31
0.0
  0
LINE
  8
0
 62
     0
 10
390.098
 20
125.552
 30
0.0
 11
389.477
 21
125.455
 31
0.0
  0
LINE
  8
0
 62
     0
 10
292.727
 20
125.455
 30
0.0
 11
292.17
 21
125.171
 31
0.0
  0
LINE
  8
0
 62
     0
 10
292.17
 20
125.171
 30
0.0
 11
291.728
 21
124.728
 31
0.0
  0
LINE
  8
0
 62
     0
 10
291.728
 20
124.728
 30
0.0
 11
291.444
 21
124.171
 31
0.0
  0
LINE
  8
0
 62
     0
 10
291.444
 20
124.171
 30
0.0
 11
291.345
 21
123.552
 31
0.0
  0
LINE
  8
0
 62
     0
 10
291.345
 20
123.552
 30
0.0
 11
291.444
 21
122.934
 31
0.0
  0
LINE
  8
0
 62
     0
 10
291.444
 20
122.934
 30
0.0
 11
291.728
 21
122.377
 31
0.0
  0
LINE
  8
0
 62
     0
 10
291.728
 20
122.377
 30
0.0
 11
292.17
 21
121.934
 31
0.0
  0
LINE
  8
0
 62
     0
 10
292.17
 20
121.934
 30
0.0
 11
292.727
 21
121.649
 31
0.0
  0
LINE
  8
0
 62
     0
 10
292.727
 20
121.649
 30
0.0
 11
293.346
 21
121.551
 31
0.0
  0
LINE
  8
0
 62
     0
 10
293.346
 20
121.551
 30
0.0
 11
293.963
 21
121.649
 31
0.0
  0
LINE
  8
0
 62
     0
 10
293.963
 20
121.649
 30
0.0
 11
294.521
 21
121.934
 31
0.0
  0
LINE
  8
0
 62
     0
 10
294.521
 20
121.934
 30
0.0
 11
294.963
 21
122.377
 31
0.0
  0
LINE
  8
0
 62
     0
 10
294.963
 20
122.377
 30
0.0
 11
295.247
 21
122.934
 31
0.0
  0
LINE
  8
0
 62
     0
 10
295.247
 20
122.934
 30
0.0
 11
295.345
 21
123.552
 31
0.0
  0
LINE
  8
0
 62
     0
 10
295.345
 20
123.552
 30
0.0
 11
295.247
 21
124.171
 31
0.0
  0
LINE
  8
0
 62
     0
 10
295.247
 20
124.171
 30
0.0
 11
294.963
 21
124.728
 31
0.0
  0
LINE
  8
0
 62
     0
 10
294.963
 20
124.728
 30
0.0
 11
294.521
 21
125.171
 31
0.0
  0
LINE
  8
0
 62
     0
 10
294.521
 20
125.171
 30
0.0
 11
293.963
 21
125.455
 31
0.0
  0
LINE
  8
0
 62
     0
 10
293.963
 20
125.455
 30
0.0
 11
293.346
 21
125.552
 31
0.0
  0
LINE
  8
0
 62
     0
 10
293.346
 20
125.552
 30
0.0
 11
292.727
 21
125.455
 31
0.0
  0
LINE
  8
0
 62
     0
 10
195.978
 20
125.455
 30
0.0
 11
195.419
 21
125.171
 31
0.0
  0
LINE
  8
0
 62
     0
 10
195.419
 20
125.171
 30
0.0
 11
194.977
 21
124.728
 31
0.0
  0
LINE
  8
0
 62
     0
 10
194.977
 20
124.728
 30
0.0
 11
194.693
 21
124.171
 31
0.0
  0
LINE
  8
0
 62
     0
 10
194.693
 20
124.171
 30
0.0
 11
194.595
 21
123.552
 31
0.0
  0
LINE
  8
0
 62
     0
 10
194.595
 20
123.552
 30
0.0
 11
194.693
 21
122.934
 31
0.0
  0
LINE
  8
0
 62
     0
 10
194.693
 20
122.934
 30
0.0
 11
194.977
 21
122.377
 31
0.0
  0
LINE
  8
0
 62
     0
 10
194.977
 20
122.377
 30
0.0
 11
195.419
 21
121.934
 31
0.0
  0
LINE
  8
0
 62
     0
 10
195.419
 20
121.934
 30
0.0
 11
195.978
 21
121.649
 31
0.0
  0
LINE
  8
0
 62
     0
 10
195.978
 20
121.649
 30
0.0
 11
196.595
 21
121.551
 31
0.0
  0
LINE
  8
0
 62
     0
 10
196.595
 20
121.551
 30
0.0
 11
197.214
 21
121.649
 31
0.0
  0
LINE
  8
0
 62
     0
 10
197.214
 20
121.649
 30
0.0
 11
197.772
 21
121.934
 31
0.0
  0
LINE
  8
0
 62
     0
 10
197.772
 20
121.934
 30
0.0
 11
198.213
 21
122.377
 31
0.0
  0
LINE
  8
0
 62
     0
 10
198.213
 20
122.377
 30
0.0
 11
198.498
 21
122.934
 31
0.0
  0
LINE
  8
0
 62
     0
 10
198.498
 20
122.934
 30
0.0
 11
198.596
 21
123.552
 31
0.0
  0
LINE
  8
0
 62
     0
 10
198.596
 20
123.552
 30
0.0
 11
198.498
 21
124.171
 31
0.0
  0
LINE
  8
0
 62
     0
 10
198.498
 20
124.171
 30
0.0
 11
198.213
 21
124.728
 31
0.0
  0
LINE
  8
0
 62
     0
 10
198.213
 20
124.728
 30
0.0
 11
197.772
 21
125.171
 31
0.0
  0
LINE
  8
0
 62
     0
 10
197.772
 20
125.171
 30
0.0
 11
197.214
 21
125.455
 31
0.0
  0
LINE
  8
0
 62
     0
 10
197.214
 20
125.455
 30
0.0
 11
196.595
 21
125.552
 31
0.0
  0
LINE
  8
0
 62
     0
 10
196.595
 20
125.552
 30
0.0
 11
195.978
 21
125.455
 31
0.0
  0
LINE
  8
0
 62
     0
 10
99.2269
 20
125.455
 30
0.0
 11
98.6688
 21
125.171
 31
0.0
  0
LINE
  8
0
 62
     0
 10
98.6688
 20
125.171
 30
0.0
 11
98.2278
 21
124.728
 31
0.0
  0
LINE
  8
0
 62
     0
 10
98.2278
 20
124.728
 30
0.0
 11
97.9442
 21
124.171
 31
0.0
  0
LINE
  8
0
 62
     0
 10
97.9442
 20
124.171
 30
0.0
 11
97.8447
 21
123.552
 31
0.0
  0
LINE
  8
0
 62
     0
 10
97.8447
 20
123.552
 30
0.0
 11
97.9442
 21
122.934
 31
0.0
  0
LINE
  8
0
 62
     0
 10
97.9442
 20
122.934
 30
0.0
 11
98.2278
 21
122.377
 31
0.0
  0
LINE
  8
0
 62
     0
 10
98.2278
 20
122.377
 30
0.0
 11
98.6688
 21
121.934
 31
0.0
  0
LINE
  8
0
 62
     0
 10
98.6688
 20
121.934
 30
0.0
 11
99.2269
 21
121.649
 31
0.0
  0
LINE
  8
0
 62
     0
 10
99.2269
 20
121.649
 30
0.0
 11
99.8456
 21
121.551
 31
0.0
  0
LINE
  8
0
 62
     0
 10
99.8456
 20
121.551
 30
0.0
 11
100.463
 21
121.649
 31
0.0
  0
LINE
  8
0
 62
     0
 10
100.463
 20
121.649
 30
0.0
 11
101.02
 21
121.934
 31
0.0
  0
LINE
  8
0
 62
     0
 10
101.02
 20
121.934
 30
0.0
 11
101.463
 21
122.377
 31
0.0
  0
LINE
  8
0
 62
     0
 10
101.463
 20
122.377
 30
0.0
 11
101.747
 21
122.934
 31
0.0
  0
LINE
  8
0
 62
     0
 10
101.747
 20
122.934
 30
0.0
 11
101.845
 21
123.552
 31
0.0
  0
LINE
  8
0
 62
     0
 10
101.845
 20
123.552
 30
0.0
 11
101.747
 21
124.171
 31
0.0
  0
LINE
  8
0
 62
     0
 10
101.747
 20
124.171
 30
0.0
 11
101.463
 21
124.728
 31
0.0
  0
LINE
  8
0
 62
     0
 10
101.463
 20
124.728
 30
0.0
 11
101.02
 21
125.171
 31
0.0
  0
LINE
  8
0
 62
     0
 10
101.02
 20
125.171
 30
0.0
 11
100.463
 21
125.455
 31
0.0
  0
LINE
  8
0
 62
     0
 10
100.463
 20
125.455
 30
0.0
 11
99.8456
 21
125.552
 31
0.0
  0
LINE
  8
0
 62
     0
 10
99.8456
 20
125.552
 30
0.0
 11
99.2269
 21
125.455
 31
0.0
  0
ENDSEC
  0
EOF
