G04 EAGLE Gerber RS-274X export*
G75*
%MOMM*%
%FSLAX34Y34*%
%LPD*%
%IN*%
%IPPOS*%
%AMOC8*
5,1,8,0,0,1.08239X$1,22.5*%
G01*
%ADD10C,0.254000*%


D10*
X951Y22517D02*
X1020Y20946D01*
X1199Y19389D01*
X1502Y17846D01*
X1929Y16330D01*
X2481Y14855D01*
X3128Y13436D01*
X3900Y12072D01*
X4768Y10763D01*
X5746Y9536D01*
X6808Y8365D01*
X7965Y7304D01*
X9192Y6325D01*
X10501Y5457D01*
X11879Y4685D01*
X13298Y4038D01*
X14759Y3486D01*
X16288Y3073D01*
X17818Y2756D01*
X19389Y2577D01*
X20960Y2508D01*
X3910960Y2508D01*
X3912520Y2577D01*
X3914070Y2756D01*
X3915620Y3073D01*
X3917140Y3486D01*
X3918620Y4038D01*
X3920030Y4685D01*
X3921410Y5457D01*
X3922710Y6325D01*
X3923950Y7304D01*
X3925110Y8365D01*
X3926170Y9536D01*
X3927160Y10763D01*
X3928000Y12072D01*
X3928780Y13436D01*
X3929450Y14855D01*
X3929980Y16330D01*
X3930400Y17846D01*
X3930720Y19389D01*
X3930900Y20946D01*
X3930970Y22517D01*
X3930970Y1245510D01*
X3930900Y1247080D01*
X3930720Y1248650D01*
X3930400Y1250180D01*
X3929980Y1251710D01*
X3929450Y1253170D01*
X3928780Y1254590D01*
X3928000Y1255970D01*
X3927160Y1257280D01*
X3926170Y1258510D01*
X3925110Y1259660D01*
X3923950Y1260730D01*
X3922710Y1261700D01*
X3921410Y1262570D01*
X3920030Y1263340D01*
X3918620Y1263990D01*
X3917140Y1264540D01*
X3915620Y1264970D01*
X3914070Y1265270D01*
X3912520Y1265450D01*
X3910960Y1265520D01*
X20960Y1265520D01*
X19389Y1265450D01*
X17818Y1265270D01*
X16288Y1264970D01*
X14759Y1264540D01*
X13298Y1263990D01*
X11879Y1263340D01*
X10501Y1262570D01*
X9192Y1261700D01*
X7965Y1260730D01*
X6808Y1259660D01*
X5746Y1258510D01*
X4768Y1257280D01*
X3900Y1255970D01*
X3128Y1254590D01*
X2481Y1253170D01*
X1929Y1251710D01*
X1502Y1250180D01*
X1199Y1248650D01*
X1020Y1247080D01*
X951Y1245510D01*
X951Y22517D01*
X978447Y1235520D02*
X979442Y1229340D01*
X982278Y1223770D01*
X986688Y1219340D01*
X992269Y1216490D01*
X998456Y1215510D01*
X1004630Y1216490D01*
X1010200Y1219340D01*
X1014630Y1223770D01*
X1017470Y1229340D01*
X1018450Y1235520D01*
X1017470Y1241710D01*
X1014630Y1247280D01*
X1010200Y1251710D01*
X1004630Y1254550D01*
X998456Y1255520D01*
X992269Y1254550D01*
X986688Y1251710D01*
X982278Y1247280D01*
X979442Y1241710D01*
X978447Y1235520D01*
X1945950Y1235520D02*
X1946930Y1229340D01*
X1949770Y1223770D01*
X1954190Y1219340D01*
X1959780Y1216490D01*
X1965950Y1215510D01*
X1972140Y1216490D01*
X1977720Y1219340D01*
X1982130Y1223770D01*
X1984980Y1229340D01*
X1985960Y1235520D01*
X1984980Y1241710D01*
X1982130Y1247280D01*
X1977720Y1251710D01*
X1972140Y1254550D01*
X1965950Y1255520D01*
X1959780Y1254550D01*
X1954190Y1251710D01*
X1949770Y1247280D01*
X1946930Y1241710D01*
X1945950Y1235520D01*
X2913450Y1235520D02*
X2914440Y1229340D01*
X2917280Y1223770D01*
X2921700Y1219340D01*
X2927270Y1216490D01*
X2933460Y1215510D01*
X2939630Y1216490D01*
X2945210Y1219340D01*
X2949630Y1223770D01*
X2952470Y1229340D01*
X2953450Y1235520D01*
X2952470Y1241710D01*
X2949630Y1247280D01*
X2945210Y1251710D01*
X2939630Y1254550D01*
X2933460Y1255520D01*
X2927270Y1254550D01*
X2921700Y1251710D01*
X2917280Y1247280D01*
X2914440Y1241710D01*
X2913450Y1235520D01*
X2562710Y1040270D02*
X2702700Y1040270D01*
X2702700Y1180270D01*
X2562710Y1180270D01*
X2562710Y1040270D01*
X1038700Y849768D02*
X1178690Y849768D01*
X1178690Y989764D01*
X1038700Y989764D01*
X1038700Y849768D01*
X1610210Y849768D02*
X1750200Y849768D01*
X1750200Y989764D01*
X1610210Y989764D01*
X1610210Y849768D01*
X2753210Y849768D02*
X2893200Y849768D01*
X2893200Y989764D01*
X2753210Y989764D01*
X2753210Y849768D01*
X3134210Y849768D02*
X3274200Y849768D01*
X3274200Y989764D01*
X3134210Y989764D01*
X3134210Y849768D01*
X1945950Y32522D02*
X1946930Y26321D01*
X1949770Y20753D01*
X1954190Y16330D01*
X1959780Y13491D01*
X1965950Y12513D01*
X1972140Y13491D01*
X1977720Y16330D01*
X1982130Y20753D01*
X1984980Y26321D01*
X1985960Y32522D01*
X1984980Y38696D01*
X1982130Y44263D01*
X1977720Y48700D01*
X1972140Y51539D01*
X1965950Y52517D01*
X1959780Y51539D01*
X1954190Y48700D01*
X1949770Y44263D01*
X1946930Y38696D01*
X1945950Y32522D01*
X3515210Y87781D02*
X3655200Y87781D01*
X3655200Y227776D01*
X3515210Y227776D01*
X3515210Y87781D01*
X1610200Y87781D02*
X2131200Y87781D01*
X2131200Y227776D01*
X2101450Y227776D01*
X2101450Y237477D01*
X2068450Y237477D01*
X2068450Y227776D01*
X1910950Y227776D01*
X1910950Y237477D01*
X1877950Y237477D01*
X1877950Y227776D01*
X1863450Y227776D01*
X1863450Y237477D01*
X1830450Y237477D01*
X1830450Y227776D01*
X1672950Y227776D01*
X1672950Y237477D01*
X1639950Y237477D01*
X1639950Y227776D01*
X1610200Y227776D01*
X1610200Y87781D01*
X1038700Y87781D02*
X1559700Y87781D01*
X1559700Y227776D01*
X1529950Y227776D01*
X1529950Y237477D01*
X1496950Y237477D01*
X1496950Y227776D01*
X1339450Y227776D01*
X1339450Y237477D01*
X1306450Y237477D01*
X1306450Y227776D01*
X1291950Y227776D01*
X1291950Y237477D01*
X1258950Y237477D01*
X1258950Y227776D01*
X1101450Y227776D01*
X1101450Y237477D01*
X1068450Y237477D01*
X1068450Y227776D01*
X1038700Y227776D01*
X1038700Y87781D01*
X3324710Y278267D02*
X3464700Y278267D01*
X3464700Y418264D01*
X3324710Y418264D01*
X3324710Y278267D01*
X2753210Y278267D02*
X2893200Y278267D01*
X2893200Y418264D01*
X2753210Y418264D01*
X2753210Y278267D01*
X1800710Y278267D02*
X1940700Y278267D01*
X1940700Y418264D01*
X1800710Y418264D01*
X1800710Y278267D01*
X3515210Y468768D02*
X3655200Y468768D01*
X3655200Y608764D01*
X3515210Y608764D01*
X3515210Y468768D01*
X2372210Y468768D02*
X2512200Y468768D01*
X2512200Y608764D01*
X2372210Y608764D01*
X2372210Y468768D01*
X1991210Y468768D02*
X2131200Y468768D01*
X2131200Y608764D01*
X1991210Y608764D01*
X1991210Y468768D01*
X3515210Y659268D02*
X3655200Y659268D01*
X3655200Y799264D01*
X3515210Y799264D01*
X3515210Y659268D01*
X3134210Y659268D02*
X3274200Y659268D01*
X3274200Y799264D01*
X3134210Y799264D01*
X3134210Y659268D01*
X1991210Y659268D02*
X2131200Y659268D01*
X2131200Y799264D01*
X1991210Y799264D01*
X1991210Y659268D01*
X1610210Y659268D02*
X1750200Y659268D01*
X1750200Y799264D01*
X1610210Y799264D01*
X1610210Y659268D01*
X1038700Y659268D02*
X1178690Y659268D01*
X1178690Y799264D01*
X1038700Y799264D01*
X1038700Y659268D01*
X276710Y1040270D02*
X416705Y1040270D01*
X416705Y1180270D01*
X276710Y1180270D01*
X276710Y1040270D01*
X1800710Y1040270D02*
X1940700Y1040270D01*
X1940700Y1180270D01*
X1800710Y1180270D01*
X1800710Y1040270D01*
X3324710Y1040270D02*
X3464700Y1040270D01*
X3464700Y1180270D01*
X3324710Y1180270D01*
X3324710Y1040270D01*
X1991210Y849768D02*
X2131200Y849768D01*
X2131200Y989764D01*
X1991210Y989764D01*
X1991210Y849768D01*
X2372210Y849768D02*
X2512200Y849768D01*
X2512200Y989764D01*
X2372210Y989764D01*
X2372210Y849768D01*
X3515210Y849768D02*
X3655200Y849768D01*
X3655200Y989764D01*
X3515210Y989764D01*
X3515210Y849768D01*
X2753210Y87781D02*
X2893200Y87781D01*
X2893200Y227776D01*
X2753210Y227776D01*
X2753210Y87781D01*
X657712Y87781D02*
X797705Y87781D01*
X797705Y227776D01*
X657712Y227776D01*
X657712Y87781D01*
X3515210Y278267D02*
X3655200Y278267D01*
X3655200Y418264D01*
X3515210Y418264D01*
X3515210Y278267D01*
X3124510Y308019D02*
X3134210Y308019D01*
X3134210Y278267D01*
X3274200Y278267D01*
X3274200Y608764D01*
X3134210Y608764D01*
X3134210Y579025D01*
X3124510Y579025D01*
X3124510Y546019D01*
X3134210Y546019D01*
X3134210Y341023D01*
X3124510Y341023D01*
X3124510Y308019D01*
X2562710Y278267D02*
X2702700Y278267D01*
X2702700Y418264D01*
X2562710Y418264D01*
X2562710Y278267D01*
X1991210Y278267D02*
X2131200Y278267D01*
X2131200Y418264D01*
X1991210Y418264D01*
X1991210Y278267D01*
X1038700Y278267D02*
X1178690Y278267D01*
X1178690Y418264D01*
X1038700Y418264D01*
X1038700Y278267D01*
X467212Y278267D02*
X607205Y278267D01*
X607205Y418264D01*
X467212Y418264D01*
X467212Y278267D01*
X2753210Y468768D02*
X2893200Y468768D01*
X2893200Y608764D01*
X2753210Y608764D01*
X2753210Y468768D01*
X1610210Y468768D02*
X1750200Y468768D01*
X1750200Y608764D01*
X1610210Y608764D01*
X1610210Y468768D01*
X1038700Y468768D02*
X1178690Y468768D01*
X1178690Y608764D01*
X1038700Y608764D01*
X1038700Y468768D01*
X2753210Y659268D02*
X2893200Y659268D01*
X2893200Y799264D01*
X2753210Y799264D01*
X2753210Y659268D01*
X2372210Y659268D02*
X2512200Y659268D01*
X2512200Y799264D01*
X2372210Y799264D01*
X2372210Y659268D01*
X3880980Y1235520D02*
X3881930Y1229340D01*
X3884790Y1223770D01*
X3889200Y1219340D01*
X3894770Y1216490D01*
X3900980Y1215510D01*
X3907160Y1216490D01*
X3912730Y1219340D01*
X3917140Y1223770D01*
X3920000Y1229340D01*
X3920950Y1235520D01*
X3920000Y1241710D01*
X3917140Y1247280D01*
X3912730Y1251710D01*
X3907160Y1254550D01*
X3900980Y1255520D01*
X3894770Y1254550D01*
X3889200Y1251710D01*
X3884790Y1247280D01*
X3881930Y1241710D01*
X3880980Y1235520D01*
X2181710Y1040270D02*
X2321700Y1040270D01*
X2321700Y1180270D01*
X2181710Y1180270D01*
X2181710Y1040270D01*
X3705720Y1040270D02*
X3845700Y1040270D01*
X3845700Y1180270D01*
X3705720Y1180270D01*
X3705720Y1040270D01*
X657712Y849768D02*
X797705Y849768D01*
X797705Y989764D01*
X657712Y989764D01*
X657712Y849768D01*
X1229200Y849768D02*
X1369200Y849768D01*
X1369200Y989764D01*
X1229200Y989764D01*
X1229200Y849768D01*
X3705720Y87781D02*
X3845700Y87781D01*
X3845700Y227776D01*
X3705720Y227776D01*
X3705720Y87781D01*
X3134210Y87781D02*
X3274200Y87781D01*
X3274200Y227776D01*
X3134210Y227776D01*
X3134210Y87781D01*
X2372210Y87781D02*
X2512200Y87781D01*
X2512200Y227776D01*
X2372210Y227776D01*
X2372210Y87781D01*
X2372210Y278267D02*
X2512200Y278267D01*
X2512200Y418264D01*
X2372210Y418264D01*
X2372210Y278267D01*
X2181710Y278267D02*
X2321700Y278267D01*
X2321700Y418264D01*
X2181710Y418264D01*
X2181710Y278267D01*
X3705720Y468768D02*
X3845700Y468768D01*
X3845700Y608764D01*
X3705720Y608764D01*
X3705720Y468768D01*
X3705720Y659268D02*
X3845700Y659268D01*
X3845700Y799264D01*
X3705720Y799264D01*
X3705720Y659268D01*
X1229200Y659268D02*
X1369200Y659268D01*
X1369200Y799264D01*
X1229200Y799264D01*
X1229200Y659268D01*
X657712Y659268D02*
X797705Y659268D01*
X797705Y799264D01*
X657712Y799264D01*
X657712Y659268D01*
X10942Y1235520D02*
X11920Y1229340D01*
X14759Y1223770D01*
X19196Y1219340D01*
X24763Y1216490D01*
X30951Y1215510D01*
X37138Y1216490D01*
X42706Y1219340D01*
X47129Y1223770D01*
X49982Y1229340D01*
X50946Y1235520D01*
X49982Y1241710D01*
X47129Y1247280D01*
X42706Y1251710D01*
X37138Y1254550D01*
X30951Y1255520D01*
X24763Y1254550D01*
X19196Y1251710D01*
X14759Y1247280D01*
X11920Y1241710D01*
X10942Y1235520D01*
X848212Y1040270D02*
X988205Y1040270D01*
X988205Y1180270D01*
X848212Y1180270D01*
X848212Y1040270D01*
X1419710Y1040270D02*
X1559700Y1040270D01*
X1559700Y1180270D01*
X1419710Y1180270D01*
X1419710Y1040270D01*
X2943710Y1040270D02*
X3083700Y1040270D01*
X3083700Y1180270D01*
X2943710Y1180270D01*
X2943710Y1040270D01*
X3705720Y849768D02*
X3845700Y849768D01*
X3845700Y989764D01*
X3705720Y989764D01*
X3705720Y849768D01*
X2913450Y32522D02*
X2914440Y26321D01*
X2917280Y20753D01*
X2921700Y16330D01*
X2927270Y13491D01*
X2933460Y12513D01*
X2939630Y13491D01*
X2945210Y16330D01*
X2949630Y20753D01*
X2952470Y26321D01*
X2953450Y32522D01*
X2952470Y38696D01*
X2949630Y44263D01*
X2945210Y48700D01*
X2939630Y51539D01*
X2933460Y52517D01*
X2927270Y51539D01*
X2921700Y48700D01*
X2917280Y44263D01*
X2914440Y38696D01*
X2913450Y32522D01*
X3705720Y278267D02*
X3845700Y278267D01*
X3845700Y418264D01*
X3705720Y418264D01*
X3705720Y278267D01*
X2943710Y278267D02*
X3083700Y278267D01*
X3083700Y418264D01*
X2943710Y418264D01*
X2943710Y278267D01*
X1610210Y278267D02*
X1750200Y278267D01*
X1750200Y418264D01*
X1610210Y418264D01*
X1610210Y278267D01*
X1419710Y278267D02*
X1559700Y278267D01*
X1559700Y418264D01*
X1419710Y418264D01*
X1419710Y278267D01*
X1229200Y468768D02*
X1369200Y468768D01*
X1369200Y608764D01*
X1229200Y608764D01*
X1229200Y468768D01*
X657712Y468768D02*
X797705Y468768D01*
X797705Y608764D01*
X657712Y608764D01*
X657712Y468768D01*
X1991210Y1040270D02*
X2131200Y1040270D01*
X2131200Y1180270D01*
X1991210Y1180270D01*
X1991210Y1040270D01*
X3515210Y1040270D02*
X3655200Y1040270D01*
X3655200Y1180270D01*
X3515210Y1180270D01*
X3515210Y1040270D01*
X276710Y849768D02*
X416705Y849768D01*
X416705Y989764D01*
X276710Y989764D01*
X276710Y849768D01*
X1419710Y849768D02*
X1559700Y849768D01*
X1559700Y989764D01*
X1419710Y989764D01*
X1419710Y849768D01*
X1800710Y849768D02*
X1940700Y849768D01*
X1940700Y989764D01*
X1800710Y989764D01*
X1800710Y849768D01*
X2943710Y849768D02*
X3083700Y849768D01*
X3083700Y989764D01*
X2943710Y989764D01*
X2943710Y849768D01*
X3324710Y849768D02*
X3464700Y849768D01*
X3464700Y989764D01*
X3324710Y989764D01*
X3324710Y849768D01*
X3324710Y87781D02*
X3464700Y87781D01*
X3464700Y227776D01*
X3324710Y227776D01*
X3324710Y87781D01*
X2562710Y87781D02*
X2702700Y87781D01*
X2702700Y227776D01*
X2562710Y227776D01*
X2562710Y87781D01*
X276710Y278267D02*
X416705Y278267D01*
X416705Y418264D01*
X276710Y418264D01*
X276710Y278267D01*
X2562710Y468768D02*
X2702700Y468768D01*
X2702700Y608764D01*
X2562710Y608764D01*
X2562710Y468768D01*
X2181710Y468768D02*
X2321700Y468768D01*
X2321700Y608764D01*
X2181710Y608764D01*
X2181710Y468768D01*
X2943710Y659268D02*
X3083700Y659268D01*
X3083700Y799264D01*
X2943710Y799264D01*
X2943710Y659268D01*
X2562710Y659268D02*
X2702700Y659268D01*
X2702700Y799264D01*
X2562710Y799264D01*
X2562710Y659268D01*
X1419710Y659268D02*
X1559700Y659268D01*
X1559700Y799264D01*
X1419710Y799264D01*
X1419710Y659268D01*
X2753210Y1040270D02*
X2893200Y1040270D01*
X2893200Y1180270D01*
X2753210Y1180270D01*
X2753210Y1040270D01*
X2181710Y849768D02*
X2321700Y849768D01*
X2321700Y989764D01*
X2181710Y989764D01*
X2181710Y849768D01*
X2562710Y849768D02*
X2702700Y849768D01*
X2702700Y989764D01*
X2562710Y989764D01*
X2562710Y849768D01*
X276710Y659268D02*
X416705Y659268D01*
X416705Y799264D01*
X276710Y799264D01*
X276710Y659268D01*
X467212Y87781D02*
X607205Y87781D01*
X607205Y227776D01*
X467212Y227776D01*
X467212Y87781D01*
X276710Y87781D02*
X416705Y87781D01*
X416705Y227776D01*
X276710Y227776D01*
X276710Y87781D01*
X1229200Y278267D02*
X1369200Y278267D01*
X1369200Y418264D01*
X1229200Y418264D01*
X1229200Y278267D01*
X657712Y278267D02*
X797705Y278267D01*
X797705Y418264D01*
X657712Y418264D01*
X657712Y278267D01*
X3324710Y468768D02*
X3464700Y468768D01*
X3464700Y608764D01*
X3324710Y608764D01*
X3324710Y468768D01*
X2943710Y468768D02*
X3083700Y468768D01*
X3083700Y608764D01*
X2943710Y608764D01*
X2943710Y468768D01*
X1800710Y468768D02*
X1940700Y468768D01*
X1940700Y608764D01*
X1800710Y608764D01*
X1800710Y468768D01*
X1419710Y468768D02*
X1559700Y468768D01*
X1559700Y608764D01*
X1419710Y608764D01*
X1419710Y468768D01*
X276710Y468768D02*
X416705Y468768D01*
X416705Y608764D01*
X276710Y608764D01*
X276710Y468768D01*
X3324710Y659268D02*
X3464700Y659268D01*
X3464700Y799264D01*
X3324710Y799264D01*
X3324710Y659268D01*
X2181710Y659268D02*
X2321700Y659268D01*
X2321700Y799264D01*
X2181710Y799264D01*
X2181710Y659268D01*
X1800710Y659268D02*
X1940700Y659268D01*
X1940700Y799264D01*
X1800710Y799264D01*
X1800710Y659268D01*
X2372210Y1040270D02*
X2512200Y1040270D01*
X2512200Y1180270D01*
X2372210Y1180270D01*
X2372210Y1040270D01*
X10942Y32522D02*
X11920Y26321D01*
X14759Y20753D01*
X19196Y16330D01*
X24763Y13491D01*
X30951Y12513D01*
X37138Y13491D01*
X42706Y16330D01*
X47129Y20753D01*
X49982Y26321D01*
X50946Y32522D01*
X49982Y38696D01*
X47129Y44263D01*
X42706Y48700D01*
X37138Y51539D01*
X30951Y52517D01*
X24763Y51539D01*
X19196Y48700D01*
X14759Y44263D01*
X11920Y38696D01*
X10942Y32522D01*
X3880980Y32522D02*
X3881930Y26321D01*
X3884790Y20753D01*
X3889200Y16330D01*
X3894770Y13491D01*
X3900980Y12513D01*
X3907160Y13491D01*
X3912730Y16330D01*
X3917140Y20753D01*
X3920000Y26321D01*
X3920950Y32522D01*
X3920000Y38696D01*
X3917140Y44263D01*
X3912730Y48700D01*
X3907160Y51539D01*
X3900980Y52517D01*
X3894770Y51539D01*
X3889200Y48700D01*
X3884790Y44263D01*
X3881930Y38696D01*
X3880980Y32522D01*
X2943710Y87781D02*
X3083700Y87781D01*
X3083700Y227776D01*
X2943710Y227776D01*
X2943710Y87781D01*
X848212Y87781D02*
X988205Y87781D01*
X988205Y227776D01*
X848212Y227776D01*
X848212Y87781D01*
X848212Y468768D02*
X988205Y468768D01*
X988205Y608764D01*
X848212Y608764D01*
X848212Y468768D01*
X467212Y468768D02*
X607205Y468768D01*
X607205Y608764D01*
X467212Y608764D01*
X467212Y468768D01*
X848212Y659268D02*
X988205Y659268D01*
X988205Y799264D01*
X848212Y799264D01*
X848212Y659268D01*
X1610210Y1040270D02*
X1750200Y1040270D01*
X1750200Y1180270D01*
X1610210Y1180270D01*
X1610210Y1040270D01*
X3134210Y1040270D02*
X3274200Y1040270D01*
X3274200Y1180270D01*
X3134210Y1180270D01*
X3134210Y1040270D01*
X467212Y849768D02*
X607205Y849768D01*
X607205Y989764D01*
X467212Y989764D01*
X467212Y849768D01*
X848212Y849768D02*
X988205Y849768D01*
X988205Y989764D01*
X848212Y989764D01*
X848212Y849768D01*
X467212Y659268D02*
X607205Y659268D01*
X607205Y799264D01*
X467212Y799264D01*
X467212Y659268D01*
X2181710Y87781D02*
X2321700Y87781D01*
X2321700Y227776D01*
X2181710Y227776D01*
X2181710Y87781D01*
X848212Y278267D02*
X988205Y278267D01*
X988205Y418264D01*
X848212Y418264D01*
X848212Y278267D01*
X467212Y1040270D02*
X607205Y1040270D01*
X607205Y1180270D01*
X467212Y1180270D01*
X467212Y1040270D01*
X1038700Y1040270D02*
X1178690Y1040270D01*
X1178690Y1180270D01*
X1038700Y1180270D01*
X1038700Y1040270D01*
X978447Y32522D02*
X979442Y26321D01*
X982278Y20753D01*
X986688Y16330D01*
X992269Y13491D01*
X998456Y12513D01*
X1004630Y13491D01*
X1010200Y16330D01*
X1014630Y20753D01*
X1017470Y26321D01*
X1018450Y32522D01*
X1017470Y38696D01*
X1014630Y44263D01*
X1010200Y48700D01*
X1004630Y51539D01*
X998456Y52517D01*
X992269Y51539D01*
X986688Y48700D01*
X982278Y44263D01*
X979442Y38696D01*
X978447Y32522D01*
X657712Y1040270D02*
X797705Y1040270D01*
X797705Y1180270D01*
X657712Y1180270D01*
X657712Y1040270D01*
X1229200Y1040270D02*
X1369200Y1040270D01*
X1369200Y1180270D01*
X1229200Y1180270D01*
X1229200Y1040270D01*
X86196Y468768D02*
X226205Y468768D01*
X226205Y608764D01*
X86196Y608764D01*
X86196Y468768D01*
X86196Y849768D02*
X226205Y849768D01*
X226205Y989764D01*
X86196Y989764D01*
X86196Y849768D01*
X86196Y659268D02*
X226205Y659268D01*
X226205Y799264D01*
X86196Y799264D01*
X86196Y659268D01*
X86196Y278267D02*
X226205Y278267D01*
X226205Y418264D01*
X86196Y418264D01*
X86196Y278267D01*
X86196Y87781D02*
X226205Y87781D01*
X226205Y227776D01*
X86196Y227776D01*
X86196Y87781D01*
X86196Y1040270D02*
X226205Y1040270D01*
X226205Y1180270D01*
X86196Y1180270D01*
X86196Y1040270D01*
M02*
