G04 EAGLE Gerber RS-274X export*
G75*
%MOMM*%
%FSLAX34Y34*%
%LPD*%
%INSolderpaste Top*%
%IPPOS*%
%AMOC8*
5,1,8,0,0,1.08239X$1,22.5*%
G01*
%ADD10C,0.584200*%


D10*
X86741Y48782D02*
X95702Y48782D01*
X95702Y48783D02*
X95920Y48780D01*
X96138Y48772D01*
X96356Y48759D01*
X96574Y48741D01*
X96790Y48717D01*
X97007Y48688D01*
X97222Y48653D01*
X97437Y48613D01*
X97650Y48569D01*
X97863Y48519D01*
X98074Y48463D01*
X98284Y48403D01*
X98492Y48338D01*
X98698Y48267D01*
X98903Y48192D01*
X99106Y48111D01*
X99307Y48026D01*
X99506Y47936D01*
X99702Y47841D01*
X99896Y47741D01*
X100088Y47636D01*
X100277Y47527D01*
X100463Y47414D01*
X100646Y47295D01*
X100827Y47173D01*
X101004Y47046D01*
X101179Y46915D01*
X101350Y46779D01*
X101518Y46640D01*
X101682Y46496D01*
X101843Y46348D01*
X102000Y46197D01*
X102153Y46042D01*
X102303Y45883D01*
X102448Y45720D01*
X102590Y45554D01*
X102727Y45385D01*
X102861Y45212D01*
X102990Y45036D01*
X103115Y44857D01*
X103235Y44675D01*
X103351Y44490D01*
X103462Y44303D01*
X103569Y44112D01*
X103671Y43919D01*
X103769Y43724D01*
X103861Y43526D01*
X103949Y43327D01*
X104032Y43125D01*
X104110Y42921D01*
X104183Y42715D01*
X104251Y42508D01*
X104314Y42299D01*
X104372Y42089D01*
X104424Y41877D01*
X104472Y41664D01*
X104514Y41450D01*
X104551Y41235D01*
X104583Y41019D01*
X104609Y40802D01*
X104630Y40585D01*
X104646Y40367D01*
X104657Y40149D01*
X104662Y39931D01*
X104662Y39713D01*
X104657Y39495D01*
X104646Y39277D01*
X104630Y39059D01*
X104609Y38842D01*
X104583Y38625D01*
X104551Y38409D01*
X104514Y38194D01*
X104472Y37980D01*
X104424Y37767D01*
X104372Y37555D01*
X104314Y37345D01*
X104251Y37136D01*
X104183Y36929D01*
X104110Y36723D01*
X104032Y36519D01*
X103949Y36317D01*
X103861Y36118D01*
X103769Y35920D01*
X103671Y35725D01*
X103569Y35532D01*
X103462Y35342D01*
X103351Y35154D01*
X103235Y34969D01*
X103115Y34787D01*
X102990Y34608D01*
X102861Y34432D01*
X102727Y34259D01*
X102590Y34090D01*
X102448Y33924D01*
X102303Y33761D01*
X102153Y33602D01*
X102000Y33447D01*
X101843Y33296D01*
X101682Y33148D01*
X101518Y33004D01*
X101350Y32865D01*
X101179Y32729D01*
X101004Y32598D01*
X100827Y32471D01*
X100646Y32349D01*
X100463Y32230D01*
X100277Y32117D01*
X100088Y32008D01*
X99896Y31903D01*
X99702Y31803D01*
X99506Y31708D01*
X99307Y31618D01*
X99106Y31533D01*
X98903Y31452D01*
X98698Y31377D01*
X98492Y31306D01*
X98284Y31241D01*
X98074Y31181D01*
X97863Y31125D01*
X97650Y31075D01*
X97437Y31031D01*
X97222Y30991D01*
X97007Y30956D01*
X96790Y30927D01*
X96574Y30903D01*
X96356Y30885D01*
X96138Y30872D01*
X95920Y30864D01*
X95702Y30861D01*
X86741Y30861D01*
X86741Y63119D01*
X95702Y63119D01*
X95877Y63117D01*
X96051Y63110D01*
X96225Y63100D01*
X96399Y63085D01*
X96573Y63066D01*
X96746Y63043D01*
X96918Y63015D01*
X97090Y62983D01*
X97261Y62948D01*
X97430Y62907D01*
X97599Y62863D01*
X97767Y62815D01*
X97934Y62763D01*
X98099Y62706D01*
X98263Y62646D01*
X98425Y62582D01*
X98586Y62513D01*
X98745Y62441D01*
X98902Y62365D01*
X99057Y62285D01*
X99210Y62202D01*
X99361Y62115D01*
X99510Y62024D01*
X99657Y61929D01*
X99801Y61831D01*
X99943Y61729D01*
X100083Y61624D01*
X100220Y61516D01*
X100354Y61404D01*
X100485Y61290D01*
X100614Y61171D01*
X100740Y61050D01*
X100862Y60926D01*
X100982Y60799D01*
X101098Y60669D01*
X101212Y60536D01*
X101322Y60401D01*
X101428Y60262D01*
X101532Y60122D01*
X101631Y59979D01*
X101728Y59833D01*
X101821Y59685D01*
X101910Y59535D01*
X101995Y59383D01*
X102077Y59229D01*
X102155Y59072D01*
X102229Y58914D01*
X102299Y58754D01*
X102365Y58593D01*
X102428Y58430D01*
X102486Y58265D01*
X102540Y58100D01*
X102591Y57932D01*
X102637Y57764D01*
X102679Y57595D01*
X102717Y57424D01*
X102751Y57253D01*
X102780Y57081D01*
X102806Y56908D01*
X102827Y56735D01*
X102844Y56561D01*
X102857Y56387D01*
X102865Y56213D01*
X102869Y56038D01*
X102869Y55864D01*
X102865Y55689D01*
X102857Y55515D01*
X102844Y55341D01*
X102827Y55167D01*
X102806Y54994D01*
X102780Y54821D01*
X102751Y54649D01*
X102717Y54478D01*
X102679Y54307D01*
X102637Y54138D01*
X102591Y53970D01*
X102540Y53802D01*
X102486Y53637D01*
X102428Y53472D01*
X102365Y53309D01*
X102299Y53148D01*
X102229Y52988D01*
X102155Y52830D01*
X102077Y52673D01*
X101995Y52519D01*
X101910Y52367D01*
X101821Y52217D01*
X101728Y52069D01*
X101631Y51923D01*
X101532Y51780D01*
X101428Y51640D01*
X101322Y51501D01*
X101212Y51366D01*
X101098Y51233D01*
X100982Y51103D01*
X100862Y50976D01*
X100740Y50852D01*
X100614Y50731D01*
X100485Y50612D01*
X100354Y50498D01*
X100220Y50386D01*
X100083Y50278D01*
X99943Y50173D01*
X99801Y50071D01*
X99657Y49973D01*
X99510Y49878D01*
X99361Y49787D01*
X99210Y49700D01*
X99057Y49617D01*
X98902Y49537D01*
X98745Y49461D01*
X98586Y49389D01*
X98425Y49320D01*
X98263Y49256D01*
X98099Y49196D01*
X97934Y49139D01*
X97767Y49087D01*
X97599Y49039D01*
X97430Y48995D01*
X97261Y48954D01*
X97090Y48919D01*
X96918Y48887D01*
X96746Y48859D01*
X96573Y48836D01*
X96399Y48817D01*
X96225Y48802D01*
X96051Y48792D01*
X95877Y48785D01*
X95702Y48783D01*
X114175Y54158D02*
X114175Y39822D01*
X114175Y54158D02*
X114178Y54376D01*
X114186Y54594D01*
X114199Y54812D01*
X114217Y55030D01*
X114241Y55246D01*
X114270Y55463D01*
X114305Y55678D01*
X114345Y55893D01*
X114389Y56106D01*
X114439Y56319D01*
X114495Y56530D01*
X114555Y56740D01*
X114620Y56948D01*
X114691Y57154D01*
X114766Y57359D01*
X114847Y57562D01*
X114932Y57763D01*
X115022Y57962D01*
X115117Y58158D01*
X115217Y58352D01*
X115322Y58544D01*
X115431Y58733D01*
X115544Y58919D01*
X115663Y59102D01*
X115785Y59283D01*
X115912Y59460D01*
X116043Y59635D01*
X116179Y59806D01*
X116318Y59974D01*
X116462Y60138D01*
X116610Y60299D01*
X116761Y60456D01*
X116916Y60609D01*
X117075Y60759D01*
X117238Y60904D01*
X117404Y61046D01*
X117573Y61183D01*
X117746Y61317D01*
X117922Y61446D01*
X118101Y61571D01*
X118283Y61691D01*
X118468Y61807D01*
X118656Y61918D01*
X118846Y62025D01*
X119039Y62127D01*
X119234Y62225D01*
X119432Y62317D01*
X119631Y62405D01*
X119833Y62488D01*
X120037Y62566D01*
X120243Y62639D01*
X120450Y62707D01*
X120659Y62770D01*
X120869Y62828D01*
X121081Y62880D01*
X121294Y62928D01*
X121508Y62970D01*
X121723Y63007D01*
X121939Y63039D01*
X122156Y63065D01*
X122373Y63086D01*
X122591Y63102D01*
X122809Y63113D01*
X123027Y63118D01*
X123245Y63118D01*
X123463Y63113D01*
X123681Y63102D01*
X123899Y63086D01*
X124116Y63065D01*
X124333Y63039D01*
X124549Y63007D01*
X124764Y62970D01*
X124978Y62928D01*
X125191Y62880D01*
X125403Y62828D01*
X125613Y62770D01*
X125822Y62707D01*
X126029Y62639D01*
X126235Y62566D01*
X126439Y62488D01*
X126641Y62405D01*
X126840Y62317D01*
X127038Y62225D01*
X127233Y62127D01*
X127426Y62025D01*
X127617Y61918D01*
X127804Y61807D01*
X127989Y61691D01*
X128171Y61571D01*
X128350Y61446D01*
X128526Y61317D01*
X128699Y61183D01*
X128868Y61046D01*
X129034Y60904D01*
X129197Y60759D01*
X129356Y60609D01*
X129511Y60456D01*
X129662Y60299D01*
X129810Y60138D01*
X129954Y59974D01*
X130093Y59806D01*
X130229Y59635D01*
X130360Y59460D01*
X130487Y59283D01*
X130609Y59102D01*
X130728Y58919D01*
X130841Y58733D01*
X130950Y58544D01*
X131055Y58352D01*
X131155Y58158D01*
X131250Y57962D01*
X131340Y57763D01*
X131425Y57562D01*
X131506Y57359D01*
X131581Y57154D01*
X131652Y56948D01*
X131717Y56740D01*
X131777Y56530D01*
X131833Y56319D01*
X131883Y56106D01*
X131927Y55893D01*
X131967Y55678D01*
X132002Y55463D01*
X132031Y55246D01*
X132055Y55030D01*
X132073Y54812D01*
X132086Y54594D01*
X132094Y54376D01*
X132097Y54158D01*
X132096Y54158D02*
X132096Y39822D01*
X132097Y39822D02*
X132094Y39604D01*
X132086Y39386D01*
X132073Y39168D01*
X132055Y38950D01*
X132031Y38734D01*
X132002Y38517D01*
X131967Y38302D01*
X131927Y38087D01*
X131883Y37874D01*
X131833Y37661D01*
X131777Y37450D01*
X131717Y37240D01*
X131652Y37032D01*
X131581Y36826D01*
X131506Y36621D01*
X131425Y36418D01*
X131340Y36217D01*
X131250Y36018D01*
X131155Y35822D01*
X131055Y35628D01*
X130950Y35436D01*
X130841Y35247D01*
X130728Y35061D01*
X130609Y34878D01*
X130487Y34697D01*
X130360Y34520D01*
X130229Y34345D01*
X130093Y34174D01*
X129954Y34006D01*
X129810Y33842D01*
X129662Y33681D01*
X129511Y33524D01*
X129356Y33371D01*
X129197Y33221D01*
X129034Y33076D01*
X128868Y32934D01*
X128699Y32797D01*
X128526Y32663D01*
X128350Y32534D01*
X128171Y32409D01*
X127989Y32289D01*
X127804Y32173D01*
X127617Y32062D01*
X127426Y31955D01*
X127233Y31853D01*
X127038Y31755D01*
X126840Y31663D01*
X126641Y31575D01*
X126439Y31492D01*
X126235Y31414D01*
X126029Y31341D01*
X125822Y31273D01*
X125613Y31210D01*
X125403Y31152D01*
X125191Y31100D01*
X124978Y31052D01*
X124764Y31010D01*
X124549Y30973D01*
X124333Y30941D01*
X124116Y30915D01*
X123899Y30894D01*
X123681Y30878D01*
X123463Y30867D01*
X123245Y30862D01*
X123027Y30862D01*
X122809Y30867D01*
X122591Y30878D01*
X122373Y30894D01*
X122156Y30915D01*
X121939Y30941D01*
X121723Y30973D01*
X121508Y31010D01*
X121294Y31052D01*
X121081Y31100D01*
X120869Y31152D01*
X120659Y31210D01*
X120450Y31273D01*
X120243Y31341D01*
X120037Y31414D01*
X119833Y31492D01*
X119631Y31575D01*
X119432Y31663D01*
X119234Y31755D01*
X119039Y31853D01*
X118846Y31955D01*
X118656Y32062D01*
X118468Y32173D01*
X118283Y32289D01*
X118101Y32409D01*
X117922Y32534D01*
X117746Y32663D01*
X117573Y32797D01*
X117404Y32934D01*
X117238Y33076D01*
X117075Y33221D01*
X116916Y33371D01*
X116761Y33524D01*
X116610Y33681D01*
X116462Y33842D01*
X116318Y34006D01*
X116179Y34174D01*
X116043Y34345D01*
X115912Y34520D01*
X115785Y34697D01*
X115663Y34878D01*
X115544Y35061D01*
X115431Y35247D01*
X115322Y35436D01*
X115217Y35628D01*
X115117Y35822D01*
X115022Y36018D01*
X114932Y36217D01*
X114847Y36418D01*
X114766Y36621D01*
X114691Y36826D01*
X114620Y37032D01*
X114555Y37240D01*
X114495Y37450D01*
X114439Y37661D01*
X114389Y37874D01*
X114345Y38087D01*
X114305Y38302D01*
X114270Y38517D01*
X114241Y38734D01*
X114217Y38950D01*
X114199Y39168D01*
X114186Y39386D01*
X114178Y39604D01*
X114175Y39822D01*
X143891Y30861D02*
X143891Y63119D01*
X152851Y63119D01*
X153069Y63116D01*
X153287Y63108D01*
X153505Y63095D01*
X153723Y63077D01*
X153939Y63053D01*
X154156Y63024D01*
X154371Y62989D01*
X154586Y62949D01*
X154799Y62905D01*
X155012Y62855D01*
X155223Y62799D01*
X155433Y62739D01*
X155641Y62674D01*
X155847Y62603D01*
X156052Y62528D01*
X156255Y62447D01*
X156456Y62362D01*
X156655Y62272D01*
X156851Y62177D01*
X157045Y62077D01*
X157237Y61972D01*
X157426Y61863D01*
X157612Y61750D01*
X157795Y61631D01*
X157976Y61509D01*
X158153Y61382D01*
X158328Y61251D01*
X158499Y61115D01*
X158667Y60976D01*
X158831Y60832D01*
X158992Y60684D01*
X159149Y60533D01*
X159302Y60378D01*
X159452Y60219D01*
X159597Y60056D01*
X159739Y59890D01*
X159876Y59721D01*
X160010Y59548D01*
X160139Y59372D01*
X160264Y59193D01*
X160384Y59011D01*
X160500Y58826D01*
X160611Y58639D01*
X160718Y58448D01*
X160820Y58255D01*
X160918Y58060D01*
X161010Y57862D01*
X161098Y57663D01*
X161181Y57461D01*
X161259Y57257D01*
X161332Y57051D01*
X161400Y56844D01*
X161463Y56635D01*
X161521Y56425D01*
X161573Y56213D01*
X161621Y56000D01*
X161663Y55786D01*
X161700Y55571D01*
X161732Y55355D01*
X161758Y55138D01*
X161779Y54921D01*
X161795Y54703D01*
X161806Y54485D01*
X161811Y54267D01*
X161811Y54049D01*
X161806Y53831D01*
X161795Y53613D01*
X161779Y53395D01*
X161758Y53178D01*
X161732Y52961D01*
X161700Y52745D01*
X161663Y52530D01*
X161621Y52316D01*
X161573Y52103D01*
X161521Y51891D01*
X161463Y51681D01*
X161400Y51472D01*
X161332Y51265D01*
X161259Y51059D01*
X161181Y50855D01*
X161098Y50653D01*
X161010Y50454D01*
X160918Y50256D01*
X160820Y50061D01*
X160718Y49868D01*
X160611Y49678D01*
X160500Y49490D01*
X160384Y49305D01*
X160264Y49123D01*
X160139Y48944D01*
X160010Y48768D01*
X159876Y48595D01*
X159739Y48426D01*
X159597Y48260D01*
X159452Y48097D01*
X159302Y47938D01*
X159149Y47783D01*
X158992Y47632D01*
X158831Y47484D01*
X158667Y47340D01*
X158499Y47201D01*
X158328Y47065D01*
X158153Y46934D01*
X157976Y46807D01*
X157795Y46685D01*
X157612Y46566D01*
X157426Y46453D01*
X157237Y46344D01*
X157045Y46239D01*
X156851Y46139D01*
X156655Y46044D01*
X156456Y45954D01*
X156255Y45869D01*
X156052Y45788D01*
X155847Y45713D01*
X155641Y45642D01*
X155433Y45577D01*
X155223Y45517D01*
X155012Y45461D01*
X154799Y45411D01*
X154586Y45367D01*
X154371Y45327D01*
X154156Y45292D01*
X153939Y45263D01*
X153723Y45239D01*
X153505Y45221D01*
X153287Y45208D01*
X153069Y45200D01*
X152851Y45197D01*
X152851Y45198D02*
X143891Y45198D01*
X185500Y52366D02*
X192668Y30861D01*
X199837Y52366D01*
X209425Y55951D02*
X218386Y63119D01*
X218386Y30861D01*
X227346Y30861D02*
X209425Y30861D01*
X237492Y30861D02*
X237492Y32653D01*
X239284Y32653D01*
X239284Y30861D01*
X237492Y30861D01*
X249430Y55951D02*
X258391Y63119D01*
X258391Y30861D01*
X267351Y30861D02*
X249430Y30861D01*
M02*
